%FSLAX46Y46*%
G04 Gerber Fmt 4.6, Leading zero omitted, Abs format (unit mm)*
G04 Created by KiCad (PCBNEW (2014-jan-25)-product) date Wed 09 Jul 2014 20:06:45 EST*
%MOMM*%
G01*
G04 APERTURE LIST*
%ADD10C,0.150000*%
%ADD11C,0.300000*%
%ADD12C,0.304800*%
%ADD13C,0.203200*%
%ADD14C,0.381000*%
%ADD15C,0.099060*%
%ADD16C,0.127000*%
%ADD17C,0.175000*%
%ADD18C,0.254000*%
%ADD19C,0.109220*%
%ADD20C,0.152400*%
G04 APERTURE END LIST*
D10*
D11*
X129685714Y-88307142D02*
X129900000Y-88378570D01*
X130257143Y-88378570D01*
X130400000Y-88307142D01*
X130471429Y-88235713D01*
X130542857Y-88092856D01*
X130542857Y-87949999D01*
X130471429Y-87807142D01*
X130400000Y-87735713D01*
X130257143Y-87664285D01*
X129971429Y-87592856D01*
X129828571Y-87521428D01*
X129757143Y-87449999D01*
X129685714Y-87307142D01*
X129685714Y-87164285D01*
X129757143Y-87021428D01*
X129828571Y-86949999D01*
X129971429Y-86878570D01*
X130328571Y-86878570D01*
X130542857Y-86949999D01*
X131828571Y-87378570D02*
X131828571Y-88378570D01*
X131185714Y-87378570D02*
X131185714Y-88164285D01*
X131257142Y-88307142D01*
X131400000Y-88378570D01*
X131614285Y-88378570D01*
X131757142Y-88307142D01*
X131828571Y-88235713D01*
X132542857Y-88378570D02*
X132542857Y-87378570D01*
X132542857Y-87521428D02*
X132614285Y-87449999D01*
X132757143Y-87378570D01*
X132971428Y-87378570D01*
X133114285Y-87449999D01*
X133185714Y-87592856D01*
X133185714Y-88378570D01*
X133185714Y-87592856D02*
X133257143Y-87449999D01*
X133400000Y-87378570D01*
X133614285Y-87378570D01*
X133757143Y-87449999D01*
X133828571Y-87592856D01*
X133828571Y-88378570D01*
X134542857Y-88378570D02*
X134542857Y-87378570D01*
X134542857Y-87521428D02*
X134614285Y-87449999D01*
X134757143Y-87378570D01*
X134971428Y-87378570D01*
X135114285Y-87449999D01*
X135185714Y-87592856D01*
X135185714Y-88378570D01*
X135185714Y-87592856D02*
X135257143Y-87449999D01*
X135400000Y-87378570D01*
X135614285Y-87378570D01*
X135757143Y-87449999D01*
X135828571Y-87592856D01*
X135828571Y-88378570D01*
X137114285Y-88307142D02*
X136971428Y-88378570D01*
X136685714Y-88378570D01*
X136542857Y-88307142D01*
X136471428Y-88164285D01*
X136471428Y-87592856D01*
X136542857Y-87449999D01*
X136685714Y-87378570D01*
X136971428Y-87378570D01*
X137114285Y-87449999D01*
X137185714Y-87592856D01*
X137185714Y-87735713D01*
X136471428Y-87878570D01*
X137828571Y-88378570D02*
X137828571Y-87378570D01*
X137828571Y-87664285D02*
X137899999Y-87521428D01*
X137971428Y-87449999D01*
X138114285Y-87378570D01*
X138257142Y-87378570D01*
X121564285Y-83578570D02*
X121564285Y-82078570D01*
X121564285Y-82792856D02*
X122421428Y-82792856D01*
X122421428Y-83578570D02*
X122421428Y-82078570D01*
X122992857Y-82078570D02*
X123350000Y-83578570D01*
X123635714Y-82507142D01*
X123921428Y-83578570D01*
X124278571Y-82078570D01*
X125350000Y-82792856D02*
X125564286Y-82864285D01*
X125635714Y-82935713D01*
X125707143Y-83078570D01*
X125707143Y-83292856D01*
X125635714Y-83435713D01*
X125564286Y-83507142D01*
X125421428Y-83578570D01*
X124850000Y-83578570D01*
X124850000Y-82078570D01*
X125350000Y-82078570D01*
X125492857Y-82149999D01*
X125564286Y-82221428D01*
X125635714Y-82364285D01*
X125635714Y-82507142D01*
X125564286Y-82649999D01*
X125492857Y-82721428D01*
X125350000Y-82792856D01*
X124850000Y-82792856D01*
X142100000Y-121578570D02*
X141600000Y-120864285D01*
X141242857Y-121578570D02*
X141242857Y-120078570D01*
X141814285Y-120078570D01*
X141957143Y-120149999D01*
X142028571Y-120221428D01*
X142100000Y-120364285D01*
X142100000Y-120578570D01*
X142028571Y-120721428D01*
X141957143Y-120792856D01*
X141814285Y-120864285D01*
X141242857Y-120864285D01*
X142528571Y-120078570D02*
X143385714Y-120078570D01*
X142957143Y-121578570D02*
X142957143Y-120078570D01*
X144742857Y-121435713D02*
X144671428Y-121507142D01*
X144457142Y-121578570D01*
X144314285Y-121578570D01*
X144100000Y-121507142D01*
X143957142Y-121364285D01*
X143885714Y-121221428D01*
X143814285Y-120935713D01*
X143814285Y-120721428D01*
X143885714Y-120435713D01*
X143957142Y-120292856D01*
X144100000Y-120149999D01*
X144314285Y-120078570D01*
X144457142Y-120078570D01*
X144671428Y-120149999D01*
X144742857Y-120221428D01*
X147385714Y-121578570D02*
X146885714Y-120864285D01*
X146528571Y-121578570D02*
X146528571Y-120078570D01*
X147099999Y-120078570D01*
X147242857Y-120149999D01*
X147314285Y-120221428D01*
X147385714Y-120364285D01*
X147385714Y-120578570D01*
X147314285Y-120721428D01*
X147242857Y-120792856D01*
X147099999Y-120864285D01*
X146528571Y-120864285D01*
X148599999Y-121507142D02*
X148457142Y-121578570D01*
X148171428Y-121578570D01*
X148028571Y-121507142D01*
X147957142Y-121364285D01*
X147957142Y-120792856D01*
X148028571Y-120649999D01*
X148171428Y-120578570D01*
X148457142Y-120578570D01*
X148599999Y-120649999D01*
X148671428Y-120792856D01*
X148671428Y-120935713D01*
X147957142Y-121078570D01*
X149242856Y-121507142D02*
X149385713Y-121578570D01*
X149671428Y-121578570D01*
X149814285Y-121507142D01*
X149885713Y-121364285D01*
X149885713Y-121292856D01*
X149814285Y-121149999D01*
X149671428Y-121078570D01*
X149457142Y-121078570D01*
X149314285Y-121007142D01*
X149242856Y-120864285D01*
X149242856Y-120792856D01*
X149314285Y-120649999D01*
X149457142Y-120578570D01*
X149671428Y-120578570D01*
X149814285Y-120649999D01*
X151099999Y-121507142D02*
X150957142Y-121578570D01*
X150671428Y-121578570D01*
X150528571Y-121507142D01*
X150457142Y-121364285D01*
X150457142Y-120792856D01*
X150528571Y-120649999D01*
X150671428Y-120578570D01*
X150957142Y-120578570D01*
X151099999Y-120649999D01*
X151171428Y-120792856D01*
X151171428Y-120935713D01*
X150457142Y-121078570D01*
X151599999Y-120578570D02*
X152171428Y-120578570D01*
X151814285Y-120078570D02*
X151814285Y-121364285D01*
X151885713Y-121507142D01*
X152028571Y-121578570D01*
X152171428Y-121578570D01*
X91842857Y-112678570D02*
X91342857Y-111964285D01*
X90985714Y-112678570D02*
X90985714Y-111178570D01*
X91557142Y-111178570D01*
X91700000Y-111249999D01*
X91771428Y-111321428D01*
X91842857Y-111464285D01*
X91842857Y-111678570D01*
X91771428Y-111821428D01*
X91700000Y-111892856D01*
X91557142Y-111964285D01*
X90985714Y-111964285D01*
X93057142Y-112607142D02*
X92914285Y-112678570D01*
X92628571Y-112678570D01*
X92485714Y-112607142D01*
X92414285Y-112464285D01*
X92414285Y-111892856D01*
X92485714Y-111749999D01*
X92628571Y-111678570D01*
X92914285Y-111678570D01*
X93057142Y-111749999D01*
X93128571Y-111892856D01*
X93128571Y-112035713D01*
X92414285Y-112178570D01*
X93699999Y-112607142D02*
X93842856Y-112678570D01*
X94128571Y-112678570D01*
X94271428Y-112607142D01*
X94342856Y-112464285D01*
X94342856Y-112392856D01*
X94271428Y-112249999D01*
X94128571Y-112178570D01*
X93914285Y-112178570D01*
X93771428Y-112107142D01*
X93699999Y-111964285D01*
X93699999Y-111892856D01*
X93771428Y-111749999D01*
X93914285Y-111678570D01*
X94128571Y-111678570D01*
X94271428Y-111749999D01*
X95557142Y-112607142D02*
X95414285Y-112678570D01*
X95128571Y-112678570D01*
X94985714Y-112607142D01*
X94914285Y-112464285D01*
X94914285Y-111892856D01*
X94985714Y-111749999D01*
X95128571Y-111678570D01*
X95414285Y-111678570D01*
X95557142Y-111749999D01*
X95628571Y-111892856D01*
X95628571Y-112035713D01*
X94914285Y-112178570D01*
X96057142Y-111678570D02*
X96628571Y-111678570D01*
X96271428Y-111178570D02*
X96271428Y-112464285D01*
X96342856Y-112607142D01*
X96485714Y-112678570D01*
X96628571Y-112678570D01*
X149707142Y-97178570D02*
X150207142Y-98678570D01*
X150707142Y-97178570D01*
X151849999Y-98678570D02*
X151849999Y-97892856D01*
X151778570Y-97749999D01*
X151635713Y-97678570D01*
X151349999Y-97678570D01*
X151207142Y-97749999D01*
X151849999Y-98607142D02*
X151707142Y-98678570D01*
X151349999Y-98678570D01*
X151207142Y-98607142D01*
X151135713Y-98464285D01*
X151135713Y-98321428D01*
X151207142Y-98178570D01*
X151349999Y-98107142D01*
X151707142Y-98107142D01*
X151849999Y-98035713D01*
X152564285Y-97678570D02*
X152564285Y-99178570D01*
X152564285Y-97749999D02*
X152707142Y-97678570D01*
X152992856Y-97678570D01*
X153135713Y-97749999D01*
X153207142Y-97821428D01*
X153278571Y-97964285D01*
X153278571Y-98392856D01*
X153207142Y-98535713D01*
X153135713Y-98607142D01*
X152992856Y-98678570D01*
X152707142Y-98678570D01*
X152564285Y-98607142D01*
X154135714Y-98678570D02*
X153992856Y-98607142D01*
X153921428Y-98535713D01*
X153849999Y-98392856D01*
X153849999Y-97964285D01*
X153921428Y-97821428D01*
X153992856Y-97749999D01*
X154135714Y-97678570D01*
X154349999Y-97678570D01*
X154492856Y-97749999D01*
X154564285Y-97821428D01*
X154635714Y-97964285D01*
X154635714Y-98392856D01*
X154564285Y-98535713D01*
X154492856Y-98607142D01*
X154349999Y-98678570D01*
X154135714Y-98678570D01*
X155921428Y-97678570D02*
X155921428Y-98678570D01*
X155278571Y-97678570D02*
X155278571Y-98464285D01*
X155349999Y-98607142D01*
X155492857Y-98678570D01*
X155707142Y-98678570D01*
X155849999Y-98607142D01*
X155921428Y-98535713D01*
X156635714Y-98678570D02*
X156635714Y-97678570D01*
X156635714Y-97964285D02*
X156707142Y-97821428D01*
X156778571Y-97749999D01*
X156921428Y-97678570D01*
X157064285Y-97678570D01*
X157349999Y-97678570D02*
X157921428Y-97678570D01*
X157564285Y-98678570D02*
X157564285Y-97392856D01*
X157635713Y-97249999D01*
X157778571Y-97178570D01*
X157921428Y-97178570D01*
X158635714Y-98678570D02*
X158492856Y-98607142D01*
X158421428Y-98535713D01*
X158349999Y-98392856D01*
X158349999Y-97964285D01*
X158421428Y-97821428D01*
X158492856Y-97749999D01*
X158635714Y-97678570D01*
X158849999Y-97678570D01*
X158992856Y-97749999D01*
X159064285Y-97821428D01*
X159135714Y-97964285D01*
X159135714Y-98392856D01*
X159064285Y-98535713D01*
X158992856Y-98607142D01*
X158849999Y-98678570D01*
X158635714Y-98678570D01*
X159778571Y-98678570D02*
X159778571Y-97678570D01*
X159778571Y-97964285D02*
X159849999Y-97821428D01*
X159921428Y-97749999D01*
X160064285Y-97678570D01*
X160207142Y-97678570D01*
X161349999Y-97678570D02*
X161349999Y-98892856D01*
X161278570Y-99035713D01*
X161207142Y-99107142D01*
X161064285Y-99178570D01*
X160849999Y-99178570D01*
X160707142Y-99107142D01*
X161349999Y-98607142D02*
X161207142Y-98678570D01*
X160921428Y-98678570D01*
X160778570Y-98607142D01*
X160707142Y-98535713D01*
X160635713Y-98392856D01*
X160635713Y-97964285D01*
X160707142Y-97821428D01*
X160778570Y-97749999D01*
X160921428Y-97678570D01*
X161207142Y-97678570D01*
X161349999Y-97749999D01*
X162635713Y-98607142D02*
X162492856Y-98678570D01*
X162207142Y-98678570D01*
X162064285Y-98607142D01*
X161992856Y-98464285D01*
X161992856Y-97892856D01*
X162064285Y-97749999D01*
X162207142Y-97678570D01*
X162492856Y-97678570D01*
X162635713Y-97749999D01*
X162707142Y-97892856D01*
X162707142Y-98035713D01*
X161992856Y-98178570D01*
X163349999Y-98535713D02*
X163421427Y-98607142D01*
X163349999Y-98678570D01*
X163278570Y-98607142D01*
X163349999Y-98535713D01*
X163349999Y-98678570D01*
X164707142Y-98607142D02*
X164564285Y-98678570D01*
X164278571Y-98678570D01*
X164135713Y-98607142D01*
X164064285Y-98535713D01*
X163992856Y-98392856D01*
X163992856Y-97964285D01*
X164064285Y-97821428D01*
X164135713Y-97749999D01*
X164278571Y-97678570D01*
X164564285Y-97678570D01*
X164707142Y-97749999D01*
X165564285Y-98678570D02*
X165421427Y-98607142D01*
X165349999Y-98535713D01*
X165278570Y-98392856D01*
X165278570Y-97964285D01*
X165349999Y-97821428D01*
X165421427Y-97749999D01*
X165564285Y-97678570D01*
X165778570Y-97678570D01*
X165921427Y-97749999D01*
X165992856Y-97821428D01*
X166064285Y-97964285D01*
X166064285Y-98392856D01*
X165992856Y-98535713D01*
X165921427Y-98607142D01*
X165778570Y-98678570D01*
X165564285Y-98678570D01*
X166707142Y-98678570D02*
X166707142Y-97678570D01*
X166707142Y-97821428D02*
X166778570Y-97749999D01*
X166921428Y-97678570D01*
X167135713Y-97678570D01*
X167278570Y-97749999D01*
X167349999Y-97892856D01*
X167349999Y-98678570D01*
X167349999Y-97892856D02*
X167421428Y-97749999D01*
X167564285Y-97678570D01*
X167778570Y-97678570D01*
X167921428Y-97749999D01*
X167992856Y-97892856D01*
X167992856Y-98678570D01*
X152921429Y-101078570D02*
X152421429Y-100364285D01*
X152064286Y-101078570D02*
X152064286Y-99578570D01*
X152635714Y-99578570D01*
X152778572Y-99649999D01*
X152850000Y-99721428D01*
X152921429Y-99864285D01*
X152921429Y-100078570D01*
X152850000Y-100221428D01*
X152778572Y-100292856D01*
X152635714Y-100364285D01*
X152064286Y-100364285D01*
X153350000Y-99578570D02*
X154207143Y-99578570D01*
X153778572Y-101078570D02*
X153778572Y-99578570D01*
X155564286Y-100935713D02*
X155492857Y-101007142D01*
X155278571Y-101078570D01*
X155135714Y-101078570D01*
X154921429Y-101007142D01*
X154778571Y-100864285D01*
X154707143Y-100721428D01*
X154635714Y-100435713D01*
X154635714Y-100221428D01*
X154707143Y-99935713D01*
X154778571Y-99792856D01*
X154921429Y-99649999D01*
X155135714Y-99578570D01*
X155278571Y-99578570D01*
X155492857Y-99649999D01*
X155564286Y-99721428D01*
X157992857Y-100078570D02*
X157992857Y-101292856D01*
X157921428Y-101435713D01*
X157850000Y-101507142D01*
X157707143Y-101578570D01*
X157492857Y-101578570D01*
X157350000Y-101507142D01*
X157992857Y-101007142D02*
X157850000Y-101078570D01*
X157564286Y-101078570D01*
X157421428Y-101007142D01*
X157350000Y-100935713D01*
X157278571Y-100792856D01*
X157278571Y-100364285D01*
X157350000Y-100221428D01*
X157421428Y-100149999D01*
X157564286Y-100078570D01*
X157850000Y-100078570D01*
X157992857Y-100149999D01*
X158921429Y-101078570D02*
X158778571Y-101007142D01*
X158707143Y-100935713D01*
X158635714Y-100792856D01*
X158635714Y-100364285D01*
X158707143Y-100221428D01*
X158778571Y-100149999D01*
X158921429Y-100078570D01*
X159135714Y-100078570D01*
X159278571Y-100149999D01*
X159350000Y-100221428D01*
X159421429Y-100364285D01*
X159421429Y-100792856D01*
X159350000Y-100935713D01*
X159278571Y-101007142D01*
X159135714Y-101078570D01*
X158921429Y-101078570D01*
X159921429Y-100078570D02*
X160278572Y-101078570D01*
X160635714Y-100078570D01*
X161778571Y-101007142D02*
X161635714Y-101078570D01*
X161350000Y-101078570D01*
X161207143Y-101007142D01*
X161135714Y-100864285D01*
X161135714Y-100292856D01*
X161207143Y-100149999D01*
X161350000Y-100078570D01*
X161635714Y-100078570D01*
X161778571Y-100149999D01*
X161850000Y-100292856D01*
X161850000Y-100435713D01*
X161135714Y-100578570D01*
X162492857Y-101078570D02*
X162492857Y-100078570D01*
X162492857Y-100364285D02*
X162564285Y-100221428D01*
X162635714Y-100149999D01*
X162778571Y-100078570D01*
X162921428Y-100078570D01*
X163992856Y-101007142D02*
X163849999Y-101078570D01*
X163564285Y-101078570D01*
X163421428Y-101007142D01*
X163349999Y-100864285D01*
X163349999Y-100292856D01*
X163421428Y-100149999D01*
X163564285Y-100078570D01*
X163849999Y-100078570D01*
X163992856Y-100149999D01*
X164064285Y-100292856D01*
X164064285Y-100435713D01*
X163349999Y-100578570D01*
X164707142Y-100078570D02*
X164707142Y-101078570D01*
X164707142Y-100221428D02*
X164778570Y-100149999D01*
X164921428Y-100078570D01*
X165135713Y-100078570D01*
X165278570Y-100149999D01*
X165349999Y-100292856D01*
X165349999Y-101078570D01*
X166635713Y-101007142D02*
X166492856Y-101078570D01*
X166207142Y-101078570D01*
X166064285Y-101007142D01*
X165992856Y-100864285D01*
X165992856Y-100292856D01*
X166064285Y-100149999D01*
X166207142Y-100078570D01*
X166492856Y-100078570D01*
X166635713Y-100149999D01*
X166707142Y-100292856D01*
X166707142Y-100435713D01*
X165992856Y-100578570D01*
X167992856Y-101078570D02*
X167992856Y-99578570D01*
X167992856Y-101007142D02*
X167849999Y-101078570D01*
X167564285Y-101078570D01*
X167421427Y-101007142D01*
X167349999Y-100935713D01*
X167278570Y-100792856D01*
X167278570Y-100364285D01*
X167349999Y-100221428D01*
X167421427Y-100149999D01*
X167564285Y-100078570D01*
X167849999Y-100078570D01*
X167992856Y-100149999D01*
X153778571Y-101978570D02*
X153778571Y-103192856D01*
X153849999Y-103335713D01*
X153921428Y-103407142D01*
X154064285Y-103478570D01*
X154349999Y-103478570D01*
X154492857Y-103407142D01*
X154564285Y-103335713D01*
X154635714Y-103192856D01*
X154635714Y-101978570D01*
X155278571Y-103407142D02*
X155492857Y-103478570D01*
X155850000Y-103478570D01*
X155992857Y-103407142D01*
X156064286Y-103335713D01*
X156135714Y-103192856D01*
X156135714Y-103049999D01*
X156064286Y-102907142D01*
X155992857Y-102835713D01*
X155850000Y-102764285D01*
X155564286Y-102692856D01*
X155421428Y-102621428D01*
X155350000Y-102549999D01*
X155278571Y-102407142D01*
X155278571Y-102264285D01*
X155350000Y-102121428D01*
X155421428Y-102049999D01*
X155564286Y-101978570D01*
X155921428Y-101978570D01*
X156135714Y-102049999D01*
X157278571Y-102692856D02*
X157492857Y-102764285D01*
X157564285Y-102835713D01*
X157635714Y-102978570D01*
X157635714Y-103192856D01*
X157564285Y-103335713D01*
X157492857Y-103407142D01*
X157349999Y-103478570D01*
X156778571Y-103478570D01*
X156778571Y-101978570D01*
X157278571Y-101978570D01*
X157421428Y-102049999D01*
X157492857Y-102121428D01*
X157564285Y-102264285D01*
X157564285Y-102407142D01*
X157492857Y-102549999D01*
X157421428Y-102621428D01*
X157278571Y-102692856D01*
X156778571Y-102692856D01*
X159421428Y-103478570D02*
X159421428Y-101978570D01*
X159992856Y-101978570D01*
X160135714Y-102049999D01*
X160207142Y-102121428D01*
X160278571Y-102264285D01*
X160278571Y-102478570D01*
X160207142Y-102621428D01*
X160135714Y-102692856D01*
X159992856Y-102764285D01*
X159421428Y-102764285D01*
X161135714Y-103478570D02*
X160992856Y-103407142D01*
X160921428Y-103335713D01*
X160849999Y-103192856D01*
X160849999Y-102764285D01*
X160921428Y-102621428D01*
X160992856Y-102549999D01*
X161135714Y-102478570D01*
X161349999Y-102478570D01*
X161492856Y-102549999D01*
X161564285Y-102621428D01*
X161635714Y-102764285D01*
X161635714Y-103192856D01*
X161564285Y-103335713D01*
X161492856Y-103407142D01*
X161349999Y-103478570D01*
X161135714Y-103478570D01*
X162135714Y-102478570D02*
X162421428Y-103478570D01*
X162707142Y-102764285D01*
X162992857Y-103478570D01*
X163278571Y-102478570D01*
X164421428Y-103407142D02*
X164278571Y-103478570D01*
X163992857Y-103478570D01*
X163850000Y-103407142D01*
X163778571Y-103264285D01*
X163778571Y-102692856D01*
X163850000Y-102549999D01*
X163992857Y-102478570D01*
X164278571Y-102478570D01*
X164421428Y-102549999D01*
X164492857Y-102692856D01*
X164492857Y-102835713D01*
X163778571Y-102978570D01*
X165135714Y-103478570D02*
X165135714Y-102478570D01*
X165135714Y-102764285D02*
X165207142Y-102621428D01*
X165278571Y-102549999D01*
X165421428Y-102478570D01*
X165564285Y-102478570D01*
X166635713Y-103407142D02*
X166492856Y-103478570D01*
X166207142Y-103478570D01*
X166064285Y-103407142D01*
X165992856Y-103264285D01*
X165992856Y-102692856D01*
X166064285Y-102549999D01*
X166207142Y-102478570D01*
X166492856Y-102478570D01*
X166635713Y-102549999D01*
X166707142Y-102692856D01*
X166707142Y-102835713D01*
X165992856Y-102978570D01*
X167992856Y-103478570D02*
X167992856Y-101978570D01*
X167992856Y-103407142D02*
X167849999Y-103478570D01*
X167564285Y-103478570D01*
X167421427Y-103407142D01*
X167349999Y-103335713D01*
X167278570Y-103192856D01*
X167278570Y-102764285D01*
X167349999Y-102621428D01*
X167421427Y-102549999D01*
X167564285Y-102478570D01*
X167849999Y-102478570D01*
X167992856Y-102549999D01*
X152492858Y-105807142D02*
X152707144Y-105878570D01*
X153064287Y-105878570D01*
X153207144Y-105807142D01*
X153278573Y-105735713D01*
X153350001Y-105592856D01*
X153350001Y-105449999D01*
X153278573Y-105307142D01*
X153207144Y-105235713D01*
X153064287Y-105164285D01*
X152778573Y-105092856D01*
X152635715Y-105021428D01*
X152564287Y-104949999D01*
X152492858Y-104807142D01*
X152492858Y-104664285D01*
X152564287Y-104521428D01*
X152635715Y-104449999D01*
X152778573Y-104378570D01*
X153135715Y-104378570D01*
X153350001Y-104449999D01*
X153778572Y-104878570D02*
X154350001Y-104878570D01*
X153992858Y-104378570D02*
X153992858Y-105664285D01*
X154064286Y-105807142D01*
X154207144Y-105878570D01*
X154350001Y-105878570D01*
X155421429Y-105807142D02*
X155278572Y-105878570D01*
X154992858Y-105878570D01*
X154850001Y-105807142D01*
X154778572Y-105664285D01*
X154778572Y-105092856D01*
X154850001Y-104949999D01*
X154992858Y-104878570D01*
X155278572Y-104878570D01*
X155421429Y-104949999D01*
X155492858Y-105092856D01*
X155492858Y-105235713D01*
X154778572Y-105378570D01*
X156135715Y-104878570D02*
X156135715Y-106378570D01*
X156135715Y-104949999D02*
X156278572Y-104878570D01*
X156564286Y-104878570D01*
X156707143Y-104949999D01*
X156778572Y-105021428D01*
X156850001Y-105164285D01*
X156850001Y-105592856D01*
X156778572Y-105735713D01*
X156707143Y-105807142D01*
X156564286Y-105878570D01*
X156278572Y-105878570D01*
X156135715Y-105807142D01*
X157492858Y-104878570D02*
X157492858Y-106378570D01*
X157492858Y-104949999D02*
X157635715Y-104878570D01*
X157921429Y-104878570D01*
X158064286Y-104949999D01*
X158135715Y-105021428D01*
X158207144Y-105164285D01*
X158207144Y-105592856D01*
X158135715Y-105735713D01*
X158064286Y-105807142D01*
X157921429Y-105878570D01*
X157635715Y-105878570D01*
X157492858Y-105807142D01*
X159421429Y-105807142D02*
X159278572Y-105878570D01*
X158992858Y-105878570D01*
X158850001Y-105807142D01*
X158778572Y-105664285D01*
X158778572Y-105092856D01*
X158850001Y-104949999D01*
X158992858Y-104878570D01*
X159278572Y-104878570D01*
X159421429Y-104949999D01*
X159492858Y-105092856D01*
X159492858Y-105235713D01*
X158778572Y-105378570D01*
X160135715Y-105878570D02*
X160135715Y-104878570D01*
X160135715Y-105164285D02*
X160207143Y-105021428D01*
X160278572Y-104949999D01*
X160421429Y-104878570D01*
X160564286Y-104878570D01*
X162207143Y-105878570D02*
X162207143Y-104378570D01*
X162564286Y-104378570D01*
X162778571Y-104449999D01*
X162921429Y-104592856D01*
X162992857Y-104735713D01*
X163064286Y-105021428D01*
X163064286Y-105235713D01*
X162992857Y-105521428D01*
X162921429Y-105664285D01*
X162778571Y-105807142D01*
X162564286Y-105878570D01*
X162207143Y-105878570D01*
X163707143Y-105878570D02*
X163707143Y-104878570D01*
X163707143Y-105164285D02*
X163778571Y-105021428D01*
X163850000Y-104949999D01*
X163992857Y-104878570D01*
X164135714Y-104878570D01*
X164635714Y-105878570D02*
X164635714Y-104878570D01*
X164635714Y-104378570D02*
X164564285Y-104449999D01*
X164635714Y-104521428D01*
X164707142Y-104449999D01*
X164635714Y-104378570D01*
X164635714Y-104521428D01*
X165207143Y-104878570D02*
X165564286Y-105878570D01*
X165921428Y-104878570D01*
X167064285Y-105807142D02*
X166921428Y-105878570D01*
X166635714Y-105878570D01*
X166492857Y-105807142D01*
X166421428Y-105664285D01*
X166421428Y-105092856D01*
X166492857Y-104949999D01*
X166635714Y-104878570D01*
X166921428Y-104878570D01*
X167064285Y-104949999D01*
X167135714Y-105092856D01*
X167135714Y-105235713D01*
X166421428Y-105378570D01*
X167778571Y-105878570D02*
X167778571Y-104878570D01*
X167778571Y-105164285D02*
X167849999Y-105021428D01*
X167921428Y-104949999D01*
X168064285Y-104878570D01*
X168207142Y-104878570D01*
X155635714Y-106778570D02*
X156135714Y-108278570D01*
X156635714Y-106778570D01*
X157707142Y-108207142D02*
X157564285Y-108278570D01*
X157278571Y-108278570D01*
X157135714Y-108207142D01*
X157064285Y-108064285D01*
X157064285Y-107492856D01*
X157135714Y-107349999D01*
X157278571Y-107278570D01*
X157564285Y-107278570D01*
X157707142Y-107349999D01*
X157778571Y-107492856D01*
X157778571Y-107635713D01*
X157064285Y-107778570D01*
X158421428Y-108278570D02*
X158421428Y-107278570D01*
X158421428Y-107564285D02*
X158492856Y-107421428D01*
X158564285Y-107349999D01*
X158707142Y-107278570D01*
X158849999Y-107278570D01*
X159278570Y-108207142D02*
X159421427Y-108278570D01*
X159707142Y-108278570D01*
X159849999Y-108207142D01*
X159921427Y-108064285D01*
X159921427Y-107992856D01*
X159849999Y-107849999D01*
X159707142Y-107778570D01*
X159492856Y-107778570D01*
X159349999Y-107707142D01*
X159278570Y-107564285D01*
X159278570Y-107492856D01*
X159349999Y-107349999D01*
X159492856Y-107278570D01*
X159707142Y-107278570D01*
X159849999Y-107349999D01*
X160564285Y-108278570D02*
X160564285Y-107278570D01*
X160564285Y-106778570D02*
X160492856Y-106849999D01*
X160564285Y-106921428D01*
X160635713Y-106849999D01*
X160564285Y-106778570D01*
X160564285Y-106921428D01*
X161492857Y-108278570D02*
X161349999Y-108207142D01*
X161278571Y-108135713D01*
X161207142Y-107992856D01*
X161207142Y-107564285D01*
X161278571Y-107421428D01*
X161349999Y-107349999D01*
X161492857Y-107278570D01*
X161707142Y-107278570D01*
X161849999Y-107349999D01*
X161921428Y-107421428D01*
X161992857Y-107564285D01*
X161992857Y-107992856D01*
X161921428Y-108135713D01*
X161849999Y-108207142D01*
X161707142Y-108278570D01*
X161492857Y-108278570D01*
X162635714Y-107278570D02*
X162635714Y-108278570D01*
X162635714Y-107421428D02*
X162707142Y-107349999D01*
X162850000Y-107278570D01*
X163064285Y-107278570D01*
X163207142Y-107349999D01*
X163278571Y-107492856D01*
X163278571Y-108278570D01*
X165421428Y-106778570D02*
X165564285Y-106778570D01*
X165707142Y-106849999D01*
X165778571Y-106921428D01*
X165850000Y-107064285D01*
X165921428Y-107349999D01*
X165921428Y-107707142D01*
X165850000Y-107992856D01*
X165778571Y-108135713D01*
X165707142Y-108207142D01*
X165564285Y-108278570D01*
X165421428Y-108278570D01*
X165278571Y-108207142D01*
X165207142Y-108135713D01*
X165135714Y-107992856D01*
X165064285Y-107707142D01*
X165064285Y-107349999D01*
X165135714Y-107064285D01*
X165207142Y-106921428D01*
X165278571Y-106849999D01*
X165421428Y-106778570D01*
X166564285Y-108135713D02*
X166635713Y-108207142D01*
X166564285Y-108278570D01*
X166492856Y-108207142D01*
X166564285Y-108135713D01*
X166564285Y-108278570D01*
X168064285Y-108278570D02*
X167207142Y-108278570D01*
X167635714Y-108278570D02*
X167635714Y-106778570D01*
X167492857Y-106992856D01*
X167349999Y-107135713D01*
X167207142Y-107207142D01*
X153492859Y-109321428D02*
X153564288Y-109249999D01*
X153707145Y-109178570D01*
X154064288Y-109178570D01*
X154207145Y-109249999D01*
X154278574Y-109321428D01*
X154350002Y-109464285D01*
X154350002Y-109607142D01*
X154278574Y-109821428D01*
X153421431Y-110678570D01*
X154350002Y-110678570D01*
X155278573Y-109178570D02*
X155421430Y-109178570D01*
X155564287Y-109249999D01*
X155635716Y-109321428D01*
X155707145Y-109464285D01*
X155778573Y-109749999D01*
X155778573Y-110107142D01*
X155707145Y-110392856D01*
X155635716Y-110535713D01*
X155564287Y-110607142D01*
X155421430Y-110678570D01*
X155278573Y-110678570D01*
X155135716Y-110607142D01*
X155064287Y-110535713D01*
X154992859Y-110392856D01*
X154921430Y-110107142D01*
X154921430Y-109749999D01*
X154992859Y-109464285D01*
X155064287Y-109321428D01*
X155135716Y-109249999D01*
X155278573Y-109178570D01*
X157207144Y-110678570D02*
X156350001Y-110678570D01*
X156778573Y-110678570D02*
X156778573Y-109178570D01*
X156635716Y-109392856D01*
X156492858Y-109535713D01*
X156350001Y-109607142D01*
X158492858Y-109678570D02*
X158492858Y-110678570D01*
X158135715Y-109107142D02*
X157778572Y-110178570D01*
X158707144Y-110178570D01*
X159278572Y-110107142D02*
X160421429Y-110107142D01*
X161421429Y-109178570D02*
X161564286Y-109178570D01*
X161707143Y-109249999D01*
X161778572Y-109321428D01*
X161850001Y-109464285D01*
X161921429Y-109749999D01*
X161921429Y-110107142D01*
X161850001Y-110392856D01*
X161778572Y-110535713D01*
X161707143Y-110607142D01*
X161564286Y-110678570D01*
X161421429Y-110678570D01*
X161278572Y-110607142D01*
X161207143Y-110535713D01*
X161135715Y-110392856D01*
X161064286Y-110107142D01*
X161064286Y-109749999D01*
X161135715Y-109464285D01*
X161207143Y-109321428D01*
X161278572Y-109249999D01*
X161421429Y-109178570D01*
X162421429Y-109178570D02*
X163421429Y-109178570D01*
X162778572Y-110678570D01*
X163992857Y-110107142D02*
X165135714Y-110107142D01*
X166135714Y-109178570D02*
X166278571Y-109178570D01*
X166421428Y-109249999D01*
X166492857Y-109321428D01*
X166564286Y-109464285D01*
X166635714Y-109749999D01*
X166635714Y-110107142D01*
X166564286Y-110392856D01*
X166492857Y-110535713D01*
X166421428Y-110607142D01*
X166278571Y-110678570D01*
X166135714Y-110678570D01*
X165992857Y-110607142D01*
X165921428Y-110535713D01*
X165850000Y-110392856D01*
X165778571Y-110107142D01*
X165778571Y-109749999D01*
X165850000Y-109464285D01*
X165921428Y-109321428D01*
X165992857Y-109249999D01*
X166135714Y-109178570D01*
X167492857Y-109821428D02*
X167349999Y-109749999D01*
X167278571Y-109678570D01*
X167207142Y-109535713D01*
X167207142Y-109464285D01*
X167278571Y-109321428D01*
X167349999Y-109249999D01*
X167492857Y-109178570D01*
X167778571Y-109178570D01*
X167921428Y-109249999D01*
X167992857Y-109321428D01*
X168064285Y-109464285D01*
X168064285Y-109535713D01*
X167992857Y-109678570D01*
X167921428Y-109749999D01*
X167778571Y-109821428D01*
X167492857Y-109821428D01*
X167349999Y-109892856D01*
X167278571Y-109964285D01*
X167207142Y-110107142D01*
X167207142Y-110392856D01*
X167278571Y-110535713D01*
X167349999Y-110607142D01*
X167492857Y-110678570D01*
X167778571Y-110678570D01*
X167921428Y-110607142D01*
X167992857Y-110535713D01*
X168064285Y-110392856D01*
X168064285Y-110107142D01*
X167992857Y-109964285D01*
X167921428Y-109892856D01*
X167778571Y-109821428D01*
X148628571Y-94878570D02*
X147771428Y-94878570D01*
X148200000Y-94878570D02*
X148200000Y-93378570D01*
X148057143Y-93592856D01*
X147914285Y-93735713D01*
X147771428Y-93807142D01*
D12*
X114858799Y-84996199D02*
X114858799Y-95003799D01*
X114858799Y-95003799D02*
X104851199Y-95003799D01*
X104851199Y-85478799D02*
X104851199Y-95003799D01*
X105333799Y-84996199D02*
X114858799Y-84996199D01*
X104851199Y-85478799D02*
X105333799Y-84996199D01*
D13*
X106679999Y-86189999D02*
G75*
G03X106679999Y-86189999I-635000J0D01*
G74*
G01*
D14*
X79285999Y-100999999D02*
G75*
G03X79285999Y-100999999I-2286000J0D01*
G74*
G01*
D15*
X109854999Y-104139999D02*
G75*
G03X109854999Y-104139999I-127000J0D01*
G74*
G01*
X110870999Y-104139999D02*
X109854999Y-104139999D01*
X109854999Y-104139999D02*
X109854999Y-102615999D01*
X109854999Y-102615999D02*
X110870999Y-102615999D01*
X111886999Y-102615999D02*
X112902999Y-102615999D01*
X112902999Y-102615999D02*
X112902999Y-104139999D01*
X112902999Y-104139999D02*
X111886999Y-104139999D01*
X109346999Y-102615999D02*
G75*
G03X109346999Y-102615999I-127000J0D01*
G74*
G01*
X108076999Y-102615999D02*
X109092999Y-102615999D01*
X109092999Y-102615999D02*
X109092999Y-104139999D01*
X109092999Y-104139999D02*
X108076999Y-104139999D01*
X107060999Y-104139999D02*
X106044999Y-104139999D01*
X106044999Y-104139999D02*
X106044999Y-102615999D01*
X106044999Y-102615999D02*
X107060999Y-102615999D01*
X97970999Y-90904999D02*
G75*
G03X97970999Y-90904999I-127000J0D01*
G74*
G01*
X98986999Y-90904999D02*
X97970999Y-90904999D01*
X97970999Y-90904999D02*
X97970999Y-89380999D01*
X97970999Y-89380999D02*
X98986999Y-89380999D01*
X100002999Y-89380999D02*
X101018999Y-89380999D01*
X101018999Y-89380999D02*
X101018999Y-90904999D01*
X101018999Y-90904999D02*
X100002999Y-90904999D01*
X79628999Y-86232999D02*
G75*
G03X79628999Y-86232999I-127000J0D01*
G74*
G01*
X79501999Y-87375999D02*
X79501999Y-86359999D01*
X79501999Y-86359999D02*
X81025999Y-86359999D01*
X81025999Y-86359999D02*
X81025999Y-87375999D01*
X81025999Y-88391999D02*
X81025999Y-89407999D01*
X81025999Y-89407999D02*
X79501999Y-89407999D01*
X79501999Y-89407999D02*
X79501999Y-88391999D01*
X99694999Y-83438999D02*
G75*
G03X99694999Y-83438999I-127000J0D01*
G74*
G01*
X99567999Y-84581999D02*
X99567999Y-83565999D01*
X99567999Y-83565999D02*
X101091999Y-83565999D01*
X101091999Y-83565999D02*
X101091999Y-84581999D01*
X101091999Y-85597999D02*
X101091999Y-86613999D01*
X101091999Y-86613999D02*
X99567999Y-86613999D01*
X99567999Y-86613999D02*
X99567999Y-85597999D01*
X108457999Y-98297999D02*
G75*
G03X108457999Y-98297999I-127000J0D01*
G74*
G01*
X107187999Y-98297999D02*
X108203999Y-98297999D01*
X108203999Y-98297999D02*
X108203999Y-99821999D01*
X108203999Y-99821999D02*
X107187999Y-99821999D01*
X106171999Y-99821999D02*
X105155999Y-99821999D01*
X105155999Y-99821999D02*
X105155999Y-98297999D01*
X105155999Y-98297999D02*
X106171999Y-98297999D01*
X119633999Y-95565999D02*
G75*
G03X119633999Y-95565999I-127000J0D01*
G74*
G01*
X119506999Y-94422999D02*
X119506999Y-95438999D01*
X119506999Y-95438999D02*
X117982999Y-95438999D01*
X117982999Y-95438999D02*
X117982999Y-94422999D01*
X117982999Y-93406999D02*
X117982999Y-92390999D01*
X117982999Y-92390999D02*
X119506999Y-92390999D01*
X119506999Y-92390999D02*
X119506999Y-93406999D01*
X107187999Y-80517999D02*
G75*
G03X107187999Y-80517999I-127000J0D01*
G74*
G01*
X105917999Y-80517999D02*
X106933999Y-80517999D01*
X106933999Y-80517999D02*
X106933999Y-82041999D01*
X106933999Y-82041999D02*
X105917999Y-82041999D01*
X104901999Y-82041999D02*
X103885999Y-82041999D01*
X103885999Y-82041999D02*
X103885999Y-80517999D01*
X103885999Y-80517999D02*
X104901999Y-80517999D01*
X105790999Y-79501999D02*
G75*
G03X105790999Y-79501999I-127000J0D01*
G74*
G01*
X106806999Y-79501999D02*
X105790999Y-79501999D01*
X105790999Y-79501999D02*
X105790999Y-77977999D01*
X105790999Y-77977999D02*
X106806999Y-77977999D01*
X107822999Y-77977999D02*
X108838999Y-77977999D01*
X108838999Y-77977999D02*
X108838999Y-79501999D01*
X108838999Y-79501999D02*
X107822999Y-79501999D01*
X121030999Y-109727999D02*
G75*
G03X121030999Y-109727999I-127000J0D01*
G74*
G01*
X120903999Y-110870999D02*
X120903999Y-109854999D01*
X120903999Y-109854999D02*
X122427999Y-109854999D01*
X122427999Y-109854999D02*
X122427999Y-110870999D01*
X122427999Y-111886999D02*
X122427999Y-112902999D01*
X122427999Y-112902999D02*
X120903999Y-112902999D01*
X120903999Y-112902999D02*
X120903999Y-111886999D01*
X145507999Y-102087999D02*
G75*
G03X145507999Y-102087999I-127000J0D01*
G74*
G01*
X144237999Y-102087999D02*
X145253999Y-102087999D01*
X145253999Y-102087999D02*
X145253999Y-103611999D01*
X145253999Y-103611999D02*
X144237999Y-103611999D01*
X143221999Y-103611999D02*
X142205999Y-103611999D01*
X142205999Y-103611999D02*
X142205999Y-102087999D01*
X142205999Y-102087999D02*
X143221999Y-102087999D01*
X145507999Y-108387999D02*
G75*
G03X145507999Y-108387999I-127000J0D01*
G74*
G01*
X144237999Y-108387999D02*
X145253999Y-108387999D01*
X145253999Y-108387999D02*
X145253999Y-109911999D01*
X145253999Y-109911999D02*
X144237999Y-109911999D01*
X143221999Y-109911999D02*
X142205999Y-109911999D01*
X142205999Y-109911999D02*
X142205999Y-108387999D01*
X142205999Y-108387999D02*
X143221999Y-108387999D01*
X146424999Y-104254999D02*
G75*
G03X146424999Y-104254999I-127000J0D01*
G74*
G01*
X145154999Y-104254999D02*
X146170999Y-104254999D01*
X146170999Y-104254999D02*
X146170999Y-105778999D01*
X146170999Y-105778999D02*
X145154999Y-105778999D01*
X144138999Y-105778999D02*
X143122999Y-105778999D01*
X143122999Y-105778999D02*
X143122999Y-104254999D01*
X143122999Y-104254999D02*
X144138999Y-104254999D01*
X144535999Y-106440999D02*
G75*
G03X144535999Y-106440999I-127000J0D01*
G74*
G01*
X143265999Y-106440999D02*
X144281999Y-106440999D01*
X144281999Y-106440999D02*
X144281999Y-107964999D01*
X144281999Y-107964999D02*
X143265999Y-107964999D01*
X142249999Y-107964999D02*
X141233999Y-107964999D01*
X141233999Y-107964999D02*
X141233999Y-106440999D01*
X141233999Y-106440999D02*
X142249999Y-106440999D01*
D14*
X89285999Y-100999999D02*
G75*
G03X89285999Y-100999999I-2286000J0D01*
G74*
G01*
D13*
X146578999Y-93067999D02*
G75*
G03X146578999Y-93067999I-254000J0D01*
G74*
G01*
X146868999Y-94858999D02*
X146868999Y-99658999D01*
X146868999Y-99658999D02*
X138668999Y-99658999D01*
X138668999Y-99658999D02*
X138668999Y-94858999D01*
X138668999Y-94858999D02*
X146868999Y-94858999D01*
D15*
X96900999Y-108584999D02*
G75*
G03X96900999Y-108584999I-127000J0D01*
G74*
G01*
X97916999Y-108584999D02*
X96900999Y-108584999D01*
X96900999Y-108584999D02*
X96900999Y-107060999D01*
X96900999Y-107060999D02*
X97916999Y-107060999D01*
X98932999Y-107060999D02*
X99948999Y-107060999D01*
X99948999Y-107060999D02*
X99948999Y-108584999D01*
X99948999Y-108584999D02*
X98932999Y-108584999D01*
X117746999Y-84332999D02*
G75*
G03X117746999Y-84332999I-127000J0D01*
G74*
G01*
X118762999Y-84332999D02*
X117746999Y-84332999D01*
X117746999Y-84332999D02*
X117746999Y-82808999D01*
X117746999Y-82808999D02*
X118762999Y-82808999D01*
X119778999Y-82808999D02*
X120794999Y-82808999D01*
X120794999Y-82808999D02*
X120794999Y-84332999D01*
X120794999Y-84332999D02*
X119778999Y-84332999D01*
X115315999Y-102839999D02*
G75*
G03X115315999Y-102839999I-127000J0D01*
G74*
G01*
X116331999Y-102839999D02*
X115315999Y-102839999D01*
X115315999Y-102839999D02*
X115315999Y-101315999D01*
X115315999Y-101315999D02*
X116331999Y-101315999D01*
X117347999Y-101315999D02*
X118363999Y-101315999D01*
X118363999Y-101315999D02*
X118363999Y-102839999D01*
X118363999Y-102839999D02*
X117347999Y-102839999D01*
X115415999Y-100364999D02*
G75*
G03X115415999Y-100364999I-127000J0D01*
G74*
G01*
X116431999Y-100364999D02*
X115415999Y-100364999D01*
X115415999Y-100364999D02*
X115415999Y-98840999D01*
X115415999Y-98840999D02*
X116431999Y-98840999D01*
X117447999Y-98840999D02*
X118463999Y-98840999D01*
X118463999Y-98840999D02*
X118463999Y-100364999D01*
X118463999Y-100364999D02*
X117447999Y-100364999D01*
X116839999Y-78739999D02*
G75*
G03X116839999Y-78739999I-127000J0D01*
G74*
G01*
X115569999Y-78739999D02*
X116585999Y-78739999D01*
X116585999Y-78739999D02*
X116585999Y-80263999D01*
X116585999Y-80263999D02*
X115569999Y-80263999D01*
X114553999Y-80263999D02*
X113537999Y-80263999D01*
X113537999Y-80263999D02*
X113537999Y-78739999D01*
X113537999Y-78739999D02*
X114553999Y-78739999D01*
X137275999Y-105961999D02*
G75*
G03X137275999Y-105961999I-127000J0D01*
G74*
G01*
X138291999Y-105961999D02*
X137275999Y-105961999D01*
X137275999Y-105961999D02*
X137275999Y-104437999D01*
X137275999Y-104437999D02*
X138291999Y-104437999D01*
X139307999Y-104437999D02*
X140323999Y-104437999D01*
X140323999Y-104437999D02*
X140323999Y-105961999D01*
X140323999Y-105961999D02*
X139307999Y-105961999D01*
X94397999Y-88107999D02*
G75*
G03X94397999Y-88107999I-127000J0D01*
G74*
G01*
X93127999Y-88107999D02*
X94143999Y-88107999D01*
X94143999Y-88107999D02*
X94143999Y-89631999D01*
X94143999Y-89631999D02*
X93127999Y-89631999D01*
X92111999Y-89631999D02*
X91095999Y-89631999D01*
X91095999Y-89631999D02*
X91095999Y-88107999D01*
X91095999Y-88107999D02*
X92111999Y-88107999D01*
X94447999Y-86092999D02*
G75*
G03X94447999Y-86092999I-127000J0D01*
G74*
G01*
X93177999Y-86092999D02*
X94193999Y-86092999D01*
X94193999Y-86092999D02*
X94193999Y-87616999D01*
X94193999Y-87616999D02*
X93177999Y-87616999D01*
X92161999Y-87616999D02*
X91145999Y-87616999D01*
X91145999Y-87616999D02*
X91145999Y-86092999D01*
X91145999Y-86092999D02*
X92161999Y-86092999D01*
X123570999Y-116966999D02*
G75*
G03X123570999Y-116966999I-127000J0D01*
G74*
G01*
X123443999Y-118109999D02*
X123443999Y-117093999D01*
X123443999Y-117093999D02*
X124967999Y-117093999D01*
X124967999Y-117093999D02*
X124967999Y-118109999D01*
X124967999Y-119125999D02*
X124967999Y-120141999D01*
X124967999Y-120141999D02*
X123443999Y-120141999D01*
X123443999Y-120141999D02*
X123443999Y-119125999D01*
X141477999Y-113283999D02*
G75*
G03X141477999Y-113283999I-127000J0D01*
G74*
G01*
X140207999Y-113283999D02*
X141223999Y-113283999D01*
X141223999Y-113283999D02*
X141223999Y-114807999D01*
X141223999Y-114807999D02*
X140207999Y-114807999D01*
X139191999Y-114807999D02*
X138175999Y-114807999D01*
X138175999Y-114807999D02*
X138175999Y-113283999D01*
X138175999Y-113283999D02*
X139191999Y-113283999D01*
X141985999Y-79247999D02*
G75*
G03X141985999Y-79247999I-127000J0D01*
G74*
G01*
X140715999Y-79247999D02*
X141731999Y-79247999D01*
X141731999Y-79247999D02*
X141731999Y-80771999D01*
X141731999Y-80771999D02*
X140715999Y-80771999D01*
X139699999Y-80771999D02*
X138683999Y-80771999D01*
X138683999Y-80771999D02*
X138683999Y-79247999D01*
X138683999Y-79247999D02*
X139699999Y-79247999D01*
X143636999Y-80771999D02*
G75*
G03X143636999Y-80771999I-127000J0D01*
G74*
G01*
X144652999Y-80771999D02*
X143636999Y-80771999D01*
X143636999Y-80771999D02*
X143636999Y-79247999D01*
X143636999Y-79247999D02*
X144652999Y-79247999D01*
X145668999Y-79247999D02*
X146684999Y-79247999D01*
X146684999Y-79247999D02*
X146684999Y-80771999D01*
X146684999Y-80771999D02*
X145668999Y-80771999D01*
X146789999Y-91878999D02*
G75*
G03X146789999Y-91878999I-127000J0D01*
G74*
G01*
X147805999Y-91878999D02*
X146789999Y-91878999D01*
X146789999Y-91878999D02*
X146789999Y-90354999D01*
X146789999Y-90354999D02*
X147805999Y-90354999D01*
X148821999Y-90354999D02*
X149837999Y-90354999D01*
X149837999Y-90354999D02*
X149837999Y-91878999D01*
X149837999Y-91878999D02*
X148821999Y-91878999D01*
D13*
X123189999Y-110743999D02*
X123951999Y-110743999D01*
X123951999Y-110743999D02*
X123951999Y-112267999D01*
X123951999Y-112267999D02*
X123189999Y-112267999D01*
X134365999Y-109219999D02*
X134365999Y-113791999D01*
X134365999Y-113791999D02*
X123189999Y-113791999D01*
X123189999Y-113791999D02*
X123189999Y-109219999D01*
X123189999Y-109219999D02*
X134365999Y-109219999D01*
D14*
X115069619Y-110022639D02*
X103370379Y-110022639D01*
X103370379Y-115021359D02*
X115069619Y-115021359D01*
X103370379Y-110022639D02*
X103370379Y-110870999D01*
X103370379Y-115021359D02*
X103370379Y-114172999D01*
X115069619Y-110022639D02*
X115069619Y-110870999D01*
X115069619Y-115021359D02*
X115069619Y-114172999D01*
D16*
X145465218Y-86814999D02*
G75*
G03X145465218Y-86814999I-803219J0D01*
G74*
G01*
X145465218Y-83874999D02*
G75*
G03X145465218Y-83874999I-803219J0D01*
G74*
G01*
X141592218Y-86554999D02*
G75*
G03X141592218Y-86554999I-803219J0D01*
G74*
G01*
X141592218Y-83894999D02*
G75*
G03X141592218Y-83894999I-803219J0D01*
G74*
G01*
X84750218Y-88899999D02*
G75*
G03X84750218Y-88899999I-803219J0D01*
G74*
G01*
X84623218Y-86867999D02*
G75*
G03X84623218Y-86867999I-803219J0D01*
G74*
G01*
X84750218Y-84073999D02*
G75*
G03X84750218Y-84073999I-803219J0D01*
G74*
G01*
X84750218Y-91312999D02*
G75*
G03X84750218Y-91312999I-803219J0D01*
G74*
G01*
D15*
X125729999Y-116966999D02*
G75*
G03X125729999Y-116966999I-127000J0D01*
G74*
G01*
X125602999Y-118109999D02*
X125602999Y-117093999D01*
X125602999Y-117093999D02*
X127126999Y-117093999D01*
X127126999Y-117093999D02*
X127126999Y-118109999D01*
X127126999Y-119125999D02*
X127126999Y-120141999D01*
X127126999Y-120141999D02*
X125602999Y-120141999D01*
X125602999Y-120141999D02*
X125602999Y-119125999D01*
X111378999Y-75818999D02*
G75*
G03X111378999Y-75818999I-127000J0D01*
G74*
G01*
X110108999Y-75818999D02*
X111124999Y-75818999D01*
X111124999Y-75818999D02*
X111124999Y-77342999D01*
X111124999Y-77342999D02*
X110108999Y-77342999D01*
X109092999Y-77342999D02*
X108076999Y-77342999D01*
X108076999Y-77342999D02*
X108076999Y-75818999D01*
X108076999Y-75818999D02*
X109092999Y-75818999D01*
X102234999Y-120395999D02*
G75*
G03X102234999Y-120395999I-127000J0D01*
G74*
G01*
X103250999Y-120395999D02*
X102234999Y-120395999D01*
X102234999Y-120395999D02*
X102234999Y-118871999D01*
X102234999Y-118871999D02*
X103250999Y-118871999D01*
X104266999Y-118871999D02*
X105282999Y-118871999D01*
X105282999Y-118871999D02*
X105282999Y-120395999D01*
X105282999Y-120395999D02*
X104266999Y-120395999D01*
X109981999Y-78104999D02*
G75*
G03X109981999Y-78104999I-127000J0D01*
G74*
G01*
X109854999Y-79247999D02*
X109854999Y-78231999D01*
X109854999Y-78231999D02*
X111378999Y-78231999D01*
X111378999Y-78231999D02*
X111378999Y-79247999D01*
X111378999Y-80263999D02*
X111378999Y-81279999D01*
X111378999Y-81279999D02*
X109854999Y-81279999D01*
X109854999Y-81279999D02*
X109854999Y-80263999D01*
X102234999Y-123189999D02*
G75*
G03X102234999Y-123189999I-127000J0D01*
G74*
G01*
X103250999Y-123189999D02*
X102234999Y-123189999D01*
X102234999Y-123189999D02*
X102234999Y-121665999D01*
X102234999Y-121665999D02*
X103250999Y-121665999D01*
X104266999Y-121665999D02*
X105282999Y-121665999D01*
X105282999Y-121665999D02*
X105282999Y-123189999D01*
X105282999Y-123189999D02*
X104266999Y-123189999D01*
X113522999Y-82370000D02*
G75*
G03X113522999Y-82370000I-127000J0D01*
G74*
G01*
X114538999Y-82370000D02*
X113522999Y-82370000D01*
X113522999Y-82370000D02*
X113522999Y-80846000D01*
X113522999Y-80846000D02*
X114538999Y-80846000D01*
X115554999Y-80846000D02*
X116570999Y-80846000D01*
X116570999Y-80846000D02*
X116570999Y-82370000D01*
X116570999Y-82370000D02*
X115554999Y-82370000D01*
D13*
X109080904Y-87260428D02*
X109080904Y-88494142D01*
X109129285Y-88639285D01*
X109177666Y-88711856D01*
X109274428Y-88784428D01*
X109467951Y-88784428D01*
X109564713Y-88711856D01*
X109613094Y-88639285D01*
X109661475Y-88494142D01*
X109661475Y-87260428D01*
X110677475Y-88784428D02*
X110096904Y-88784428D01*
X110387190Y-88784428D02*
X110387190Y-87260428D01*
X110290428Y-87478142D01*
X110193666Y-87623285D01*
X110096904Y-87695856D01*
D17*
X105554999Y-92071666D02*
X105888333Y-92071666D01*
X105488333Y-92357380D02*
X105721666Y-91357380D01*
X105954999Y-92357380D01*
X106088333Y-91357380D02*
X106488333Y-91357380D01*
X106288333Y-92357380D02*
X106288333Y-91357380D01*
X106721666Y-92357380D02*
X106721666Y-91690713D01*
X106721666Y-91785951D02*
X106754999Y-91738332D01*
X106821666Y-91690713D01*
X106921666Y-91690713D01*
X106988332Y-91738332D01*
X107021666Y-91833570D01*
X107021666Y-92357380D01*
X107021666Y-91833570D02*
X107054999Y-91738332D01*
X107121666Y-91690713D01*
X107221666Y-91690713D01*
X107288332Y-91738332D01*
X107321666Y-91833570D01*
X107321666Y-92357380D01*
X107921665Y-92309761D02*
X107854999Y-92357380D01*
X107721665Y-92357380D01*
X107654999Y-92309761D01*
X107621665Y-92214523D01*
X107621665Y-91833570D01*
X107654999Y-91738332D01*
X107721665Y-91690713D01*
X107854999Y-91690713D01*
X107921665Y-91738332D01*
X107954999Y-91833570D01*
X107954999Y-91928809D01*
X107621665Y-92024047D01*
X108554999Y-91690713D02*
X108554999Y-92500237D01*
X108521665Y-92595475D01*
X108488332Y-92643094D01*
X108421665Y-92690713D01*
X108321665Y-92690713D01*
X108254999Y-92643094D01*
X108554999Y-92309761D02*
X108488332Y-92357380D01*
X108354999Y-92357380D01*
X108288332Y-92309761D01*
X108254999Y-92262142D01*
X108221665Y-92166904D01*
X108221665Y-91881189D01*
X108254999Y-91785951D01*
X108288332Y-91738332D01*
X108354999Y-91690713D01*
X108488332Y-91690713D01*
X108554999Y-91738332D01*
X109188332Y-92357380D02*
X109188332Y-91833570D01*
X109154998Y-91738332D01*
X109088332Y-91690713D01*
X108954998Y-91690713D01*
X108888332Y-91738332D01*
X109188332Y-92309761D02*
X109121665Y-92357380D01*
X108954998Y-92357380D01*
X108888332Y-92309761D01*
X108854998Y-92214523D01*
X108854998Y-92119285D01*
X108888332Y-92024047D01*
X108954998Y-91976428D01*
X109121665Y-91976428D01*
X109188332Y-91928809D01*
X109454998Y-91357380D02*
X109888331Y-91357380D01*
X109654998Y-91738332D01*
X109754998Y-91738332D01*
X109821665Y-91785951D01*
X109854998Y-91833570D01*
X109888331Y-91928809D01*
X109888331Y-92166904D01*
X109854998Y-92262142D01*
X109821665Y-92309761D01*
X109754998Y-92357380D01*
X109554998Y-92357380D01*
X109488331Y-92309761D01*
X109454998Y-92262142D01*
X110154998Y-91452618D02*
X110188332Y-91404999D01*
X110254998Y-91357380D01*
X110421665Y-91357380D01*
X110488332Y-91404999D01*
X110521665Y-91452618D01*
X110554998Y-91547856D01*
X110554998Y-91643094D01*
X110521665Y-91785951D01*
X110121665Y-92357380D01*
X110554998Y-92357380D01*
X110854999Y-91357380D02*
X110854999Y-92166904D01*
X110888332Y-92262142D01*
X110921665Y-92309761D01*
X110988332Y-92357380D01*
X111121665Y-92357380D01*
X111188332Y-92309761D01*
X111221665Y-92262142D01*
X111254999Y-92166904D01*
X111254999Y-91357380D01*
X111888332Y-91690713D02*
X111888332Y-92357380D01*
X111721665Y-91309761D02*
X111554998Y-92024047D01*
X111988332Y-92024047D01*
X112254999Y-91976428D02*
X112788332Y-91976428D01*
X113088332Y-92071666D02*
X113421666Y-92071666D01*
X113021666Y-92357380D02*
X113254999Y-91357380D01*
X113488332Y-92357380D01*
X113721666Y-91357380D02*
X113721666Y-92166904D01*
X113754999Y-92262142D01*
X113788332Y-92309761D01*
X113854999Y-92357380D01*
X113988332Y-92357380D01*
X114054999Y-92309761D01*
X114088332Y-92262142D01*
X114121666Y-92166904D01*
X114121666Y-91357380D01*
D18*
X75258285Y-98024570D02*
X76032380Y-98024570D01*
X75645332Y-98411618D02*
X75645332Y-97637523D01*
X76999999Y-97395618D02*
X76516190Y-97395618D01*
X76467809Y-97879428D01*
X76516190Y-97831047D01*
X76612952Y-97782666D01*
X76854856Y-97782666D01*
X76951618Y-97831047D01*
X76999999Y-97879428D01*
X77048380Y-97976189D01*
X77048380Y-98218094D01*
X76999999Y-98314856D01*
X76951618Y-98363237D01*
X76854856Y-98411618D01*
X76612952Y-98411618D01*
X76516190Y-98363237D01*
X76467809Y-98314856D01*
X77387047Y-97734285D02*
X77628952Y-98411618D01*
X77870856Y-97734285D01*
X78790094Y-98411618D02*
X78209523Y-98411618D01*
X78499809Y-98411618D02*
X78499809Y-97395618D01*
X78403047Y-97540761D01*
X78306285Y-97637523D01*
X78209523Y-97685904D01*
D19*
X111316603Y-102278706D02*
X111292775Y-102302534D01*
X111221292Y-102326361D01*
X111173637Y-102326361D01*
X111102154Y-102302534D01*
X111054499Y-102254879D01*
X111030671Y-102207223D01*
X111006843Y-102111913D01*
X111006843Y-102040430D01*
X111030671Y-101945119D01*
X111054499Y-101897464D01*
X111102154Y-101849809D01*
X111173637Y-101825981D01*
X111221292Y-101825981D01*
X111292775Y-101849809D01*
X111316603Y-101873637D01*
X111793155Y-102326361D02*
X111507223Y-102326361D01*
X111650189Y-102326361D02*
X111650189Y-101825981D01*
X111602534Y-101897464D01*
X111554879Y-101945119D01*
X111507223Y-101968947D01*
X110935361Y-105426361D02*
X110649429Y-105426361D01*
X110792395Y-105426361D02*
X110792395Y-104925981D01*
X110744740Y-104997464D01*
X110697085Y-105045119D01*
X110649429Y-105068947D01*
X111221292Y-105140430D02*
X111173637Y-105116602D01*
X111149809Y-105092775D01*
X111125981Y-105045119D01*
X111125981Y-105021292D01*
X111149809Y-104973637D01*
X111173637Y-104949809D01*
X111221292Y-104925981D01*
X111316602Y-104925981D01*
X111364258Y-104949809D01*
X111388085Y-104973637D01*
X111411913Y-105021292D01*
X111411913Y-105045119D01*
X111388085Y-105092775D01*
X111364258Y-105116602D01*
X111316602Y-105140430D01*
X111221292Y-105140430D01*
X111173637Y-105164258D01*
X111149809Y-105188085D01*
X111125981Y-105235740D01*
X111125981Y-105331051D01*
X111149809Y-105378706D01*
X111173637Y-105402534D01*
X111221292Y-105426361D01*
X111316602Y-105426361D01*
X111364258Y-105402534D01*
X111388085Y-105378706D01*
X111411913Y-105331051D01*
X111411913Y-105235740D01*
X111388085Y-105188085D01*
X111364258Y-105164258D01*
X111316602Y-105140430D01*
X111626361Y-105092775D02*
X111626361Y-105593155D01*
X111626361Y-105116602D02*
X111674016Y-105092775D01*
X111769327Y-105092775D01*
X111816982Y-105116602D01*
X111840810Y-105140430D01*
X111864637Y-105188085D01*
X111864637Y-105331051D01*
X111840810Y-105378706D01*
X111816982Y-105402534D01*
X111769327Y-105426361D01*
X111674016Y-105426361D01*
X111626361Y-105402534D01*
X112007603Y-105092775D02*
X112198224Y-105092775D01*
X112079086Y-105426361D02*
X112079086Y-104997464D01*
X112102914Y-104949809D01*
X112150569Y-104925981D01*
X112198224Y-104925981D01*
X107516603Y-102178706D02*
X107492775Y-102202534D01*
X107421292Y-102226361D01*
X107373637Y-102226361D01*
X107302154Y-102202534D01*
X107254499Y-102154879D01*
X107230671Y-102107223D01*
X107206843Y-102011913D01*
X107206843Y-101940430D01*
X107230671Y-101845119D01*
X107254499Y-101797464D01*
X107302154Y-101749809D01*
X107373637Y-101725981D01*
X107421292Y-101725981D01*
X107492775Y-101749809D01*
X107516603Y-101773637D01*
X107707223Y-101773637D02*
X107731051Y-101749809D01*
X107778706Y-101725981D01*
X107897844Y-101725981D01*
X107945500Y-101749809D01*
X107969327Y-101773637D01*
X107993155Y-101821292D01*
X107993155Y-101868947D01*
X107969327Y-101940430D01*
X107683396Y-102226361D01*
X107993155Y-102226361D01*
X107035361Y-105226361D02*
X106749429Y-105226361D01*
X106892395Y-105226361D02*
X106892395Y-104725981D01*
X106844740Y-104797464D01*
X106797085Y-104845119D01*
X106749429Y-104868947D01*
X107321292Y-104940430D02*
X107273637Y-104916602D01*
X107249809Y-104892775D01*
X107225981Y-104845119D01*
X107225981Y-104821292D01*
X107249809Y-104773637D01*
X107273637Y-104749809D01*
X107321292Y-104725981D01*
X107416602Y-104725981D01*
X107464258Y-104749809D01*
X107488085Y-104773637D01*
X107511913Y-104821292D01*
X107511913Y-104845119D01*
X107488085Y-104892775D01*
X107464258Y-104916602D01*
X107416602Y-104940430D01*
X107321292Y-104940430D01*
X107273637Y-104964258D01*
X107249809Y-104988085D01*
X107225981Y-105035740D01*
X107225981Y-105131051D01*
X107249809Y-105178706D01*
X107273637Y-105202534D01*
X107321292Y-105226361D01*
X107416602Y-105226361D01*
X107464258Y-105202534D01*
X107488085Y-105178706D01*
X107511913Y-105131051D01*
X107511913Y-105035740D01*
X107488085Y-104988085D01*
X107464258Y-104964258D01*
X107416602Y-104940430D01*
X107726361Y-104892775D02*
X107726361Y-105393155D01*
X107726361Y-104916602D02*
X107774016Y-104892775D01*
X107869327Y-104892775D01*
X107916982Y-104916602D01*
X107940810Y-104940430D01*
X107964637Y-104988085D01*
X107964637Y-105131051D01*
X107940810Y-105178706D01*
X107916982Y-105202534D01*
X107869327Y-105226361D01*
X107774016Y-105226361D01*
X107726361Y-105202534D01*
X108107603Y-104892775D02*
X108298224Y-104892775D01*
X108179086Y-105226361D02*
X108179086Y-104797464D01*
X108202914Y-104749809D01*
X108250569Y-104725981D01*
X108298224Y-104725981D01*
X99416603Y-88878706D02*
X99392775Y-88902534D01*
X99321292Y-88926361D01*
X99273637Y-88926361D01*
X99202154Y-88902534D01*
X99154499Y-88854879D01*
X99130671Y-88807223D01*
X99106843Y-88711913D01*
X99106843Y-88640430D01*
X99130671Y-88545119D01*
X99154499Y-88497464D01*
X99202154Y-88449809D01*
X99273637Y-88425981D01*
X99321292Y-88425981D01*
X99392775Y-88449809D01*
X99416603Y-88473637D01*
X99583396Y-88425981D02*
X99893155Y-88425981D01*
X99726362Y-88616602D01*
X99797844Y-88616602D01*
X99845500Y-88640430D01*
X99869327Y-88664258D01*
X99893155Y-88711913D01*
X99893155Y-88831051D01*
X99869327Y-88878706D01*
X99845500Y-88902534D01*
X99797844Y-88926361D01*
X99654879Y-88926361D01*
X99607223Y-88902534D01*
X99583396Y-88878706D01*
X99202154Y-91726361D02*
X98916222Y-91726361D01*
X99059188Y-91726361D02*
X99059188Y-91225981D01*
X99011533Y-91297464D01*
X98963878Y-91345119D01*
X98916222Y-91368947D01*
X99631051Y-91392775D02*
X99631051Y-91726361D01*
X99416602Y-91392775D02*
X99416602Y-91654879D01*
X99440430Y-91702534D01*
X99488085Y-91726361D01*
X99559568Y-91726361D01*
X99607223Y-91702534D01*
X99631051Y-91678706D01*
X100036120Y-91464258D02*
X99869327Y-91464258D01*
X99869327Y-91726361D02*
X99869327Y-91225981D01*
X100107603Y-91225981D01*
X81978706Y-87983395D02*
X82002534Y-88007223D01*
X82026361Y-88078706D01*
X82026361Y-88126361D01*
X82002534Y-88197844D01*
X81954879Y-88245499D01*
X81907223Y-88269327D01*
X81811913Y-88293155D01*
X81740430Y-88293155D01*
X81645119Y-88269327D01*
X81597464Y-88245499D01*
X81549809Y-88197844D01*
X81525981Y-88126361D01*
X81525981Y-88078706D01*
X81549809Y-88007223D01*
X81573637Y-87983395D01*
X81692775Y-87554498D02*
X82026361Y-87554498D01*
X81502154Y-87673636D02*
X81859568Y-87792775D01*
X81859568Y-87483015D01*
X78726361Y-88436120D02*
X78726361Y-88722052D01*
X78726361Y-88579086D02*
X78225981Y-88579086D01*
X78297464Y-88626741D01*
X78345119Y-88674396D01*
X78368947Y-88722052D01*
X78225981Y-88126361D02*
X78225981Y-88078706D01*
X78249809Y-88031051D01*
X78273637Y-88007223D01*
X78321292Y-87983396D01*
X78416602Y-87959568D01*
X78535740Y-87959568D01*
X78631051Y-87983396D01*
X78678706Y-88007223D01*
X78702534Y-88031051D01*
X78726361Y-88078706D01*
X78726361Y-88126361D01*
X78702534Y-88174017D01*
X78678706Y-88197844D01*
X78631051Y-88221672D01*
X78535740Y-88245500D01*
X78416602Y-88245500D01*
X78321292Y-88221672D01*
X78273637Y-88197844D01*
X78249809Y-88174017D01*
X78225981Y-88126361D01*
X78392775Y-87530671D02*
X78726361Y-87530671D01*
X78392775Y-87745120D02*
X78654879Y-87745120D01*
X78702534Y-87721292D01*
X78726361Y-87673637D01*
X78726361Y-87602154D01*
X78702534Y-87554499D01*
X78678706Y-87530671D01*
X78464258Y-87125602D02*
X78464258Y-87292395D01*
X78726361Y-87292395D02*
X78225981Y-87292395D01*
X78225981Y-87054119D01*
X101878706Y-84783395D02*
X101902534Y-84807223D01*
X101926361Y-84878706D01*
X101926361Y-84926361D01*
X101902534Y-84997844D01*
X101854879Y-85045499D01*
X101807223Y-85069327D01*
X101711913Y-85093155D01*
X101640430Y-85093155D01*
X101545119Y-85069327D01*
X101497464Y-85045499D01*
X101449809Y-84997844D01*
X101425981Y-84926361D01*
X101425981Y-84878706D01*
X101449809Y-84807223D01*
X101473637Y-84783395D01*
X101425981Y-84330671D02*
X101425981Y-84568947D01*
X101664258Y-84592775D01*
X101640430Y-84568947D01*
X101616602Y-84521292D01*
X101616602Y-84402154D01*
X101640430Y-84354498D01*
X101664258Y-84330671D01*
X101711913Y-84306843D01*
X101831051Y-84306843D01*
X101878706Y-84330671D01*
X101902534Y-84354498D01*
X101926361Y-84402154D01*
X101926361Y-84521292D01*
X101902534Y-84568947D01*
X101878706Y-84592775D01*
X99078706Y-85707603D02*
X99102534Y-85683775D01*
X99126361Y-85707603D01*
X99102534Y-85731431D01*
X99078706Y-85707603D01*
X99126361Y-85707603D01*
X99126361Y-85207223D02*
X99126361Y-85493155D01*
X99126361Y-85350189D02*
X98625981Y-85350189D01*
X98697464Y-85397844D01*
X98745119Y-85445499D01*
X98768947Y-85493155D01*
X98792775Y-84778326D02*
X99126361Y-84778326D01*
X98792775Y-84992775D02*
X99054879Y-84992775D01*
X99102534Y-84968947D01*
X99126361Y-84921292D01*
X99126361Y-84849809D01*
X99102534Y-84802154D01*
X99078706Y-84778326D01*
X98792775Y-84611533D02*
X98792775Y-84420912D01*
X99126361Y-84540050D02*
X98697464Y-84540050D01*
X98649809Y-84516222D01*
X98625981Y-84468567D01*
X98625981Y-84420912D01*
X104316603Y-98278706D02*
X104292775Y-98302534D01*
X104221292Y-98326361D01*
X104173637Y-98326361D01*
X104102154Y-98302534D01*
X104054499Y-98254879D01*
X104030671Y-98207223D01*
X104006843Y-98111913D01*
X104006843Y-98040430D01*
X104030671Y-97945119D01*
X104054499Y-97897464D01*
X104102154Y-97849809D01*
X104173637Y-97825981D01*
X104221292Y-97825981D01*
X104292775Y-97849809D01*
X104316603Y-97873637D01*
X104745500Y-97825981D02*
X104650189Y-97825981D01*
X104602534Y-97849809D01*
X104578706Y-97873637D01*
X104531051Y-97945119D01*
X104507223Y-98040430D01*
X104507223Y-98231051D01*
X104531051Y-98278706D01*
X104554879Y-98302534D01*
X104602534Y-98326361D01*
X104697844Y-98326361D01*
X104745500Y-98302534D01*
X104769327Y-98278706D01*
X104793155Y-98231051D01*
X104793155Y-98111913D01*
X104769327Y-98064258D01*
X104745500Y-98040430D01*
X104697844Y-98016602D01*
X104602534Y-98016602D01*
X104554879Y-98040430D01*
X104531051Y-98064258D01*
X104507223Y-98111913D01*
X108492395Y-99278706D02*
X108516223Y-99302534D01*
X108492395Y-99326361D01*
X108468567Y-99302534D01*
X108492395Y-99278706D01*
X108492395Y-99326361D01*
X108992775Y-99326361D02*
X108706843Y-99326361D01*
X108849809Y-99326361D02*
X108849809Y-98825981D01*
X108802154Y-98897464D01*
X108754499Y-98945119D01*
X108706843Y-98968947D01*
X109421672Y-98992775D02*
X109421672Y-99326361D01*
X109207223Y-98992775D02*
X109207223Y-99254879D01*
X109231051Y-99302534D01*
X109278706Y-99326361D01*
X109350189Y-99326361D01*
X109397844Y-99302534D01*
X109421672Y-99278706D01*
X109588465Y-98992775D02*
X109779086Y-98992775D01*
X109659948Y-99326361D02*
X109659948Y-98897464D01*
X109683776Y-98849809D01*
X109731431Y-98825981D01*
X109779086Y-98825981D01*
X119078706Y-96283395D02*
X119102534Y-96307223D01*
X119126361Y-96378706D01*
X119126361Y-96426361D01*
X119102534Y-96497844D01*
X119054879Y-96545499D01*
X119007223Y-96569327D01*
X118911913Y-96593155D01*
X118840430Y-96593155D01*
X118745119Y-96569327D01*
X118697464Y-96545499D01*
X118649809Y-96497844D01*
X118625981Y-96426361D01*
X118625981Y-96378706D01*
X118649809Y-96307223D01*
X118673637Y-96283395D01*
X118625981Y-96116602D02*
X118625981Y-95783015D01*
X119126361Y-95997464D01*
X118878706Y-92107603D02*
X118902534Y-92083775D01*
X118926361Y-92107603D01*
X118902534Y-92131431D01*
X118878706Y-92107603D01*
X118926361Y-92107603D01*
X118926361Y-91607223D02*
X118926361Y-91893155D01*
X118926361Y-91750189D02*
X118425981Y-91750189D01*
X118497464Y-91797844D01*
X118545119Y-91845499D01*
X118568947Y-91893155D01*
X118592775Y-91178326D02*
X118926361Y-91178326D01*
X118592775Y-91392775D02*
X118854879Y-91392775D01*
X118902534Y-91368947D01*
X118926361Y-91321292D01*
X118926361Y-91249809D01*
X118902534Y-91202154D01*
X118878706Y-91178326D01*
X118592775Y-91011533D02*
X118592775Y-90820912D01*
X118926361Y-90940050D02*
X118497464Y-90940050D01*
X118449809Y-90916222D01*
X118425981Y-90868567D01*
X118425981Y-90820912D01*
X105416603Y-80178706D02*
X105392775Y-80202534D01*
X105321292Y-80226361D01*
X105273637Y-80226361D01*
X105202154Y-80202534D01*
X105154499Y-80154879D01*
X105130671Y-80107223D01*
X105106843Y-80011913D01*
X105106843Y-79940430D01*
X105130671Y-79845119D01*
X105154499Y-79797464D01*
X105202154Y-79749809D01*
X105273637Y-79725981D01*
X105321292Y-79725981D01*
X105392775Y-79749809D01*
X105416603Y-79773637D01*
X105702534Y-79940430D02*
X105654879Y-79916602D01*
X105631051Y-79892775D01*
X105607223Y-79845119D01*
X105607223Y-79821292D01*
X105631051Y-79773637D01*
X105654879Y-79749809D01*
X105702534Y-79725981D01*
X105797844Y-79725981D01*
X105845500Y-79749809D01*
X105869327Y-79773637D01*
X105893155Y-79821292D01*
X105893155Y-79845119D01*
X105869327Y-79892775D01*
X105845500Y-79916602D01*
X105797844Y-79940430D01*
X105702534Y-79940430D01*
X105654879Y-79964258D01*
X105631051Y-79988085D01*
X105607223Y-80035740D01*
X105607223Y-80131051D01*
X105631051Y-80178706D01*
X105654879Y-80202534D01*
X105702534Y-80226361D01*
X105797844Y-80226361D01*
X105845500Y-80202534D01*
X105869327Y-80178706D01*
X105893155Y-80131051D01*
X105893155Y-80035740D01*
X105869327Y-79988085D01*
X105845500Y-79964258D01*
X105797844Y-79940430D01*
X104892395Y-82778706D02*
X104916223Y-82802534D01*
X104892395Y-82826361D01*
X104868567Y-82802534D01*
X104892395Y-82778706D01*
X104892395Y-82826361D01*
X105392775Y-82826361D02*
X105106843Y-82826361D01*
X105249809Y-82826361D02*
X105249809Y-82325981D01*
X105202154Y-82397464D01*
X105154499Y-82445119D01*
X105106843Y-82468947D01*
X105821672Y-82492775D02*
X105821672Y-82826361D01*
X105607223Y-82492775D02*
X105607223Y-82754879D01*
X105631051Y-82802534D01*
X105678706Y-82826361D01*
X105750189Y-82826361D01*
X105797844Y-82802534D01*
X105821672Y-82778706D01*
X105988465Y-82492775D02*
X106179086Y-82492775D01*
X106059948Y-82826361D02*
X106059948Y-82397464D01*
X106083776Y-82349809D01*
X106131431Y-82325981D01*
X106179086Y-82325981D01*
X107116603Y-77578706D02*
X107092775Y-77602534D01*
X107021292Y-77626361D01*
X106973637Y-77626361D01*
X106902154Y-77602534D01*
X106854499Y-77554879D01*
X106830671Y-77507223D01*
X106806843Y-77411913D01*
X106806843Y-77340430D01*
X106830671Y-77245119D01*
X106854499Y-77197464D01*
X106902154Y-77149809D01*
X106973637Y-77125981D01*
X107021292Y-77125981D01*
X107092775Y-77149809D01*
X107116603Y-77173637D01*
X107354879Y-77626361D02*
X107450189Y-77626361D01*
X107497844Y-77602534D01*
X107521672Y-77578706D01*
X107569327Y-77507223D01*
X107593155Y-77411913D01*
X107593155Y-77221292D01*
X107569327Y-77173637D01*
X107545500Y-77149809D01*
X107497844Y-77125981D01*
X107402534Y-77125981D01*
X107354879Y-77149809D01*
X107331051Y-77173637D01*
X107307223Y-77221292D01*
X107307223Y-77340430D01*
X107331051Y-77388085D01*
X107354879Y-77411913D01*
X107402534Y-77435740D01*
X107497844Y-77435740D01*
X107545500Y-77411913D01*
X107569327Y-77388085D01*
X107593155Y-77340430D01*
X107173637Y-80126361D02*
X106887705Y-80126361D01*
X107030671Y-80126361D02*
X107030671Y-79625981D01*
X106983016Y-79697464D01*
X106935361Y-79745119D01*
X106887705Y-79768947D01*
X107602534Y-79792775D02*
X107602534Y-80126361D01*
X107388085Y-79792775D02*
X107388085Y-80054879D01*
X107411913Y-80102534D01*
X107459568Y-80126361D01*
X107531051Y-80126361D01*
X107578706Y-80102534D01*
X107602534Y-80078706D01*
X107769327Y-79792775D02*
X107959948Y-79792775D01*
X107840810Y-80126361D02*
X107840810Y-79697464D01*
X107864638Y-79649809D01*
X107912293Y-79625981D01*
X107959948Y-79625981D01*
X122162206Y-111700671D02*
X122186034Y-111724499D01*
X122209861Y-111795982D01*
X122209861Y-111843637D01*
X122186034Y-111915120D01*
X122138379Y-111962775D01*
X122090723Y-111986603D01*
X121995413Y-112010431D01*
X121923930Y-112010431D01*
X121828619Y-111986603D01*
X121780964Y-111962775D01*
X121733309Y-111915120D01*
X121709481Y-111843637D01*
X121709481Y-111795982D01*
X121733309Y-111724499D01*
X121757137Y-111700671D01*
X122209861Y-111224119D02*
X122209861Y-111510051D01*
X122209861Y-111367085D02*
X121709481Y-111367085D01*
X121780964Y-111414740D01*
X121828619Y-111462395D01*
X121852447Y-111510051D01*
X122209861Y-110747567D02*
X122209861Y-111033499D01*
X122209861Y-110890533D02*
X121709481Y-110890533D01*
X121780964Y-110938188D01*
X121828619Y-110985843D01*
X121852447Y-111033499D01*
X121463706Y-112224879D02*
X121487534Y-112201051D01*
X121511361Y-112224879D01*
X121487534Y-112248707D01*
X121463706Y-112224879D01*
X121511361Y-112224879D01*
X121010981Y-111891292D02*
X121010981Y-111843637D01*
X121034809Y-111795982D01*
X121058637Y-111772154D01*
X121106292Y-111748327D01*
X121201602Y-111724499D01*
X121320740Y-111724499D01*
X121416051Y-111748327D01*
X121463706Y-111772154D01*
X121487534Y-111795982D01*
X121511361Y-111843637D01*
X121511361Y-111891292D01*
X121487534Y-111938948D01*
X121463706Y-111962775D01*
X121416051Y-111986603D01*
X121320740Y-112010431D01*
X121201602Y-112010431D01*
X121106292Y-111986603D01*
X121058637Y-111962775D01*
X121034809Y-111938948D01*
X121010981Y-111891292D01*
X121511361Y-111247947D02*
X121511361Y-111533879D01*
X121511361Y-111390913D02*
X121010981Y-111390913D01*
X121082464Y-111438568D01*
X121130119Y-111486223D01*
X121153947Y-111533879D01*
X121177775Y-110819050D02*
X121511361Y-110819050D01*
X121177775Y-111033499D02*
X121439879Y-111033499D01*
X121487534Y-111009671D01*
X121511361Y-110962016D01*
X121511361Y-110890533D01*
X121487534Y-110842878D01*
X121463706Y-110819050D01*
X121177775Y-110652257D02*
X121177775Y-110461636D01*
X121511361Y-110580774D02*
X121082464Y-110580774D01*
X121034809Y-110556946D01*
X121010981Y-110509291D01*
X121010981Y-110461636D01*
X140978327Y-103078706D02*
X140954499Y-103102534D01*
X140883016Y-103126361D01*
X140835361Y-103126361D01*
X140763878Y-103102534D01*
X140716223Y-103054879D01*
X140692395Y-103007223D01*
X140668567Y-102911913D01*
X140668567Y-102840430D01*
X140692395Y-102745119D01*
X140716223Y-102697464D01*
X140763878Y-102649809D01*
X140835361Y-102625981D01*
X140883016Y-102625981D01*
X140954499Y-102649809D01*
X140978327Y-102673637D01*
X141454879Y-103126361D02*
X141168947Y-103126361D01*
X141311913Y-103126361D02*
X141311913Y-102625981D01*
X141264258Y-102697464D01*
X141216603Y-102745119D01*
X141168947Y-102768947D01*
X141645499Y-102673637D02*
X141669327Y-102649809D01*
X141716982Y-102625981D01*
X141836120Y-102625981D01*
X141883776Y-102649809D01*
X141907603Y-102673637D01*
X141931431Y-102721292D01*
X141931431Y-102768947D01*
X141907603Y-102840430D01*
X141621672Y-103126361D01*
X141931431Y-103126361D01*
X145654119Y-103178706D02*
X145677947Y-103202534D01*
X145654119Y-103226361D01*
X145630291Y-103202534D01*
X145654119Y-103178706D01*
X145654119Y-103226361D01*
X145987706Y-102725981D02*
X146035361Y-102725981D01*
X146083016Y-102749809D01*
X146106844Y-102773637D01*
X146130671Y-102821292D01*
X146154499Y-102916602D01*
X146154499Y-103035740D01*
X146130671Y-103131051D01*
X146106844Y-103178706D01*
X146083016Y-103202534D01*
X146035361Y-103226361D01*
X145987706Y-103226361D01*
X145940050Y-103202534D01*
X145916223Y-103178706D01*
X145892395Y-103131051D01*
X145868567Y-103035740D01*
X145868567Y-102916602D01*
X145892395Y-102821292D01*
X145916223Y-102773637D01*
X145940050Y-102749809D01*
X145987706Y-102725981D01*
X146631051Y-103226361D02*
X146345119Y-103226361D01*
X146488085Y-103226361D02*
X146488085Y-102725981D01*
X146440430Y-102797464D01*
X146392775Y-102845119D01*
X146345119Y-102868947D01*
X147059948Y-102892775D02*
X147059948Y-103226361D01*
X146845499Y-102892775D02*
X146845499Y-103154879D01*
X146869327Y-103202534D01*
X146916982Y-103226361D01*
X146988465Y-103226361D01*
X147036120Y-103202534D01*
X147059948Y-103178706D01*
X147226741Y-102892775D02*
X147417362Y-102892775D01*
X147298224Y-103226361D02*
X147298224Y-102797464D01*
X147322052Y-102749809D01*
X147369707Y-102725981D01*
X147417362Y-102725981D01*
X140878327Y-108878706D02*
X140854499Y-108902534D01*
X140783016Y-108926361D01*
X140735361Y-108926361D01*
X140663878Y-108902534D01*
X140616223Y-108854879D01*
X140592395Y-108807223D01*
X140568567Y-108711913D01*
X140568567Y-108640430D01*
X140592395Y-108545119D01*
X140616223Y-108497464D01*
X140663878Y-108449809D01*
X140735361Y-108425981D01*
X140783016Y-108425981D01*
X140854499Y-108449809D01*
X140878327Y-108473637D01*
X141354879Y-108926361D02*
X141068947Y-108926361D01*
X141211913Y-108926361D02*
X141211913Y-108425981D01*
X141164258Y-108497464D01*
X141116603Y-108545119D01*
X141068947Y-108568947D01*
X141521672Y-108425981D02*
X141831431Y-108425981D01*
X141664638Y-108616602D01*
X141736120Y-108616602D01*
X141783776Y-108640430D01*
X141807603Y-108664258D01*
X141831431Y-108711913D01*
X141831431Y-108831051D01*
X141807603Y-108878706D01*
X141783776Y-108902534D01*
X141736120Y-108926361D01*
X141593155Y-108926361D01*
X141545499Y-108902534D01*
X141521672Y-108878706D01*
X145935361Y-109426361D02*
X145649429Y-109426361D01*
X145792395Y-109426361D02*
X145792395Y-108925981D01*
X145744740Y-108997464D01*
X145697085Y-109045119D01*
X145649429Y-109068947D01*
X146245120Y-108925981D02*
X146292775Y-108925981D01*
X146340430Y-108949809D01*
X146364258Y-108973637D01*
X146388085Y-109021292D01*
X146411913Y-109116602D01*
X146411913Y-109235740D01*
X146388085Y-109331051D01*
X146364258Y-109378706D01*
X146340430Y-109402534D01*
X146292775Y-109426361D01*
X146245120Y-109426361D01*
X146197464Y-109402534D01*
X146173637Y-109378706D01*
X146149809Y-109331051D01*
X146125981Y-109235740D01*
X146125981Y-109116602D01*
X146149809Y-109021292D01*
X146173637Y-108973637D01*
X146197464Y-108949809D01*
X146245120Y-108925981D01*
X146840810Y-109092775D02*
X146840810Y-109426361D01*
X146626361Y-109092775D02*
X146626361Y-109354879D01*
X146650189Y-109402534D01*
X146697844Y-109426361D01*
X146769327Y-109426361D01*
X146816982Y-109402534D01*
X146840810Y-109378706D01*
X147007603Y-109092775D02*
X147198224Y-109092775D01*
X147079086Y-109426361D02*
X147079086Y-108997464D01*
X147102914Y-108949809D01*
X147150569Y-108925981D01*
X147198224Y-108925981D01*
X141878327Y-104978706D02*
X141854499Y-105002534D01*
X141783016Y-105026361D01*
X141735361Y-105026361D01*
X141663878Y-105002534D01*
X141616223Y-104954879D01*
X141592395Y-104907223D01*
X141568567Y-104811913D01*
X141568567Y-104740430D01*
X141592395Y-104645119D01*
X141616223Y-104597464D01*
X141663878Y-104549809D01*
X141735361Y-104525981D01*
X141783016Y-104525981D01*
X141854499Y-104549809D01*
X141878327Y-104573637D01*
X142354879Y-105026361D02*
X142068947Y-105026361D01*
X142211913Y-105026361D02*
X142211913Y-104525981D01*
X142164258Y-104597464D01*
X142116603Y-104645119D01*
X142068947Y-104668947D01*
X142783776Y-104692775D02*
X142783776Y-105026361D01*
X142664638Y-104502154D02*
X142545499Y-104859568D01*
X142855259Y-104859568D01*
X146630291Y-104873637D02*
X146654119Y-104849809D01*
X146701774Y-104825981D01*
X146820912Y-104825981D01*
X146868568Y-104849809D01*
X146892395Y-104873637D01*
X146916223Y-104921292D01*
X146916223Y-104968947D01*
X146892395Y-105040430D01*
X146606464Y-105326361D01*
X146916223Y-105326361D01*
X147130671Y-105278706D02*
X147154499Y-105302534D01*
X147130671Y-105326361D01*
X147106843Y-105302534D01*
X147130671Y-105278706D01*
X147130671Y-105326361D01*
X147345119Y-104873637D02*
X147368947Y-104849809D01*
X147416602Y-104825981D01*
X147535740Y-104825981D01*
X147583396Y-104849809D01*
X147607223Y-104873637D01*
X147631051Y-104921292D01*
X147631051Y-104968947D01*
X147607223Y-105040430D01*
X147321292Y-105326361D01*
X147631051Y-105326361D01*
X148059948Y-104992775D02*
X148059948Y-105326361D01*
X147845499Y-104992775D02*
X147845499Y-105254879D01*
X147869327Y-105302534D01*
X147916982Y-105326361D01*
X147988465Y-105326361D01*
X148036120Y-105302534D01*
X148059948Y-105278706D01*
X148226741Y-104992775D02*
X148417362Y-104992775D01*
X148298224Y-105326361D02*
X148298224Y-104897464D01*
X148322052Y-104849809D01*
X148369707Y-104825981D01*
X148417362Y-104825981D01*
X139978327Y-107378706D02*
X139954499Y-107402534D01*
X139883016Y-107426361D01*
X139835361Y-107426361D01*
X139763878Y-107402534D01*
X139716223Y-107354879D01*
X139692395Y-107307223D01*
X139668567Y-107211913D01*
X139668567Y-107140430D01*
X139692395Y-107045119D01*
X139716223Y-106997464D01*
X139763878Y-106949809D01*
X139835361Y-106925981D01*
X139883016Y-106925981D01*
X139954499Y-106949809D01*
X139978327Y-106973637D01*
X140454879Y-107426361D02*
X140168947Y-107426361D01*
X140311913Y-107426361D02*
X140311913Y-106925981D01*
X140264258Y-106997464D01*
X140216603Y-107045119D01*
X140168947Y-107068947D01*
X140907603Y-106925981D02*
X140669327Y-106925981D01*
X140645499Y-107164258D01*
X140669327Y-107140430D01*
X140716982Y-107116602D01*
X140836120Y-107116602D01*
X140883776Y-107140430D01*
X140907603Y-107164258D01*
X140931431Y-107211913D01*
X140931431Y-107331051D01*
X140907603Y-107378706D01*
X140883776Y-107402534D01*
X140836120Y-107426361D01*
X140716982Y-107426361D01*
X140669327Y-107402534D01*
X140645499Y-107378706D01*
X144711154Y-106925981D02*
X144758809Y-106925981D01*
X144806464Y-106949809D01*
X144830292Y-106973637D01*
X144854119Y-107021292D01*
X144877947Y-107116602D01*
X144877947Y-107235740D01*
X144854119Y-107331051D01*
X144830292Y-107378706D01*
X144806464Y-107402534D01*
X144758809Y-107426361D01*
X144711154Y-107426361D01*
X144663498Y-107402534D01*
X144639671Y-107378706D01*
X144615843Y-107331051D01*
X144592015Y-107235740D01*
X144592015Y-107116602D01*
X144615843Y-107021292D01*
X144639671Y-106973637D01*
X144663498Y-106949809D01*
X144711154Y-106925981D01*
X145092395Y-107378706D02*
X145116223Y-107402534D01*
X145092395Y-107426361D01*
X145068567Y-107402534D01*
X145092395Y-107378706D01*
X145092395Y-107426361D01*
X145425982Y-106925981D02*
X145473637Y-106925981D01*
X145521292Y-106949809D01*
X145545120Y-106973637D01*
X145568947Y-107021292D01*
X145592775Y-107116602D01*
X145592775Y-107235740D01*
X145568947Y-107331051D01*
X145545120Y-107378706D01*
X145521292Y-107402534D01*
X145473637Y-107426361D01*
X145425982Y-107426361D01*
X145378326Y-107402534D01*
X145354499Y-107378706D01*
X145330671Y-107331051D01*
X145306843Y-107235740D01*
X145306843Y-107116602D01*
X145330671Y-107021292D01*
X145354499Y-106973637D01*
X145378326Y-106949809D01*
X145425982Y-106925981D01*
X146069327Y-107426361D02*
X145783395Y-107426361D01*
X145926361Y-107426361D02*
X145926361Y-106925981D01*
X145878706Y-106997464D01*
X145831051Y-107045119D01*
X145783395Y-107068947D01*
X146498224Y-107092775D02*
X146498224Y-107426361D01*
X146283775Y-107092775D02*
X146283775Y-107354879D01*
X146307603Y-107402534D01*
X146355258Y-107426361D01*
X146426741Y-107426361D01*
X146474396Y-107402534D01*
X146498224Y-107378706D01*
X146665017Y-107092775D02*
X146855638Y-107092775D01*
X146736500Y-107426361D02*
X146736500Y-106997464D01*
X146760328Y-106949809D01*
X146807983Y-106925981D01*
X146855638Y-106925981D01*
D18*
X85742094Y-97443999D02*
X85645332Y-97395618D01*
X85500189Y-97395618D01*
X85355047Y-97443999D01*
X85258285Y-97540761D01*
X85209904Y-97637523D01*
X85161523Y-97831047D01*
X85161523Y-97976189D01*
X85209904Y-98169713D01*
X85258285Y-98266475D01*
X85355047Y-98363237D01*
X85500189Y-98411618D01*
X85596951Y-98411618D01*
X85742094Y-98363237D01*
X85790475Y-98314856D01*
X85790475Y-97976189D01*
X85596951Y-97976189D01*
X86225904Y-98411618D02*
X86225904Y-97395618D01*
X86806475Y-98411618D01*
X86806475Y-97395618D01*
X87290285Y-98411618D02*
X87290285Y-97395618D01*
X87532190Y-97395618D01*
X87677332Y-97443999D01*
X87774094Y-97540761D01*
X87822475Y-97637523D01*
X87870856Y-97831047D01*
X87870856Y-97976189D01*
X87822475Y-98169713D01*
X87774094Y-98266475D01*
X87677332Y-98363237D01*
X87532190Y-98411618D01*
X87290285Y-98411618D01*
X88257904Y-97492380D02*
X88306285Y-97443999D01*
X88403047Y-97395618D01*
X88644951Y-97395618D01*
X88741713Y-97443999D01*
X88790094Y-97492380D01*
X88838475Y-97589142D01*
X88838475Y-97685904D01*
X88790094Y-97831047D01*
X88209523Y-98411618D01*
X88838475Y-98411618D01*
D20*
X138033713Y-98002855D02*
X137271713Y-98002855D01*
X137961142Y-97204570D02*
X137997428Y-97240856D01*
X138033713Y-97349713D01*
X138033713Y-97422284D01*
X137997428Y-97531141D01*
X137924856Y-97603713D01*
X137852285Y-97639998D01*
X137707142Y-97676284D01*
X137598285Y-97676284D01*
X137453142Y-97639998D01*
X137380570Y-97603713D01*
X137307999Y-97531141D01*
X137271713Y-97422284D01*
X137271713Y-97349713D01*
X137307999Y-97240856D01*
X137344285Y-97204570D01*
X138033713Y-96478856D02*
X138033713Y-96914284D01*
X138033713Y-96696570D02*
X137271713Y-96696570D01*
X137380570Y-96769141D01*
X137453142Y-96841713D01*
X137489428Y-96914284D01*
D19*
X98316603Y-106426361D02*
X98149809Y-106188085D01*
X98030671Y-106426361D02*
X98030671Y-105925981D01*
X98221292Y-105925981D01*
X98268947Y-105949809D01*
X98292775Y-105973637D01*
X98316603Y-106021292D01*
X98316603Y-106092775D01*
X98292775Y-106140430D01*
X98268947Y-106164258D01*
X98221292Y-106188085D01*
X98030671Y-106188085D01*
X98793155Y-106426361D02*
X98507223Y-106426361D01*
X98650189Y-106426361D02*
X98650189Y-105925981D01*
X98602534Y-105997464D01*
X98554879Y-106045119D01*
X98507223Y-106068947D01*
X98054499Y-109626361D02*
X97768567Y-109626361D01*
X97911533Y-109626361D02*
X97911533Y-109125981D01*
X97863878Y-109197464D01*
X97816223Y-109245119D01*
X97768567Y-109268947D01*
X98364258Y-109125981D02*
X98411913Y-109125981D01*
X98459568Y-109149809D01*
X98483396Y-109173637D01*
X98507223Y-109221292D01*
X98531051Y-109316602D01*
X98531051Y-109435740D01*
X98507223Y-109531051D01*
X98483396Y-109578706D01*
X98459568Y-109602534D01*
X98411913Y-109626361D01*
X98364258Y-109626361D01*
X98316602Y-109602534D01*
X98292775Y-109578706D01*
X98268947Y-109531051D01*
X98245119Y-109435740D01*
X98245119Y-109316602D01*
X98268947Y-109221292D01*
X98292775Y-109173637D01*
X98316602Y-109149809D01*
X98364258Y-109125981D01*
X98745499Y-109626361D02*
X98745499Y-109125981D01*
X99031431Y-109626361D02*
X98816982Y-109340430D01*
X99031431Y-109125981D02*
X98745499Y-109411913D01*
X117016603Y-83826361D02*
X116849809Y-83588085D01*
X116730671Y-83826361D02*
X116730671Y-83325981D01*
X116921292Y-83325981D01*
X116968947Y-83349809D01*
X116992775Y-83373637D01*
X117016603Y-83421292D01*
X117016603Y-83492775D01*
X116992775Y-83540430D01*
X116968947Y-83564258D01*
X116921292Y-83588085D01*
X116730671Y-83588085D01*
X117183396Y-83325981D02*
X117493155Y-83325981D01*
X117326362Y-83516602D01*
X117397844Y-83516602D01*
X117445500Y-83540430D01*
X117469327Y-83564258D01*
X117493155Y-83611913D01*
X117493155Y-83731051D01*
X117469327Y-83778706D01*
X117445500Y-83802534D01*
X117397844Y-83826361D01*
X117254879Y-83826361D01*
X117207223Y-83802534D01*
X117183396Y-83778706D01*
X121454499Y-83926361D02*
X121168567Y-83926361D01*
X121311533Y-83926361D02*
X121311533Y-83425981D01*
X121263878Y-83497464D01*
X121216223Y-83545119D01*
X121168567Y-83568947D01*
X121764258Y-83425981D02*
X121811913Y-83425981D01*
X121859568Y-83449809D01*
X121883396Y-83473637D01*
X121907223Y-83521292D01*
X121931051Y-83616602D01*
X121931051Y-83735740D01*
X121907223Y-83831051D01*
X121883396Y-83878706D01*
X121859568Y-83902534D01*
X121811913Y-83926361D01*
X121764258Y-83926361D01*
X121716602Y-83902534D01*
X121692775Y-83878706D01*
X121668947Y-83831051D01*
X121645119Y-83735740D01*
X121645119Y-83616602D01*
X121668947Y-83521292D01*
X121692775Y-83473637D01*
X121716602Y-83449809D01*
X121764258Y-83425981D01*
X122145499Y-83926361D02*
X122145499Y-83425981D01*
X122431431Y-83926361D02*
X122216982Y-83640430D01*
X122431431Y-83425981D02*
X122145499Y-83711913D01*
X114516603Y-102326361D02*
X114349809Y-102088085D01*
X114230671Y-102326361D02*
X114230671Y-101825981D01*
X114421292Y-101825981D01*
X114468947Y-101849809D01*
X114492775Y-101873637D01*
X114516603Y-101921292D01*
X114516603Y-101992775D01*
X114492775Y-102040430D01*
X114468947Y-102064258D01*
X114421292Y-102088085D01*
X114230671Y-102088085D01*
X114969327Y-101825981D02*
X114731051Y-101825981D01*
X114707223Y-102064258D01*
X114731051Y-102040430D01*
X114778706Y-102016602D01*
X114897844Y-102016602D01*
X114945500Y-102040430D01*
X114969327Y-102064258D01*
X114993155Y-102111913D01*
X114993155Y-102231051D01*
X114969327Y-102278706D01*
X114945500Y-102302534D01*
X114897844Y-102326361D01*
X114778706Y-102326361D01*
X114731051Y-102302534D01*
X114707223Y-102278706D01*
X119154499Y-102326361D02*
X118868567Y-102326361D01*
X119011533Y-102326361D02*
X119011533Y-101825981D01*
X118963878Y-101897464D01*
X118916223Y-101945119D01*
X118868567Y-101968947D01*
X119464258Y-101825981D02*
X119511913Y-101825981D01*
X119559568Y-101849809D01*
X119583396Y-101873637D01*
X119607223Y-101921292D01*
X119631051Y-102016602D01*
X119631051Y-102135740D01*
X119607223Y-102231051D01*
X119583396Y-102278706D01*
X119559568Y-102302534D01*
X119511913Y-102326361D01*
X119464258Y-102326361D01*
X119416602Y-102302534D01*
X119392775Y-102278706D01*
X119368947Y-102231051D01*
X119345119Y-102135740D01*
X119345119Y-102016602D01*
X119368947Y-101921292D01*
X119392775Y-101873637D01*
X119416602Y-101849809D01*
X119464258Y-101825981D01*
X119845499Y-102326361D02*
X119845499Y-101825981D01*
X120131431Y-102326361D02*
X119916982Y-102040430D01*
X120131431Y-101825981D02*
X119845499Y-102111913D01*
X114416603Y-99026361D02*
X114249809Y-98788085D01*
X114130671Y-99026361D02*
X114130671Y-98525981D01*
X114321292Y-98525981D01*
X114368947Y-98549809D01*
X114392775Y-98573637D01*
X114416603Y-98621292D01*
X114416603Y-98692775D01*
X114392775Y-98740430D01*
X114368947Y-98764258D01*
X114321292Y-98788085D01*
X114130671Y-98788085D01*
X114845500Y-98525981D02*
X114750189Y-98525981D01*
X114702534Y-98549809D01*
X114678706Y-98573637D01*
X114631051Y-98645119D01*
X114607223Y-98740430D01*
X114607223Y-98931051D01*
X114631051Y-98978706D01*
X114654879Y-99002534D01*
X114702534Y-99026361D01*
X114797844Y-99026361D01*
X114845500Y-99002534D01*
X114869327Y-98978706D01*
X114893155Y-98931051D01*
X114893155Y-98811913D01*
X114869327Y-98764258D01*
X114845500Y-98740430D01*
X114797844Y-98716602D01*
X114702534Y-98716602D01*
X114654879Y-98740430D01*
X114631051Y-98764258D01*
X114607223Y-98811913D01*
X119054499Y-99926361D02*
X118768567Y-99926361D01*
X118911533Y-99926361D02*
X118911533Y-99425981D01*
X118863878Y-99497464D01*
X118816223Y-99545119D01*
X118768567Y-99568947D01*
X119364258Y-99425981D02*
X119411913Y-99425981D01*
X119459568Y-99449809D01*
X119483396Y-99473637D01*
X119507223Y-99521292D01*
X119531051Y-99616602D01*
X119531051Y-99735740D01*
X119507223Y-99831051D01*
X119483396Y-99878706D01*
X119459568Y-99902534D01*
X119411913Y-99926361D01*
X119364258Y-99926361D01*
X119316602Y-99902534D01*
X119292775Y-99878706D01*
X119268947Y-99831051D01*
X119245119Y-99735740D01*
X119245119Y-99616602D01*
X119268947Y-99521292D01*
X119292775Y-99473637D01*
X119316602Y-99449809D01*
X119364258Y-99425981D01*
X119745499Y-99926361D02*
X119745499Y-99425981D01*
X120031431Y-99926361D02*
X119816982Y-99640430D01*
X120031431Y-99425981D02*
X119745499Y-99711913D01*
X112716603Y-79726361D02*
X112549809Y-79488085D01*
X112430671Y-79726361D02*
X112430671Y-79225981D01*
X112621292Y-79225981D01*
X112668947Y-79249809D01*
X112692775Y-79273637D01*
X112716603Y-79321292D01*
X112716603Y-79392775D01*
X112692775Y-79440430D01*
X112668947Y-79464258D01*
X112621292Y-79488085D01*
X112430671Y-79488085D01*
X112883396Y-79225981D02*
X113216983Y-79225981D01*
X113002534Y-79726361D01*
X117154499Y-79726361D02*
X116868567Y-79726361D01*
X117011533Y-79726361D02*
X117011533Y-79225981D01*
X116963878Y-79297464D01*
X116916223Y-79345119D01*
X116868567Y-79368947D01*
X117464258Y-79225981D02*
X117511913Y-79225981D01*
X117559568Y-79249809D01*
X117583396Y-79273637D01*
X117607223Y-79321292D01*
X117631051Y-79416602D01*
X117631051Y-79535740D01*
X117607223Y-79631051D01*
X117583396Y-79678706D01*
X117559568Y-79702534D01*
X117511913Y-79726361D01*
X117464258Y-79726361D01*
X117416602Y-79702534D01*
X117392775Y-79678706D01*
X117368947Y-79631051D01*
X117345119Y-79535740D01*
X117345119Y-79416602D01*
X117368947Y-79321292D01*
X117392775Y-79273637D01*
X117416602Y-79249809D01*
X117464258Y-79225981D01*
X117845499Y-79726361D02*
X117845499Y-79225981D01*
X118131431Y-79726361D02*
X117916982Y-79440430D01*
X118131431Y-79225981D02*
X117845499Y-79511913D01*
X136316603Y-105426361D02*
X136149809Y-105188085D01*
X136030671Y-105426361D02*
X136030671Y-104925981D01*
X136221292Y-104925981D01*
X136268947Y-104949809D01*
X136292775Y-104973637D01*
X136316603Y-105021292D01*
X136316603Y-105092775D01*
X136292775Y-105140430D01*
X136268947Y-105164258D01*
X136221292Y-105188085D01*
X136030671Y-105188085D01*
X136602534Y-105140430D02*
X136554879Y-105116602D01*
X136531051Y-105092775D01*
X136507223Y-105045119D01*
X136507223Y-105021292D01*
X136531051Y-104973637D01*
X136554879Y-104949809D01*
X136602534Y-104925981D01*
X136697844Y-104925981D01*
X136745500Y-104949809D01*
X136769327Y-104973637D01*
X136793155Y-105021292D01*
X136793155Y-105045119D01*
X136769327Y-105092775D01*
X136745500Y-105116602D01*
X136697844Y-105140430D01*
X136602534Y-105140430D01*
X136554879Y-105164258D01*
X136531051Y-105188085D01*
X136507223Y-105235740D01*
X136507223Y-105331051D01*
X136531051Y-105378706D01*
X136554879Y-105402534D01*
X136602534Y-105426361D01*
X136697844Y-105426361D01*
X136745500Y-105402534D01*
X136769327Y-105378706D01*
X136793155Y-105331051D01*
X136793155Y-105235740D01*
X136769327Y-105188085D01*
X136745500Y-105164258D01*
X136697844Y-105140430D01*
X140754499Y-105926361D02*
X140468567Y-105926361D01*
X140611533Y-105926361D02*
X140611533Y-105425981D01*
X140563878Y-105497464D01*
X140516223Y-105545119D01*
X140468567Y-105568947D01*
X141064258Y-105425981D02*
X141111913Y-105425981D01*
X141159568Y-105449809D01*
X141183396Y-105473637D01*
X141207223Y-105521292D01*
X141231051Y-105616602D01*
X141231051Y-105735740D01*
X141207223Y-105831051D01*
X141183396Y-105878706D01*
X141159568Y-105902534D01*
X141111913Y-105926361D01*
X141064258Y-105926361D01*
X141016602Y-105902534D01*
X140992775Y-105878706D01*
X140968947Y-105831051D01*
X140945119Y-105735740D01*
X140945119Y-105616602D01*
X140968947Y-105521292D01*
X140992775Y-105473637D01*
X141016602Y-105449809D01*
X141064258Y-105425981D01*
X141445499Y-105926361D02*
X141445499Y-105425981D01*
X141731431Y-105926361D02*
X141516982Y-105640430D01*
X141731431Y-105425981D02*
X141445499Y-105711913D01*
X92616603Y-90526361D02*
X92449809Y-90288085D01*
X92330671Y-90526361D02*
X92330671Y-90025981D01*
X92521292Y-90025981D01*
X92568947Y-90049809D01*
X92592775Y-90073637D01*
X92616603Y-90121292D01*
X92616603Y-90192775D01*
X92592775Y-90240430D01*
X92568947Y-90264258D01*
X92521292Y-90288085D01*
X92330671Y-90288085D01*
X92854879Y-90526361D02*
X92950189Y-90526361D01*
X92997844Y-90502534D01*
X93021672Y-90478706D01*
X93069327Y-90407223D01*
X93093155Y-90311913D01*
X93093155Y-90121292D01*
X93069327Y-90073637D01*
X93045500Y-90049809D01*
X92997844Y-90025981D01*
X92902534Y-90025981D01*
X92854879Y-90049809D01*
X92831051Y-90073637D01*
X92807223Y-90121292D01*
X92807223Y-90240430D01*
X92831051Y-90288085D01*
X92854879Y-90311913D01*
X92902534Y-90335740D01*
X92997844Y-90335740D01*
X93045500Y-90311913D01*
X93069327Y-90288085D01*
X93093155Y-90240430D01*
X89818757Y-88573637D02*
X89842585Y-88549809D01*
X89890240Y-88525981D01*
X90009378Y-88525981D01*
X90057034Y-88549809D01*
X90080861Y-88573637D01*
X90104689Y-88621292D01*
X90104689Y-88668947D01*
X90080861Y-88740430D01*
X89794930Y-89026361D01*
X90104689Y-89026361D01*
X90295309Y-88573637D02*
X90319137Y-88549809D01*
X90366792Y-88525981D01*
X90485930Y-88525981D01*
X90533586Y-88549809D01*
X90557413Y-88573637D01*
X90581241Y-88621292D01*
X90581241Y-88668947D01*
X90557413Y-88740430D01*
X90271482Y-89026361D01*
X90581241Y-89026361D01*
X92378327Y-85526361D02*
X92211533Y-85288085D01*
X92092395Y-85526361D02*
X92092395Y-85025981D01*
X92283016Y-85025981D01*
X92330671Y-85049809D01*
X92354499Y-85073637D01*
X92378327Y-85121292D01*
X92378327Y-85192775D01*
X92354499Y-85240430D01*
X92330671Y-85264258D01*
X92283016Y-85288085D01*
X92092395Y-85288085D01*
X92854879Y-85526361D02*
X92568947Y-85526361D01*
X92711913Y-85526361D02*
X92711913Y-85025981D01*
X92664258Y-85097464D01*
X92616603Y-85145119D01*
X92568947Y-85168947D01*
X93164638Y-85025981D02*
X93212293Y-85025981D01*
X93259948Y-85049809D01*
X93283776Y-85073637D01*
X93307603Y-85121292D01*
X93331431Y-85216602D01*
X93331431Y-85335740D01*
X93307603Y-85431051D01*
X93283776Y-85478706D01*
X93259948Y-85502534D01*
X93212293Y-85526361D01*
X93164638Y-85526361D01*
X93116982Y-85502534D01*
X93093155Y-85478706D01*
X93069327Y-85431051D01*
X93045499Y-85335740D01*
X93045499Y-85216602D01*
X93069327Y-85121292D01*
X93093155Y-85073637D01*
X93116982Y-85049809D01*
X93164638Y-85025981D01*
X89818757Y-86573637D02*
X89842585Y-86549809D01*
X89890240Y-86525981D01*
X90009378Y-86525981D01*
X90057034Y-86549809D01*
X90080861Y-86573637D01*
X90104689Y-86621292D01*
X90104689Y-86668947D01*
X90080861Y-86740430D01*
X89794930Y-87026361D01*
X90104689Y-87026361D01*
X90295309Y-86573637D02*
X90319137Y-86549809D01*
X90366792Y-86525981D01*
X90485930Y-86525981D01*
X90533586Y-86549809D01*
X90557413Y-86573637D01*
X90581241Y-86621292D01*
X90581241Y-86668947D01*
X90557413Y-86740430D01*
X90271482Y-87026361D01*
X90581241Y-87026361D01*
X125326361Y-121421671D02*
X125088085Y-121588465D01*
X125326361Y-121707603D02*
X124825981Y-121707603D01*
X124825981Y-121516982D01*
X124849809Y-121469327D01*
X124873637Y-121445499D01*
X124921292Y-121421671D01*
X124992775Y-121421671D01*
X125040430Y-121445499D01*
X125064258Y-121469327D01*
X125088085Y-121516982D01*
X125088085Y-121707603D01*
X125326361Y-120945119D02*
X125326361Y-121231051D01*
X125326361Y-121088085D02*
X124825981Y-121088085D01*
X124897464Y-121135740D01*
X124945119Y-121183395D01*
X124968947Y-121231051D01*
X125326361Y-120468567D02*
X125326361Y-120754499D01*
X125326361Y-120611533D02*
X124825981Y-120611533D01*
X124897464Y-120659188D01*
X124945119Y-120706843D01*
X124968947Y-120754499D01*
X123026361Y-118945499D02*
X123026361Y-119231431D01*
X123026361Y-119088465D02*
X122525981Y-119088465D01*
X122597464Y-119136120D01*
X122645119Y-119183775D01*
X122668947Y-119231431D01*
X122525981Y-118635740D02*
X122525981Y-118588085D01*
X122549809Y-118540430D01*
X122573637Y-118516602D01*
X122621292Y-118492775D01*
X122716602Y-118468947D01*
X122835740Y-118468947D01*
X122931051Y-118492775D01*
X122978706Y-118516602D01*
X123002534Y-118540430D01*
X123026361Y-118588085D01*
X123026361Y-118635740D01*
X123002534Y-118683396D01*
X122978706Y-118707223D01*
X122931051Y-118731051D01*
X122835740Y-118754879D01*
X122716602Y-118754879D01*
X122621292Y-118731051D01*
X122573637Y-118707223D01*
X122549809Y-118683396D01*
X122525981Y-118635740D01*
X123026361Y-118254499D02*
X122525981Y-118254499D01*
X123026361Y-117968567D02*
X122740430Y-118183016D01*
X122525981Y-117968567D02*
X122811913Y-118254499D01*
X139378327Y-114589861D02*
X139211533Y-114351585D01*
X139092395Y-114589861D02*
X139092395Y-114089481D01*
X139283016Y-114089481D01*
X139330671Y-114113309D01*
X139354499Y-114137137D01*
X139378327Y-114184792D01*
X139378327Y-114256275D01*
X139354499Y-114303930D01*
X139330671Y-114327758D01*
X139283016Y-114351585D01*
X139092395Y-114351585D01*
X139854879Y-114589861D02*
X139568947Y-114589861D01*
X139711913Y-114589861D02*
X139711913Y-114089481D01*
X139664258Y-114160964D01*
X139616603Y-114208619D01*
X139568947Y-114232447D01*
X140045499Y-114137137D02*
X140069327Y-114113309D01*
X140116982Y-114089481D01*
X140236120Y-114089481D01*
X140283776Y-114113309D01*
X140307603Y-114137137D01*
X140331431Y-114184792D01*
X140331431Y-114232447D01*
X140307603Y-114303930D01*
X140021672Y-114589861D01*
X140331431Y-114589861D01*
X139926361Y-114010499D02*
X139926361Y-114296431D01*
X139926361Y-114153465D02*
X139425981Y-114153465D01*
X139497464Y-114201120D01*
X139545119Y-114248775D01*
X139568947Y-114296431D01*
X139425981Y-113700740D02*
X139425981Y-113653085D01*
X139449809Y-113605430D01*
X139473637Y-113581602D01*
X139521292Y-113557775D01*
X139616602Y-113533947D01*
X139735740Y-113533947D01*
X139831051Y-113557775D01*
X139878706Y-113581602D01*
X139902534Y-113605430D01*
X139926361Y-113653085D01*
X139926361Y-113700740D01*
X139902534Y-113748396D01*
X139878706Y-113772223D01*
X139831051Y-113796051D01*
X139735740Y-113819879D01*
X139616602Y-113819879D01*
X139521292Y-113796051D01*
X139473637Y-113772223D01*
X139449809Y-113748396D01*
X139425981Y-113700740D01*
X139926361Y-113319499D02*
X139425981Y-113319499D01*
X139926361Y-113033567D02*
X139640430Y-113248016D01*
X139425981Y-113033567D02*
X139711913Y-113319499D01*
X139878327Y-81726361D02*
X139711533Y-81488085D01*
X139592395Y-81726361D02*
X139592395Y-81225981D01*
X139783016Y-81225981D01*
X139830671Y-81249809D01*
X139854499Y-81273637D01*
X139878327Y-81321292D01*
X139878327Y-81392775D01*
X139854499Y-81440430D01*
X139830671Y-81464258D01*
X139783016Y-81488085D01*
X139592395Y-81488085D01*
X140354879Y-81726361D02*
X140068947Y-81726361D01*
X140211913Y-81726361D02*
X140211913Y-81225981D01*
X140164258Y-81297464D01*
X140116603Y-81345119D01*
X140068947Y-81368947D01*
X140521672Y-81225981D02*
X140831431Y-81225981D01*
X140664638Y-81416602D01*
X140736120Y-81416602D01*
X140783776Y-81440430D01*
X140807603Y-81464258D01*
X140831431Y-81511913D01*
X140831431Y-81631051D01*
X140807603Y-81678706D01*
X140783776Y-81702534D01*
X140736120Y-81726361D01*
X140593155Y-81726361D01*
X140545499Y-81702534D01*
X140521672Y-81678706D01*
X139037136Y-78492775D02*
X139227757Y-78492775D01*
X139108619Y-78325981D02*
X139108619Y-78754879D01*
X139132447Y-78802534D01*
X139180102Y-78826361D01*
X139227757Y-78826361D01*
X139394550Y-78826361D02*
X139394550Y-78492775D01*
X139394550Y-78588085D02*
X139418378Y-78540430D01*
X139442205Y-78516602D01*
X139489861Y-78492775D01*
X139537516Y-78492775D01*
X139704309Y-78826361D02*
X139704309Y-78492775D01*
X139704309Y-78325981D02*
X139680481Y-78349809D01*
X139704309Y-78373637D01*
X139728137Y-78349809D01*
X139704309Y-78325981D01*
X139704309Y-78373637D01*
X139942585Y-78826361D02*
X139942585Y-78492775D01*
X139942585Y-78540430D02*
X139966413Y-78516602D01*
X140014068Y-78492775D01*
X140085551Y-78492775D01*
X140133206Y-78516602D01*
X140157034Y-78564258D01*
X140157034Y-78826361D01*
X140157034Y-78564258D02*
X140180861Y-78516602D01*
X140228517Y-78492775D01*
X140299999Y-78492775D01*
X140347655Y-78516602D01*
X140371482Y-78564258D01*
X140371482Y-78826361D01*
X140609758Y-78635740D02*
X140991000Y-78635740D01*
X141229276Y-78826361D02*
X141229276Y-78325981D01*
X141515208Y-78826361D02*
X141300759Y-78540430D01*
X141515208Y-78325981D02*
X141229276Y-78611913D01*
X144978327Y-81726361D02*
X144811533Y-81488085D01*
X144692395Y-81726361D02*
X144692395Y-81225981D01*
X144883016Y-81225981D01*
X144930671Y-81249809D01*
X144954499Y-81273637D01*
X144978327Y-81321292D01*
X144978327Y-81392775D01*
X144954499Y-81440430D01*
X144930671Y-81464258D01*
X144883016Y-81488085D01*
X144692395Y-81488085D01*
X145454879Y-81726361D02*
X145168947Y-81726361D01*
X145311913Y-81726361D02*
X145311913Y-81225981D01*
X145264258Y-81297464D01*
X145216603Y-81345119D01*
X145168947Y-81368947D01*
X145883776Y-81392775D02*
X145883776Y-81726361D01*
X145764638Y-81202154D02*
X145645499Y-81559568D01*
X145955259Y-81559568D01*
X143937136Y-78492775D02*
X144127757Y-78492775D01*
X144008619Y-78325981D02*
X144008619Y-78754879D01*
X144032447Y-78802534D01*
X144080102Y-78826361D01*
X144127757Y-78826361D01*
X144294550Y-78826361D02*
X144294550Y-78492775D01*
X144294550Y-78588085D02*
X144318378Y-78540430D01*
X144342205Y-78516602D01*
X144389861Y-78492775D01*
X144437516Y-78492775D01*
X144604309Y-78826361D02*
X144604309Y-78492775D01*
X144604309Y-78325981D02*
X144580481Y-78349809D01*
X144604309Y-78373637D01*
X144628137Y-78349809D01*
X144604309Y-78325981D01*
X144604309Y-78373637D01*
X144842585Y-78826361D02*
X144842585Y-78492775D01*
X144842585Y-78540430D02*
X144866413Y-78516602D01*
X144914068Y-78492775D01*
X144985551Y-78492775D01*
X145033206Y-78516602D01*
X145057034Y-78564258D01*
X145057034Y-78826361D01*
X145057034Y-78564258D02*
X145080861Y-78516602D01*
X145128517Y-78492775D01*
X145199999Y-78492775D01*
X145247655Y-78516602D01*
X145271482Y-78564258D01*
X145271482Y-78826361D01*
X145509758Y-78635740D02*
X145891000Y-78635740D01*
X146129276Y-78826361D02*
X146129276Y-78325981D01*
X146415208Y-78826361D02*
X146200759Y-78540430D01*
X146415208Y-78325981D02*
X146129276Y-78611913D01*
X148078327Y-92826361D02*
X147911533Y-92588085D01*
X147792395Y-92826361D02*
X147792395Y-92325981D01*
X147983016Y-92325981D01*
X148030671Y-92349809D01*
X148054499Y-92373637D01*
X148078327Y-92421292D01*
X148078327Y-92492775D01*
X148054499Y-92540430D01*
X148030671Y-92564258D01*
X147983016Y-92588085D01*
X147792395Y-92588085D01*
X148554879Y-92826361D02*
X148268947Y-92826361D01*
X148411913Y-92826361D02*
X148411913Y-92325981D01*
X148364258Y-92397464D01*
X148316603Y-92445119D01*
X148268947Y-92468947D01*
X149007603Y-92325981D02*
X148769327Y-92325981D01*
X148745499Y-92564258D01*
X148769327Y-92540430D01*
X148816982Y-92516602D01*
X148936120Y-92516602D01*
X148983776Y-92540430D01*
X149007603Y-92564258D01*
X149031431Y-92611913D01*
X149031431Y-92731051D01*
X149007603Y-92778706D01*
X148983776Y-92802534D01*
X148936120Y-92826361D01*
X148816982Y-92826361D01*
X148769327Y-92802534D01*
X148745499Y-92778706D01*
X147037136Y-89592775D02*
X147227757Y-89592775D01*
X147108619Y-89425981D02*
X147108619Y-89854879D01*
X147132447Y-89902534D01*
X147180102Y-89926361D01*
X147227757Y-89926361D01*
X147394550Y-89926361D02*
X147394550Y-89592775D01*
X147394550Y-89688085D02*
X147418378Y-89640430D01*
X147442205Y-89616602D01*
X147489861Y-89592775D01*
X147537516Y-89592775D01*
X147704309Y-89926361D02*
X147704309Y-89592775D01*
X147704309Y-89425981D02*
X147680481Y-89449809D01*
X147704309Y-89473637D01*
X147728137Y-89449809D01*
X147704309Y-89425981D01*
X147704309Y-89473637D01*
X147942585Y-89926361D02*
X147942585Y-89592775D01*
X147942585Y-89640430D02*
X147966413Y-89616602D01*
X148014068Y-89592775D01*
X148085551Y-89592775D01*
X148133206Y-89616602D01*
X148157034Y-89664258D01*
X148157034Y-89926361D01*
X148157034Y-89664258D02*
X148180861Y-89616602D01*
X148228517Y-89592775D01*
X148299999Y-89592775D01*
X148347655Y-89616602D01*
X148371482Y-89664258D01*
X148371482Y-89926361D01*
X148609758Y-89735740D02*
X148991000Y-89735740D01*
X149229276Y-89926361D02*
X149229276Y-89425981D01*
X149515208Y-89926361D02*
X149300759Y-89640430D01*
X149515208Y-89425981D02*
X149229276Y-89711913D01*
D13*
X128130904Y-109679618D02*
X128130904Y-110502094D01*
X128179285Y-110598856D01*
X128227666Y-110647237D01*
X128324428Y-110695618D01*
X128517951Y-110695618D01*
X128614713Y-110647237D01*
X128663094Y-110598856D01*
X128711475Y-110502094D01*
X128711475Y-109679618D01*
X129146904Y-109776380D02*
X129195285Y-109727999D01*
X129292047Y-109679618D01*
X129533951Y-109679618D01*
X129630713Y-109727999D01*
X129679094Y-109776380D01*
X129727475Y-109873142D01*
X129727475Y-109969904D01*
X129679094Y-110115047D01*
X129098523Y-110695618D01*
X129727475Y-110695618D01*
X125560666Y-113235618D02*
X125560666Y-112219618D01*
X125802571Y-112219618D01*
X125947713Y-112267999D01*
X126044475Y-112364761D01*
X126092856Y-112461523D01*
X126141237Y-112655047D01*
X126141237Y-112800189D01*
X126092856Y-112993713D01*
X126044475Y-113090475D01*
X125947713Y-113187237D01*
X125802571Y-113235618D01*
X125560666Y-113235618D01*
X126528285Y-113187237D02*
X126673428Y-113235618D01*
X126915332Y-113235618D01*
X127012094Y-113187237D01*
X127060475Y-113138856D01*
X127108856Y-113042094D01*
X127108856Y-112945332D01*
X127060475Y-112848570D01*
X127012094Y-112800189D01*
X126915332Y-112751809D01*
X126721809Y-112703428D01*
X126625047Y-112655047D01*
X126576666Y-112606666D01*
X126528285Y-112509904D01*
X126528285Y-112413142D01*
X126576666Y-112316380D01*
X126625047Y-112267999D01*
X126721809Y-112219618D01*
X126963713Y-112219618D01*
X127108856Y-112267999D01*
X127447523Y-112219618D02*
X128076475Y-112219618D01*
X127737809Y-112606666D01*
X127882951Y-112606666D01*
X127979713Y-112655047D01*
X128028094Y-112703428D01*
X128076475Y-112800189D01*
X128076475Y-113042094D01*
X128028094Y-113138856D01*
X127979713Y-113187237D01*
X127882951Y-113235618D01*
X127592666Y-113235618D01*
X127495904Y-113187237D01*
X127447523Y-113138856D01*
X128463523Y-112316380D02*
X128511904Y-112267999D01*
X128608666Y-112219618D01*
X128850570Y-112219618D01*
X128947332Y-112267999D01*
X128995713Y-112316380D01*
X129044094Y-112413142D01*
X129044094Y-112509904D01*
X128995713Y-112655047D01*
X128415142Y-113235618D01*
X129044094Y-113235618D01*
X129382761Y-112219618D02*
X130011713Y-112219618D01*
X129673047Y-112606666D01*
X129818189Y-112606666D01*
X129914951Y-112655047D01*
X129963332Y-112703428D01*
X130011713Y-112800189D01*
X130011713Y-113042094D01*
X129963332Y-113138856D01*
X129914951Y-113187237D01*
X129818189Y-113235618D01*
X129527904Y-113235618D01*
X129431142Y-113187237D01*
X129382761Y-113138856D01*
X130979332Y-113235618D02*
X130398761Y-113235618D01*
X130689047Y-113235618D02*
X130689047Y-112219618D01*
X130592285Y-112364761D01*
X130495523Y-112461523D01*
X130398761Y-112509904D01*
X131414761Y-113235618D02*
X131414761Y-112219618D01*
X131995332Y-113235618D01*
X131995332Y-112219618D01*
D12*
X107986284Y-116767428D02*
X109002284Y-118291428D01*
X109002284Y-116767428D02*
X107986284Y-118291428D01*
X110381142Y-118291428D02*
X109510285Y-118291428D01*
X109945713Y-118291428D02*
X109945713Y-116767428D01*
X109800570Y-116985142D01*
X109655428Y-117130285D01*
X109510285Y-117202856D01*
D16*
X143002110Y-88407809D02*
X143002110Y-87899809D01*
X143171444Y-88262666D01*
X143340777Y-87899809D01*
X143340777Y-88407809D01*
X143655253Y-88407809D02*
X143606872Y-88383618D01*
X143582681Y-88359428D01*
X143558491Y-88311047D01*
X143558491Y-88165904D01*
X143582681Y-88117523D01*
X143606872Y-88093332D01*
X143655253Y-88069142D01*
X143727824Y-88069142D01*
X143776205Y-88093332D01*
X143800396Y-88117523D01*
X143824586Y-88165904D01*
X143824586Y-88311047D01*
X143800396Y-88359428D01*
X143776205Y-88383618D01*
X143727824Y-88407809D01*
X143655253Y-88407809D01*
X143969729Y-88069142D02*
X144163253Y-88069142D01*
X144042300Y-87899809D02*
X144042300Y-88335237D01*
X144066491Y-88383618D01*
X144114872Y-88407809D01*
X144163253Y-88407809D01*
X144405158Y-88407809D02*
X144356777Y-88383618D01*
X144332586Y-88359428D01*
X144308396Y-88311047D01*
X144308396Y-88165904D01*
X144332586Y-88117523D01*
X144356777Y-88093332D01*
X144405158Y-88069142D01*
X144477729Y-88069142D01*
X144526110Y-88093332D01*
X144550301Y-88117523D01*
X144574491Y-88165904D01*
X144574491Y-88311047D01*
X144550301Y-88359428D01*
X144526110Y-88383618D01*
X144477729Y-88407809D01*
X144405158Y-88407809D01*
X144792205Y-88407809D02*
X144792205Y-88069142D01*
X144792205Y-88165904D02*
X144816396Y-88117523D01*
X144840586Y-88093332D01*
X144888967Y-88069142D01*
X144937348Y-88069142D01*
X145106681Y-88214285D02*
X145493729Y-88214285D01*
X145711443Y-88262666D02*
X145953348Y-88262666D01*
X145663062Y-88407809D02*
X145832395Y-87899809D01*
X146001729Y-88407809D01*
X146437158Y-88407809D02*
X146146872Y-88407809D01*
X146292015Y-88407809D02*
X146292015Y-87899809D01*
X146243634Y-87972380D01*
X146195253Y-88020761D01*
X146146872Y-88044951D01*
X143259570Y-85519269D02*
X143259570Y-85011269D01*
X143428904Y-85374126D01*
X143598237Y-85011269D01*
X143598237Y-85519269D01*
X143912713Y-85519269D02*
X143864332Y-85495078D01*
X143840141Y-85470888D01*
X143815951Y-85422507D01*
X143815951Y-85277364D01*
X143840141Y-85228983D01*
X143864332Y-85204792D01*
X143912713Y-85180602D01*
X143985284Y-85180602D01*
X144033665Y-85204792D01*
X144057856Y-85228983D01*
X144082046Y-85277364D01*
X144082046Y-85422507D01*
X144057856Y-85470888D01*
X144033665Y-85495078D01*
X143985284Y-85519269D01*
X143912713Y-85519269D01*
X144227189Y-85180602D02*
X144420713Y-85180602D01*
X144299760Y-85011269D02*
X144299760Y-85446697D01*
X144323951Y-85495078D01*
X144372332Y-85519269D01*
X144420713Y-85519269D01*
X144662618Y-85519269D02*
X144614237Y-85495078D01*
X144590046Y-85470888D01*
X144565856Y-85422507D01*
X144565856Y-85277364D01*
X144590046Y-85228983D01*
X144614237Y-85204792D01*
X144662618Y-85180602D01*
X144735189Y-85180602D01*
X144783570Y-85204792D01*
X144807761Y-85228983D01*
X144831951Y-85277364D01*
X144831951Y-85422507D01*
X144807761Y-85470888D01*
X144783570Y-85495078D01*
X144735189Y-85519269D01*
X144662618Y-85519269D01*
X145049665Y-85519269D02*
X145049665Y-85180602D01*
X145049665Y-85277364D02*
X145073856Y-85228983D01*
X145098046Y-85204792D01*
X145146427Y-85180602D01*
X145194808Y-85180602D01*
X145364141Y-85325745D02*
X145751189Y-85325745D01*
X145968903Y-85374126D02*
X146210808Y-85374126D01*
X145920522Y-85519269D02*
X146089855Y-85011269D01*
X146259189Y-85519269D01*
X146404332Y-85059649D02*
X146428522Y-85035459D01*
X146476903Y-85011269D01*
X146597856Y-85011269D01*
X146646237Y-85035459D01*
X146670427Y-85059649D01*
X146694618Y-85108030D01*
X146694618Y-85156411D01*
X146670427Y-85228983D01*
X146380141Y-85519269D01*
X146694618Y-85519269D01*
X138804285Y-88430349D02*
X138804285Y-87922349D01*
X138973619Y-88285206D01*
X139142952Y-87922349D01*
X139142952Y-88430349D01*
X139457428Y-88430349D02*
X139409047Y-88406158D01*
X139384856Y-88381968D01*
X139360666Y-88333587D01*
X139360666Y-88188444D01*
X139384856Y-88140063D01*
X139409047Y-88115872D01*
X139457428Y-88091682D01*
X139529999Y-88091682D01*
X139578380Y-88115872D01*
X139602571Y-88140063D01*
X139626761Y-88188444D01*
X139626761Y-88333587D01*
X139602571Y-88381968D01*
X139578380Y-88406158D01*
X139529999Y-88430349D01*
X139457428Y-88430349D01*
X139771904Y-88091682D02*
X139965428Y-88091682D01*
X139844475Y-87922349D02*
X139844475Y-88357777D01*
X139868666Y-88406158D01*
X139917047Y-88430349D01*
X139965428Y-88430349D01*
X140207333Y-88430349D02*
X140158952Y-88406158D01*
X140134761Y-88381968D01*
X140110571Y-88333587D01*
X140110571Y-88188444D01*
X140134761Y-88140063D01*
X140158952Y-88115872D01*
X140207333Y-88091682D01*
X140279904Y-88091682D01*
X140328285Y-88115872D01*
X140352476Y-88140063D01*
X140376666Y-88188444D01*
X140376666Y-88333587D01*
X140352476Y-88381968D01*
X140328285Y-88406158D01*
X140279904Y-88430349D01*
X140207333Y-88430349D01*
X140594380Y-88430349D02*
X140594380Y-88091682D01*
X140594380Y-88188444D02*
X140618571Y-88140063D01*
X140642761Y-88115872D01*
X140691142Y-88091682D01*
X140739523Y-88091682D01*
X140908856Y-88236825D02*
X141295904Y-88236825D01*
X141707142Y-88164253D02*
X141779713Y-88188444D01*
X141803904Y-88212634D01*
X141828094Y-88261015D01*
X141828094Y-88333587D01*
X141803904Y-88381968D01*
X141779713Y-88406158D01*
X141731332Y-88430349D01*
X141537808Y-88430349D01*
X141537808Y-87922349D01*
X141707142Y-87922349D01*
X141755523Y-87946539D01*
X141779713Y-87970729D01*
X141803904Y-88019110D01*
X141803904Y-88067491D01*
X141779713Y-88115872D01*
X141755523Y-88140063D01*
X141707142Y-88164253D01*
X141537808Y-88164253D01*
X142311904Y-88430349D02*
X142021618Y-88430349D01*
X142166761Y-88430349D02*
X142166761Y-87922349D01*
X142118380Y-87994920D01*
X142069999Y-88043301D01*
X142021618Y-88067491D01*
X138934365Y-85478269D02*
X138934365Y-84970269D01*
X139103699Y-85333126D01*
X139273032Y-84970269D01*
X139273032Y-85478269D01*
X139587508Y-85478269D02*
X139539127Y-85454078D01*
X139514936Y-85429888D01*
X139490746Y-85381507D01*
X139490746Y-85236364D01*
X139514936Y-85187983D01*
X139539127Y-85163792D01*
X139587508Y-85139602D01*
X139660079Y-85139602D01*
X139708460Y-85163792D01*
X139732651Y-85187983D01*
X139756841Y-85236364D01*
X139756841Y-85381507D01*
X139732651Y-85429888D01*
X139708460Y-85454078D01*
X139660079Y-85478269D01*
X139587508Y-85478269D01*
X139901984Y-85139602D02*
X140095508Y-85139602D01*
X139974555Y-84970269D02*
X139974555Y-85405697D01*
X139998746Y-85454078D01*
X140047127Y-85478269D01*
X140095508Y-85478269D01*
X140337413Y-85478269D02*
X140289032Y-85454078D01*
X140264841Y-85429888D01*
X140240651Y-85381507D01*
X140240651Y-85236364D01*
X140264841Y-85187983D01*
X140289032Y-85163792D01*
X140337413Y-85139602D01*
X140409984Y-85139602D01*
X140458365Y-85163792D01*
X140482556Y-85187983D01*
X140506746Y-85236364D01*
X140506746Y-85381507D01*
X140482556Y-85429888D01*
X140458365Y-85454078D01*
X140409984Y-85478269D01*
X140337413Y-85478269D01*
X140724460Y-85478269D02*
X140724460Y-85139602D01*
X140724460Y-85236364D02*
X140748651Y-85187983D01*
X140772841Y-85163792D01*
X140821222Y-85139602D01*
X140869603Y-85139602D01*
X141038936Y-85284745D02*
X141425984Y-85284745D01*
X141837222Y-85212173D02*
X141909793Y-85236364D01*
X141933984Y-85260554D01*
X141958174Y-85308935D01*
X141958174Y-85381507D01*
X141933984Y-85429888D01*
X141909793Y-85454078D01*
X141861412Y-85478269D01*
X141667888Y-85478269D01*
X141667888Y-84970269D01*
X141837222Y-84970269D01*
X141885603Y-84994459D01*
X141909793Y-85018649D01*
X141933984Y-85067030D01*
X141933984Y-85115411D01*
X141909793Y-85163792D01*
X141885603Y-85187983D01*
X141837222Y-85212173D01*
X141667888Y-85212173D01*
X142151698Y-85018649D02*
X142175888Y-84994459D01*
X142224269Y-84970269D01*
X142345222Y-84970269D01*
X142393603Y-84994459D01*
X142417793Y-85018649D01*
X142441984Y-85067030D01*
X142441984Y-85115411D01*
X142417793Y-85187983D01*
X142127507Y-85478269D01*
X142441984Y-85478269D01*
X85110570Y-89129809D02*
X85110570Y-88621809D01*
X85231523Y-88621809D01*
X85304094Y-88645999D01*
X85352475Y-88694380D01*
X85376666Y-88742761D01*
X85400856Y-88839523D01*
X85400856Y-88912094D01*
X85376666Y-89008856D01*
X85352475Y-89057237D01*
X85304094Y-89105618D01*
X85231523Y-89129809D01*
X85110570Y-89129809D01*
X85618570Y-88936285D02*
X86005618Y-88936285D01*
X85812094Y-89129809D02*
X85812094Y-88742761D01*
X86513618Y-89129809D02*
X86223332Y-89129809D01*
X86368475Y-89129809D02*
X86368475Y-88621809D01*
X86320094Y-88694380D01*
X86271713Y-88742761D01*
X86223332Y-88766951D01*
X85110570Y-87029809D02*
X85110570Y-86521809D01*
X85231523Y-86521809D01*
X85304094Y-86545999D01*
X85352475Y-86594380D01*
X85376666Y-86642761D01*
X85400856Y-86739523D01*
X85400856Y-86812094D01*
X85376666Y-86908856D01*
X85352475Y-86957237D01*
X85304094Y-87005618D01*
X85231523Y-87029809D01*
X85110570Y-87029809D01*
X85618570Y-86836285D02*
X86005618Y-86836285D01*
X86513618Y-87029809D02*
X86223332Y-87029809D01*
X86368475Y-87029809D02*
X86368475Y-86521809D01*
X86320094Y-86594380D01*
X86271713Y-86642761D01*
X86223332Y-86666951D01*
X85270380Y-83821809D02*
X85270380Y-84233047D01*
X85294571Y-84281428D01*
X85318761Y-84305618D01*
X85367142Y-84329809D01*
X85463904Y-84329809D01*
X85512285Y-84305618D01*
X85536476Y-84281428D01*
X85560666Y-84233047D01*
X85560666Y-83821809D01*
X85778380Y-84305618D02*
X85826761Y-84329809D01*
X85923523Y-84329809D01*
X85971904Y-84305618D01*
X85996094Y-84257237D01*
X85996094Y-84233047D01*
X85971904Y-84184666D01*
X85923523Y-84160475D01*
X85850951Y-84160475D01*
X85802570Y-84136285D01*
X85778380Y-84087904D01*
X85778380Y-84063713D01*
X85802570Y-84015332D01*
X85850951Y-83991142D01*
X85923523Y-83991142D01*
X85971904Y-84015332D01*
X86213808Y-84329809D02*
X86213808Y-83821809D01*
X86213808Y-84015332D02*
X86262189Y-83991142D01*
X86358951Y-83991142D01*
X86407332Y-84015332D01*
X86431523Y-84039523D01*
X86455713Y-84087904D01*
X86455713Y-84233047D01*
X86431523Y-84281428D01*
X86407332Y-84305618D01*
X86358951Y-84329809D01*
X86262189Y-84329809D01*
X86213808Y-84305618D01*
X86552475Y-84378189D02*
X86939523Y-84378189D01*
X87326571Y-83845999D02*
X87278190Y-83821809D01*
X87205618Y-83821809D01*
X87133047Y-83845999D01*
X87084666Y-83894380D01*
X87060475Y-83942761D01*
X87036285Y-84039523D01*
X87036285Y-84112094D01*
X87060475Y-84208856D01*
X87084666Y-84257237D01*
X87133047Y-84305618D01*
X87205618Y-84329809D01*
X87253999Y-84329809D01*
X87326571Y-84305618D01*
X87350761Y-84281428D01*
X87350761Y-84112094D01*
X87253999Y-84112094D01*
X87568475Y-83991142D02*
X87568475Y-84329809D01*
X87568475Y-84039523D02*
X87592666Y-84015332D01*
X87641047Y-83991142D01*
X87713618Y-83991142D01*
X87761999Y-84015332D01*
X87786190Y-84063713D01*
X87786190Y-84329809D01*
X88245809Y-84329809D02*
X88245809Y-83821809D01*
X88245809Y-84305618D02*
X88197428Y-84329809D01*
X88100666Y-84329809D01*
X88052285Y-84305618D01*
X88028094Y-84281428D01*
X88003904Y-84233047D01*
X88003904Y-84087904D01*
X88028094Y-84039523D01*
X88052285Y-84015332D01*
X88100666Y-83991142D01*
X88197428Y-83991142D01*
X88245809Y-84015332D01*
X88753809Y-84329809D02*
X88463523Y-84329809D01*
X88608666Y-84329809D02*
X88608666Y-83821809D01*
X88560285Y-83894380D01*
X88511904Y-83942761D01*
X88463523Y-83966951D01*
X85199332Y-91021809D02*
X85368665Y-91529809D01*
X85537999Y-91021809D01*
X85876666Y-91263713D02*
X85949237Y-91287904D01*
X85973428Y-91312094D01*
X85997618Y-91360475D01*
X85997618Y-91433047D01*
X85973428Y-91481428D01*
X85949237Y-91505618D01*
X85900856Y-91529809D01*
X85707332Y-91529809D01*
X85707332Y-91021809D01*
X85876666Y-91021809D01*
X85925047Y-91045999D01*
X85949237Y-91070189D01*
X85973428Y-91118570D01*
X85973428Y-91166951D01*
X85949237Y-91215332D01*
X85925047Y-91239523D01*
X85876666Y-91263713D01*
X85707332Y-91263713D01*
X86433047Y-91191142D02*
X86433047Y-91529809D01*
X86215332Y-91191142D02*
X86215332Y-91457237D01*
X86239523Y-91505618D01*
X86287904Y-91529809D01*
X86360475Y-91529809D01*
X86408856Y-91505618D01*
X86433047Y-91481428D01*
X86650761Y-91505618D02*
X86699142Y-91529809D01*
X86795904Y-91529809D01*
X86844285Y-91505618D01*
X86868475Y-91457237D01*
X86868475Y-91433047D01*
X86844285Y-91384666D01*
X86795904Y-91360475D01*
X86723332Y-91360475D01*
X86674951Y-91336285D01*
X86650761Y-91287904D01*
X86650761Y-91263713D01*
X86674951Y-91215332D01*
X86723332Y-91191142D01*
X86795904Y-91191142D01*
X86844285Y-91215332D01*
X87352285Y-91529809D02*
X87061999Y-91529809D01*
X87207142Y-91529809D02*
X87207142Y-91021809D01*
X87158761Y-91094380D01*
X87110380Y-91142761D01*
X87061999Y-91166951D01*
D19*
X127526361Y-121321671D02*
X127288085Y-121488465D01*
X127526361Y-121607603D02*
X127025981Y-121607603D01*
X127025981Y-121416982D01*
X127049809Y-121369327D01*
X127073637Y-121345499D01*
X127121292Y-121321671D01*
X127192775Y-121321671D01*
X127240430Y-121345499D01*
X127264258Y-121369327D01*
X127288085Y-121416982D01*
X127288085Y-121607603D01*
X127526361Y-120845119D02*
X127526361Y-121131051D01*
X127526361Y-120988085D02*
X127025981Y-120988085D01*
X127097464Y-121035740D01*
X127145119Y-121083395D01*
X127168947Y-121131051D01*
X127240430Y-120559188D02*
X127216602Y-120606843D01*
X127192775Y-120630671D01*
X127145119Y-120654499D01*
X127121292Y-120654499D01*
X127073637Y-120630671D01*
X127049809Y-120606843D01*
X127025981Y-120559188D01*
X127025981Y-120463878D01*
X127049809Y-120416222D01*
X127073637Y-120392395D01*
X127121292Y-120368567D01*
X127145119Y-120368567D01*
X127192775Y-120392395D01*
X127216602Y-120416222D01*
X127240430Y-120463878D01*
X127240430Y-120559188D01*
X127264258Y-120606843D01*
X127288085Y-120630671D01*
X127335740Y-120654499D01*
X127431051Y-120654499D01*
X127478706Y-120630671D01*
X127502534Y-120606843D01*
X127526361Y-120559188D01*
X127526361Y-120463878D01*
X127502534Y-120416222D01*
X127478706Y-120392395D01*
X127431051Y-120368567D01*
X127335740Y-120368567D01*
X127288085Y-120392395D01*
X127264258Y-120416222D01*
X127240430Y-120463878D01*
X127926361Y-118945499D02*
X127926361Y-119231431D01*
X127926361Y-119088465D02*
X127425981Y-119088465D01*
X127497464Y-119136120D01*
X127545119Y-119183775D01*
X127568947Y-119231431D01*
X127425981Y-118635740D02*
X127425981Y-118588085D01*
X127449809Y-118540430D01*
X127473637Y-118516602D01*
X127521292Y-118492775D01*
X127616602Y-118468947D01*
X127735740Y-118468947D01*
X127831051Y-118492775D01*
X127878706Y-118516602D01*
X127902534Y-118540430D01*
X127926361Y-118588085D01*
X127926361Y-118635740D01*
X127902534Y-118683396D01*
X127878706Y-118707223D01*
X127831051Y-118731051D01*
X127735740Y-118754879D01*
X127616602Y-118754879D01*
X127521292Y-118731051D01*
X127473637Y-118707223D01*
X127449809Y-118683396D01*
X127425981Y-118635740D01*
X127926361Y-118254499D02*
X127425981Y-118254499D01*
X127926361Y-117968567D02*
X127640430Y-118183016D01*
X127425981Y-117968567D02*
X127711913Y-118254499D01*
X106830671Y-76726361D02*
X106830671Y-76225981D01*
X106949809Y-76225981D01*
X107021292Y-76249809D01*
X107068947Y-76297464D01*
X107092775Y-76345119D01*
X107116603Y-76440430D01*
X107116603Y-76511913D01*
X107092775Y-76607223D01*
X107068947Y-76654879D01*
X107021292Y-76702534D01*
X106949809Y-76726361D01*
X106830671Y-76726361D01*
X107283396Y-76225981D02*
X107593155Y-76225981D01*
X107426362Y-76416602D01*
X107497844Y-76416602D01*
X107545500Y-76440430D01*
X107569327Y-76464258D01*
X107593155Y-76511913D01*
X107593155Y-76631051D01*
X107569327Y-76678706D01*
X107545500Y-76702534D01*
X107497844Y-76726361D01*
X107354879Y-76726361D01*
X107307223Y-76702534D01*
X107283396Y-76678706D01*
X111678326Y-76826361D02*
X111440050Y-76826361D01*
X111440050Y-76325981D01*
X111845120Y-76564258D02*
X112011913Y-76564258D01*
X112083396Y-76826361D02*
X111845120Y-76826361D01*
X111845120Y-76325981D01*
X112083396Y-76325981D01*
X112297845Y-76826361D02*
X112297845Y-76325981D01*
X112416983Y-76325981D01*
X112488466Y-76349809D01*
X112536121Y-76397464D01*
X112559949Y-76445119D01*
X112583777Y-76540430D01*
X112583777Y-76611913D01*
X112559949Y-76707223D01*
X112536121Y-76754879D01*
X112488466Y-76802534D01*
X112416983Y-76826361D01*
X112297845Y-76826361D01*
X100630671Y-119926361D02*
X100630671Y-119425981D01*
X100749809Y-119425981D01*
X100821292Y-119449809D01*
X100868947Y-119497464D01*
X100892775Y-119545119D01*
X100916603Y-119640430D01*
X100916603Y-119711913D01*
X100892775Y-119807223D01*
X100868947Y-119854879D01*
X100821292Y-119902534D01*
X100749809Y-119926361D01*
X100630671Y-119926361D01*
X101345500Y-119592775D02*
X101345500Y-119926361D01*
X101226362Y-119402154D02*
X101107223Y-119759568D01*
X101416983Y-119759568D01*
X106078326Y-119926361D02*
X105840050Y-119926361D01*
X105840050Y-119425981D01*
X106245120Y-119664258D02*
X106411913Y-119664258D01*
X106483396Y-119926361D02*
X106245120Y-119926361D01*
X106245120Y-119425981D01*
X106483396Y-119425981D01*
X106697845Y-119926361D02*
X106697845Y-119425981D01*
X106816983Y-119425981D01*
X106888466Y-119449809D01*
X106936121Y-119497464D01*
X106959949Y-119545119D01*
X106983777Y-119640430D01*
X106983777Y-119711913D01*
X106959949Y-119807223D01*
X106936121Y-119854879D01*
X106888466Y-119902534D01*
X106816983Y-119926361D01*
X106697845Y-119926361D01*
X112126361Y-80021671D02*
X111888085Y-80188465D01*
X112126361Y-80307603D02*
X111625981Y-80307603D01*
X111625981Y-80116982D01*
X111649809Y-80069327D01*
X111673637Y-80045499D01*
X111721292Y-80021671D01*
X111792775Y-80021671D01*
X111840430Y-80045499D01*
X111864258Y-80069327D01*
X111888085Y-80116982D01*
X111888085Y-80307603D01*
X112126361Y-79545119D02*
X112126361Y-79831051D01*
X112126361Y-79688085D02*
X111625981Y-79688085D01*
X111697464Y-79735740D01*
X111745119Y-79783395D01*
X111768947Y-79831051D01*
X112126361Y-79306843D02*
X112126361Y-79211533D01*
X112102534Y-79163878D01*
X112078706Y-79140050D01*
X112007223Y-79092395D01*
X111911913Y-79068567D01*
X111721292Y-79068567D01*
X111673637Y-79092395D01*
X111649809Y-79116222D01*
X111625981Y-79163878D01*
X111625981Y-79259188D01*
X111649809Y-79306843D01*
X111673637Y-79330671D01*
X111721292Y-79354499D01*
X111840430Y-79354499D01*
X111888085Y-79330671D01*
X111911913Y-79306843D01*
X111935740Y-79259188D01*
X111935740Y-79163878D01*
X111911913Y-79116222D01*
X111888085Y-79092395D01*
X111840430Y-79068567D01*
X109025981Y-80307603D02*
X109025981Y-80545879D01*
X109264258Y-80569707D01*
X109240430Y-80545879D01*
X109216602Y-80498224D01*
X109216602Y-80379086D01*
X109240430Y-80331430D01*
X109264258Y-80307603D01*
X109311913Y-80283775D01*
X109431051Y-80283775D01*
X109478706Y-80307603D01*
X109502534Y-80331430D01*
X109526361Y-80379086D01*
X109526361Y-80498224D01*
X109502534Y-80545879D01*
X109478706Y-80569707D01*
X109025981Y-79974016D02*
X109025981Y-79926361D01*
X109049809Y-79878706D01*
X109073637Y-79854878D01*
X109121292Y-79831051D01*
X109216602Y-79807223D01*
X109335740Y-79807223D01*
X109431051Y-79831051D01*
X109478706Y-79854878D01*
X109502534Y-79878706D01*
X109526361Y-79926361D01*
X109526361Y-79974016D01*
X109502534Y-80021672D01*
X109478706Y-80045499D01*
X109431051Y-80069327D01*
X109335740Y-80093155D01*
X109216602Y-80093155D01*
X109121292Y-80069327D01*
X109073637Y-80045499D01*
X109049809Y-80021672D01*
X109025981Y-79974016D01*
X109025981Y-79497464D02*
X109025981Y-79449809D01*
X109049809Y-79402154D01*
X109073637Y-79378326D01*
X109121292Y-79354499D01*
X109216602Y-79330671D01*
X109335740Y-79330671D01*
X109431051Y-79354499D01*
X109478706Y-79378326D01*
X109502534Y-79402154D01*
X109526361Y-79449809D01*
X109526361Y-79497464D01*
X109502534Y-79545120D01*
X109478706Y-79568947D01*
X109431051Y-79592775D01*
X109335740Y-79616603D01*
X109216602Y-79616603D01*
X109121292Y-79592775D01*
X109073637Y-79568947D01*
X109049809Y-79545120D01*
X109025981Y-79497464D01*
X109526361Y-78830291D02*
X109288085Y-78997085D01*
X109526361Y-79116223D02*
X109025981Y-79116223D01*
X109025981Y-78925602D01*
X109049809Y-78877947D01*
X109073637Y-78854119D01*
X109121292Y-78830291D01*
X109192775Y-78830291D01*
X109240430Y-78854119D01*
X109264258Y-78877947D01*
X109288085Y-78925602D01*
X109288085Y-79116223D01*
X100578327Y-122626361D02*
X100411533Y-122388085D01*
X100292395Y-122626361D02*
X100292395Y-122125981D01*
X100483016Y-122125981D01*
X100530671Y-122149809D01*
X100554499Y-122173637D01*
X100578327Y-122221292D01*
X100578327Y-122292775D01*
X100554499Y-122340430D01*
X100530671Y-122364258D01*
X100483016Y-122388085D01*
X100292395Y-122388085D01*
X100768947Y-122173637D02*
X100792775Y-122149809D01*
X100840430Y-122125981D01*
X100959568Y-122125981D01*
X101007224Y-122149809D01*
X101031051Y-122173637D01*
X101054879Y-122221292D01*
X101054879Y-122268947D01*
X101031051Y-122340430D01*
X100745120Y-122626361D01*
X101054879Y-122626361D01*
X101364638Y-122125981D02*
X101412293Y-122125981D01*
X101459948Y-122149809D01*
X101483776Y-122173637D01*
X101507603Y-122221292D01*
X101531431Y-122316602D01*
X101531431Y-122435740D01*
X101507603Y-122531051D01*
X101483776Y-122578706D01*
X101459948Y-122602534D01*
X101412293Y-122626361D01*
X101364638Y-122626361D01*
X101316982Y-122602534D01*
X101293155Y-122578706D01*
X101269327Y-122531051D01*
X101245499Y-122435740D01*
X101245499Y-122316602D01*
X101269327Y-122221292D01*
X101293155Y-122173637D01*
X101316982Y-122149809D01*
X101364638Y-122125981D01*
X106192395Y-122025981D02*
X105954119Y-122025981D01*
X105930291Y-122264258D01*
X105954119Y-122240430D01*
X106001774Y-122216602D01*
X106120912Y-122216602D01*
X106168568Y-122240430D01*
X106192395Y-122264258D01*
X106216223Y-122311913D01*
X106216223Y-122431051D01*
X106192395Y-122478706D01*
X106168568Y-122502534D01*
X106120912Y-122526361D01*
X106001774Y-122526361D01*
X105954119Y-122502534D01*
X105930291Y-122478706D01*
X106525982Y-122025981D02*
X106573637Y-122025981D01*
X106621292Y-122049809D01*
X106645120Y-122073637D01*
X106668947Y-122121292D01*
X106692775Y-122216602D01*
X106692775Y-122335740D01*
X106668947Y-122431051D01*
X106645120Y-122478706D01*
X106621292Y-122502534D01*
X106573637Y-122526361D01*
X106525982Y-122526361D01*
X106478326Y-122502534D01*
X106454499Y-122478706D01*
X106430671Y-122431051D01*
X106406843Y-122335740D01*
X106406843Y-122216602D01*
X106430671Y-122121292D01*
X106454499Y-122073637D01*
X106478326Y-122049809D01*
X106525982Y-122025981D01*
X107002534Y-122025981D02*
X107050189Y-122025981D01*
X107097844Y-122049809D01*
X107121672Y-122073637D01*
X107145499Y-122121292D01*
X107169327Y-122216602D01*
X107169327Y-122335740D01*
X107145499Y-122431051D01*
X107121672Y-122478706D01*
X107097844Y-122502534D01*
X107050189Y-122526361D01*
X107002534Y-122526361D01*
X106954878Y-122502534D01*
X106931051Y-122478706D01*
X106907223Y-122431051D01*
X106883395Y-122335740D01*
X106883395Y-122216602D01*
X106907223Y-122121292D01*
X106931051Y-122073637D01*
X106954878Y-122049809D01*
X107002534Y-122025981D01*
X107669707Y-122526361D02*
X107502913Y-122288085D01*
X107383775Y-122526361D02*
X107383775Y-122025981D01*
X107574396Y-122025981D01*
X107622051Y-122049809D01*
X107645879Y-122073637D01*
X107669707Y-122121292D01*
X107669707Y-122192775D01*
X107645879Y-122240430D01*
X107622051Y-122264258D01*
X107574396Y-122288085D01*
X107383775Y-122288085D01*
X112378327Y-81778706D02*
X112354499Y-81802534D01*
X112283016Y-81826361D01*
X112235361Y-81826361D01*
X112163878Y-81802534D01*
X112116223Y-81754879D01*
X112092395Y-81707223D01*
X112068567Y-81611913D01*
X112068567Y-81540430D01*
X112092395Y-81445119D01*
X112116223Y-81397464D01*
X112163878Y-81349809D01*
X112235361Y-81325981D01*
X112283016Y-81325981D01*
X112354499Y-81349809D01*
X112378327Y-81373637D01*
X112854879Y-81826361D02*
X112568947Y-81826361D01*
X112711913Y-81826361D02*
X112711913Y-81325981D01*
X112664258Y-81397464D01*
X112616603Y-81445119D01*
X112568947Y-81468947D01*
X113283776Y-81325981D02*
X113188465Y-81325981D01*
X113140810Y-81349809D01*
X113116982Y-81373637D01*
X113069327Y-81445119D01*
X113045499Y-81540430D01*
X113045499Y-81731051D01*
X113069327Y-81778706D01*
X113093155Y-81802534D01*
X113140810Y-81826361D01*
X113236120Y-81826361D01*
X113283776Y-81802534D01*
X113307603Y-81778706D01*
X113331431Y-81731051D01*
X113331431Y-81611913D01*
X113307603Y-81564258D01*
X113283776Y-81540430D01*
X113236120Y-81516602D01*
X113140810Y-81516602D01*
X113093155Y-81540430D01*
X113069327Y-81564258D01*
X113045499Y-81611913D01*
X116792395Y-81878706D02*
X116816223Y-81902534D01*
X116792395Y-81926361D01*
X116768567Y-81902534D01*
X116792395Y-81878706D01*
X116792395Y-81926361D01*
X117292775Y-81926361D02*
X117006843Y-81926361D01*
X117149809Y-81926361D02*
X117149809Y-81425981D01*
X117102154Y-81497464D01*
X117054499Y-81545119D01*
X117006843Y-81568947D01*
X117721672Y-81592775D02*
X117721672Y-81926361D01*
X117507223Y-81592775D02*
X117507223Y-81854879D01*
X117531051Y-81902534D01*
X117578706Y-81926361D01*
X117650189Y-81926361D01*
X117697844Y-81902534D01*
X117721672Y-81878706D01*
X117888465Y-81592775D02*
X118079086Y-81592775D01*
X117959948Y-81926361D02*
X117959948Y-81497464D01*
X117983776Y-81449809D01*
X118031431Y-81425981D01*
X118079086Y-81425981D01*
D12*
X92067999Y-121426856D02*
X92285713Y-121499428D01*
X92648570Y-121499428D01*
X92793713Y-121426856D01*
X92866284Y-121354285D01*
X92938856Y-121209142D01*
X92938856Y-121063999D01*
X92866284Y-120918856D01*
X92793713Y-120846285D01*
X92648570Y-120773713D01*
X92358284Y-120701142D01*
X92213142Y-120628570D01*
X92140570Y-120555999D01*
X92067999Y-120410856D01*
X92067999Y-120265713D01*
X92140570Y-120120570D01*
X92213142Y-120047999D01*
X92358284Y-119975428D01*
X92721142Y-119975428D01*
X92938856Y-120047999D01*
X93446856Y-119975428D02*
X93809713Y-121499428D01*
X94099999Y-120410856D01*
X94390285Y-121499428D01*
X94753142Y-119975428D01*
X96131999Y-121499428D02*
X95261142Y-121499428D01*
X95696570Y-121499428D02*
X95696570Y-119975428D01*
X95551427Y-120193142D01*
X95406285Y-120338285D01*
X95261142Y-120410856D01*
X133716856Y-82731999D02*
X133789428Y-82514285D01*
X133789428Y-82151428D01*
X133716856Y-82006285D01*
X133644285Y-81933714D01*
X133499142Y-81861142D01*
X133353999Y-81861142D01*
X133208856Y-81933714D01*
X133136285Y-82006285D01*
X133063713Y-82151428D01*
X132991142Y-82441714D01*
X132918570Y-82586856D01*
X132845999Y-82659428D01*
X132700856Y-82731999D01*
X132555713Y-82731999D01*
X132410570Y-82659428D01*
X132337999Y-82586856D01*
X132265428Y-82441714D01*
X132265428Y-82078856D01*
X132337999Y-81861142D01*
X132265428Y-81353142D02*
X133789428Y-80990285D01*
X132700856Y-80699999D01*
X133789428Y-80409713D01*
X132265428Y-80046856D01*
X132410570Y-79538856D02*
X132337999Y-79466285D01*
X132265428Y-79321142D01*
X132265428Y-78958285D01*
X132337999Y-78813142D01*
X132410570Y-78740571D01*
X132555713Y-78667999D01*
X132700856Y-78667999D01*
X132918570Y-78740571D01*
X133789428Y-79611428D01*
X133789428Y-78667999D01*
X121667999Y-79516856D02*
X121885713Y-79589428D01*
X122248570Y-79589428D01*
X122393713Y-79516856D01*
X122466284Y-79444285D01*
X122538856Y-79299142D01*
X122538856Y-79153999D01*
X122466284Y-79008856D01*
X122393713Y-78936285D01*
X122248570Y-78863713D01*
X121958284Y-78791142D01*
X121813142Y-78718570D01*
X121740570Y-78645999D01*
X121667999Y-78500856D01*
X121667999Y-78355713D01*
X121740570Y-78210570D01*
X121813142Y-78137999D01*
X121958284Y-78065428D01*
X122321142Y-78065428D01*
X122538856Y-78137999D01*
X123046856Y-78065428D02*
X123409713Y-79589428D01*
X123699999Y-78500856D01*
X123990285Y-79589428D01*
X124353142Y-78065428D01*
X124788570Y-78065428D02*
X125731999Y-78065428D01*
X125223999Y-78645999D01*
X125441713Y-78645999D01*
X125586856Y-78718570D01*
X125659427Y-78791142D01*
X125731999Y-78936285D01*
X125731999Y-79299142D01*
X125659427Y-79444285D01*
X125586856Y-79516856D01*
X125441713Y-79589428D01*
X125006285Y-79589428D01*
X124861142Y-79516856D01*
X124788570Y-79444285D01*
X132367999Y-121616856D02*
X132585713Y-121689428D01*
X132948570Y-121689428D01*
X133093713Y-121616856D01*
X133166284Y-121544285D01*
X133238856Y-121399142D01*
X133238856Y-121253999D01*
X133166284Y-121108856D01*
X133093713Y-121036285D01*
X132948570Y-120963713D01*
X132658284Y-120891142D01*
X132513142Y-120818570D01*
X132440570Y-120745999D01*
X132367999Y-120600856D01*
X132367999Y-120455713D01*
X132440570Y-120310570D01*
X132513142Y-120237999D01*
X132658284Y-120165428D01*
X133021142Y-120165428D01*
X133238856Y-120237999D01*
X133746856Y-120165428D02*
X134109713Y-121689428D01*
X134399999Y-120600856D01*
X134690285Y-121689428D01*
X135053142Y-120165428D01*
X136286856Y-120673428D02*
X136286856Y-121689428D01*
X135923999Y-120092856D02*
X135561142Y-121181428D01*
X136504570Y-121181428D01*
M02*
