M48
;DRILL file {kicad (2014-jan-25)-product} date Wed 09 Jul 2014 20:04:38 EST
;FORMAT={-:-/ absolute / metric / decimal}
FMAT,2
METRIC,TZ
T1C0.400
T2C0.635
T3C3.048
T4C3.500
%
G90
G05
M71
T1
X94.7Y-95.4
X96.3Y-94.4
X97.72Y-84.92
X99.4Y-105.1
X99.5Y-96.7
X99.6Y-93.5
X100.6Y-92.5
X101.9Y-83.2
X101.9Y-85.8
X102.Y-90.8
X106.6Y-101.4
X106.934Y-123.063
X108.9Y-81.6
X111.9Y-101.5
X113.2Y-76.4
X113.585Y-100.474
X114.4Y-99.6
X115.7Y-84.5
X116.Y-76.3
X116.242Y-98.164
X116.756Y-77.511
X117.7Y-96.6
X120.1Y-108.5
X120.3Y-90.
X120.7Y-93.1
X120.777Y-104.394
X120.8Y-96.2
X121.9Y-87.625
X122.809Y-102.235
X122.9Y-90.
X123.Y-96.4
X124.2Y-121.3
X124.9Y-86.8
X126.4Y-121.
X129.7Y-78.9
X134.9Y-80.4
X138.303Y-102.616
X140.335Y-109.474
X142.748Y-115.951
X145.87Y-92.6
T2
X83.82Y-86.868
X83.947Y-84.074
X83.947Y-88.9
X83.947Y-91.313
X140.789Y-83.895
X140.789Y-86.555
X144.662Y-83.875
X144.662Y-86.815
T3
X77.Y-101.
X87.Y-101.
T4
X75.Y-80.
X75.Y-120.
X165.Y-80.
X165.Y-120.
T0
M30
