%FSLAX46Y46*%
G04 Gerber Fmt 4.6, Leading zero omitted, Abs format (unit mm)*
G04 Created by KiCad (PCBNEW (2014-jan-25)-product) date Mon 14 Jul 2014 14:08:30 EST*
%MOMM*%
G01*
G04 APERTURE LIST*
%ADD10C,0.150000*%
%ADD11C,4.064000*%
%ADD12C,1.143000*%
%ADD13C,0.889000*%
%ADD14C,2.500000*%
%ADD15C,0.254000*%
%ADD16C,1.800000*%
G04 APERTURE END LIST*
D10*
D11*
X76999999Y-100999999D03*
X86999999Y-100999999D03*
D12*
X144661999Y-86814999D03*
X144661999Y-83874999D03*
X140788999Y-86554999D03*
X140788999Y-83894999D03*
X83819999Y-88899999D03*
X83819999Y-86994999D03*
X83819999Y-85089999D03*
X83819999Y-90804999D03*
D13*
X120699999Y-93099999D03*
X101999999Y-90799999D03*
X115699999Y-84499999D03*
X101899999Y-83199999D03*
X101899999Y-85799999D03*
X106599999Y-121599999D03*
X120099999Y-108499999D03*
X120776999Y-104393999D03*
X122808999Y-102234999D03*
X142747999Y-115950999D03*
X140334999Y-109473999D03*
X138302999Y-102615999D03*
X99399999Y-105099999D03*
D14*
X147599999Y-122499999D03*
X92999999Y-122099999D03*
D13*
X134899999Y-80399999D03*
X129699999Y-78899999D03*
X111899999Y-101499999D03*
X106599999Y-101399999D03*
X120299999Y-89999999D03*
X145869509Y-92599999D03*
X99599999Y-93499999D03*
X113584749Y-100473749D03*
X114399999Y-99599999D03*
X100599999Y-92499999D03*
X122899999Y-90000008D03*
X121899999Y-87625119D03*
X122999999Y-96399999D03*
X124199999Y-121299999D03*
X96299999Y-94399999D03*
X138683999Y-112140999D03*
X113199999Y-76399999D03*
X108899999Y-81599999D03*
X115999999Y-76299999D03*
X116756131Y-77511329D03*
X99499999Y-96699999D03*
X117699999Y-96599999D03*
X120799999Y-96199999D03*
X94699999Y-95399999D03*
X124899999Y-86799999D03*
X97719999Y-84919999D03*
X126399999Y-120999999D03*
X116241949Y-98164033D03*
D15*
X118564392Y-90964392D02*
X120699999Y-93099999D01*
X106199999Y-90799999D02*
X106199999Y-90964392D01*
X106199999Y-90964392D02*
X118564392Y-90964392D01*
X107837698Y-89162300D02*
X106199999Y-90799999D01*
X106199999Y-90799999D02*
X101999999Y-90799999D01*
X107837698Y-85699999D02*
X114499999Y-85699999D01*
X105699999Y-85699999D02*
X107837698Y-85699999D01*
X107837698Y-85699999D02*
X107837698Y-89162300D01*
X114499999Y-85699999D02*
X115699999Y-84499999D01*
X103199999Y-83199999D02*
X105699999Y-85699999D01*
X101899999Y-83199999D02*
X103199999Y-83199999D01*
X101899999Y-85799999D02*
X101899999Y-83199999D01*
X83946999Y-94614999D02*
X76834999Y-101726999D01*
X83946999Y-91312999D02*
X83946999Y-94614999D01*
X76834999Y-104266999D02*
X82422999Y-109854999D01*
X82422999Y-109854999D02*
X99440999Y-109854999D01*
X76834999Y-101726999D02*
X76834999Y-104266999D01*
X99440999Y-115569999D02*
X106599999Y-121599999D01*
X99440999Y-109899999D02*
X99440999Y-115569999D01*
X99440999Y-109854999D02*
X99440999Y-109899999D01*
X119697499Y-116014499D02*
X120199999Y-113999995D01*
X114099999Y-121599999D02*
X119697499Y-116014499D01*
X120199999Y-113999995D02*
X120199940Y-112597561D01*
X120199940Y-112597561D02*
X120099999Y-108499999D01*
X106599999Y-121599999D02*
X114099999Y-121599999D01*
X119999999Y-106199999D02*
X120776999Y-104393999D01*
X120099999Y-108499999D02*
X119999999Y-106199999D01*
X122808999Y-102361999D02*
X122808999Y-102234999D01*
X120776999Y-104393999D02*
X122808999Y-102361999D01*
X142747999Y-111886999D02*
X140334999Y-109473999D01*
X142747999Y-115950999D02*
X142747999Y-111886999D01*
X140334999Y-104647999D02*
X138302999Y-102615999D01*
X140334999Y-109473999D02*
X140334999Y-104647999D01*
X99440999Y-105140999D02*
X99399999Y-105099999D01*
X99440999Y-109899999D02*
X99440999Y-105140999D01*
X133199999Y-84499999D02*
X136199999Y-81499999D01*
X136199999Y-81499999D02*
X148199999Y-81499999D01*
X148199999Y-81499999D02*
X153599999Y-86899999D01*
X153599999Y-86899999D02*
X153599999Y-110899999D01*
X153599999Y-110899999D02*
X148548999Y-115950999D01*
X148548999Y-115950999D02*
X142747999Y-115950999D01*
X115699999Y-84499999D02*
X133199999Y-84499999D01*
D16*
X146599999Y-123499999D02*
X147599999Y-122499999D01*
X94399999Y-123499999D02*
X146599999Y-123499999D01*
X92999999Y-122099999D02*
X94399999Y-123499999D01*
D15*
X134899999Y-80399999D02*
X133399999Y-78899999D01*
X133399999Y-78899999D02*
X129699999Y-78899999D01*
X111899999Y-101499999D02*
X111799999Y-101399999D01*
X111799999Y-101399999D02*
X106599999Y-101399999D01*
X120299999Y-90036867D02*
X120299999Y-89999999D01*
X124771141Y-94508009D02*
X120299999Y-90036867D01*
X143961499Y-94508009D02*
X124771141Y-94508009D01*
X145869509Y-92599999D02*
X143961499Y-94508009D01*
X106455315Y-100473749D02*
X113584749Y-100473749D01*
X99599999Y-93499999D02*
X99599999Y-93618433D01*
X99599999Y-93618433D02*
X106455315Y-100473749D01*
X114399999Y-99599999D02*
X114399999Y-99599999D01*
X114399999Y-99599999D02*
X106599999Y-99599999D01*
X106599999Y-99599999D02*
X100599999Y-93599999D01*
X100599999Y-93599999D02*
X100599999Y-92499999D01*
X121899999Y-89000008D02*
X121899999Y-87599999D01*
X122899999Y-90000008D02*
X121899999Y-89000008D01*
X127499999Y-96599999D02*
X122999999Y-96599999D01*
X137099999Y-106199999D02*
X127499999Y-96599999D01*
X137099999Y-117699999D02*
X137099999Y-106199999D01*
X132899999Y-121899999D02*
X137099999Y-117699999D01*
X124799999Y-121899999D02*
X132899999Y-121899999D01*
X124199999Y-121299999D02*
X124799999Y-121899999D01*
X122999999Y-96599999D02*
X122999999Y-96399999D01*
X96299999Y-93818999D02*
X96299999Y-94399999D01*
X98475799Y-91643199D02*
X96299999Y-93818999D01*
X101041199Y-91643199D02*
X98475799Y-91643199D01*
X101041199Y-91643199D02*
X101041199Y-91643199D01*
X117424199Y-91643199D02*
X101041199Y-91643199D01*
X121284999Y-95503999D02*
X117424199Y-91643199D01*
X127634999Y-95503999D02*
X121284999Y-95503999D01*
X137794999Y-105663999D02*
X127634999Y-95503999D01*
X137794999Y-111251999D02*
X137794999Y-105663999D01*
X138683999Y-112140999D02*
X137794999Y-111251999D01*
X126399999Y-120999999D02*
X126699999Y-121299999D01*
X126699999Y-121299999D02*
X132299999Y-121299999D01*
X132299999Y-121299999D02*
X136399999Y-117199999D01*
X136399999Y-117199999D02*
X136399999Y-106499999D01*
X136399999Y-106499999D02*
X128064033Y-98164033D01*
X128064033Y-98164033D02*
X116241949Y-98164033D01*
G36*
X169289999Y-114491999D02*
X159491999Y-114491999D01*
X159491999Y-124289999D01*
X148204010Y-124289999D01*
X148666371Y-124098956D01*
X149197092Y-123569160D01*
X149484671Y-122876594D01*
X149485325Y-122126694D01*
X149198956Y-121433627D01*
X148669160Y-120902906D01*
X147976594Y-120615327D01*
X147226694Y-120614673D01*
X146533627Y-120901042D01*
X146002906Y-121430838D01*
X145781102Y-121964999D01*
X133912629Y-121964999D01*
X137638814Y-118238814D01*
X137803995Y-117991604D01*
X137803995Y-117991603D01*
X137861999Y-117699999D01*
X137861999Y-112845540D01*
X138071713Y-113055621D01*
X138468331Y-113220312D01*
X138897783Y-113220686D01*
X139294688Y-113056688D01*
X139598621Y-112753285D01*
X139763312Y-112356667D01*
X139763686Y-111927215D01*
X139599688Y-111530310D01*
X139296285Y-111226377D01*
X138899667Y-111061686D01*
X138682126Y-111061496D01*
X138556999Y-110936369D01*
X138556999Y-105663999D01*
X138498995Y-105372395D01*
X138498995Y-105372394D01*
X138432833Y-105273375D01*
X138333815Y-105125184D01*
X128478639Y-95270009D01*
X143961499Y-95270009D01*
X143961499Y-95270008D01*
X144253103Y-95212005D01*
X144253104Y-95212005D01*
X144500314Y-95046824D01*
X145867640Y-93679498D01*
X146083293Y-93679686D01*
X146480198Y-93515688D01*
X146784131Y-93212285D01*
X146948822Y-92815667D01*
X146949196Y-92386215D01*
X146785198Y-91989310D01*
X146481795Y-91685377D01*
X146085177Y-91520686D01*
X145868708Y-91520497D01*
X145868708Y-86576064D01*
X145868708Y-83636064D01*
X145685417Y-83192464D01*
X145346319Y-82852774D01*
X144903040Y-82668709D01*
X144423064Y-82668290D01*
X143979464Y-82851581D01*
X143639774Y-83190679D01*
X143455709Y-83633958D01*
X143455290Y-84113934D01*
X143638581Y-84557534D01*
X143977679Y-84897224D01*
X144420958Y-85081289D01*
X144900934Y-85081708D01*
X145344534Y-84898417D01*
X145684224Y-84559319D01*
X145868289Y-84116040D01*
X145868708Y-83636064D01*
X145868708Y-86576064D01*
X145685417Y-86132464D01*
X145346319Y-85792774D01*
X144903040Y-85608709D01*
X144423064Y-85608290D01*
X143979464Y-85791581D01*
X143639774Y-86130679D01*
X143455709Y-86573958D01*
X143455290Y-87053934D01*
X143638581Y-87497534D01*
X143977679Y-87837224D01*
X144420958Y-88021289D01*
X144900934Y-88021708D01*
X145344534Y-87838417D01*
X145684224Y-87499319D01*
X145868289Y-87056040D01*
X145868708Y-86576064D01*
X145868708Y-91520497D01*
X145655725Y-91520312D01*
X145258820Y-91684310D01*
X144954887Y-91987713D01*
X144790196Y-92384331D01*
X144790006Y-92601870D01*
X143645868Y-93746009D01*
X141995708Y-93746009D01*
X141995708Y-86316064D01*
X141995708Y-83656064D01*
X141812417Y-83212464D01*
X141473319Y-82872774D01*
X141030040Y-82688709D01*
X140550064Y-82688290D01*
X140106464Y-82871581D01*
X139766774Y-83210679D01*
X139582709Y-83653958D01*
X139582290Y-84133934D01*
X139765581Y-84577534D01*
X140104679Y-84917224D01*
X140547958Y-85101289D01*
X141027934Y-85101708D01*
X141471534Y-84918417D01*
X141811224Y-84579319D01*
X141995289Y-84136040D01*
X141995708Y-83656064D01*
X141995708Y-86316064D01*
X141812417Y-85872464D01*
X141473319Y-85532774D01*
X141030040Y-85348709D01*
X140550064Y-85348290D01*
X140106464Y-85531581D01*
X139766774Y-85870679D01*
X139582709Y-86313958D01*
X139582290Y-86793934D01*
X139765581Y-87237534D01*
X140104679Y-87577224D01*
X140547958Y-87761289D01*
X141027934Y-87761708D01*
X141471534Y-87578417D01*
X141811224Y-87239319D01*
X141995289Y-86796040D01*
X141995708Y-86316064D01*
X141995708Y-93746009D01*
X135979686Y-93746009D01*
X135979686Y-80186215D01*
X135815688Y-79789310D01*
X135512285Y-79485377D01*
X135115667Y-79320686D01*
X134898127Y-79320496D01*
X133938814Y-78361184D01*
X133691604Y-78196003D01*
X133399999Y-78137999D01*
X130464640Y-78137999D01*
X130312285Y-77985377D01*
X129915667Y-77820686D01*
X129486215Y-77820312D01*
X129089310Y-77984310D01*
X128785377Y-78287713D01*
X128620686Y-78684331D01*
X128620312Y-79113783D01*
X128784310Y-79510688D01*
X129087713Y-79814621D01*
X129484331Y-79979312D01*
X129913783Y-79979686D01*
X130310688Y-79815688D01*
X130464645Y-79661999D01*
X133084368Y-79661999D01*
X133820499Y-80398130D01*
X133820312Y-80613783D01*
X133984310Y-81010688D01*
X134287713Y-81314621D01*
X134684331Y-81479312D01*
X135113783Y-81479686D01*
X135510688Y-81315688D01*
X135814621Y-81012285D01*
X135979312Y-80615667D01*
X135979686Y-80186215D01*
X135979686Y-93746009D01*
X125979686Y-93746009D01*
X125979686Y-86586215D01*
X125815688Y-86189310D01*
X125512285Y-85885377D01*
X125115667Y-85720686D01*
X124686215Y-85720312D01*
X124289310Y-85884310D01*
X123985377Y-86187713D01*
X123820686Y-86584331D01*
X123820312Y-87013783D01*
X123984310Y-87410688D01*
X124287713Y-87714621D01*
X124684331Y-87879312D01*
X125113783Y-87879686D01*
X125510688Y-87715688D01*
X125814621Y-87412285D01*
X125979312Y-87015667D01*
X125979686Y-86586215D01*
X125979686Y-93746009D01*
X125086771Y-93746009D01*
X123979686Y-92638923D01*
X123979686Y-89786224D01*
X123815688Y-89389319D01*
X123512285Y-89085386D01*
X123115667Y-88920695D01*
X122898127Y-88920505D01*
X122661999Y-88684377D01*
X122661999Y-88389760D01*
X122814621Y-88237405D01*
X122979312Y-87840787D01*
X122979686Y-87411335D01*
X122815688Y-87014430D01*
X122512285Y-86710497D01*
X122115667Y-86545806D01*
X121686215Y-86545432D01*
X121289310Y-86709430D01*
X120985377Y-87012833D01*
X120820686Y-87409451D01*
X120820312Y-87838903D01*
X120984310Y-88235808D01*
X121137999Y-88389765D01*
X121137999Y-89000008D01*
X121196003Y-89291613D01*
X121361184Y-89538823D01*
X121820499Y-89998139D01*
X121820312Y-90213792D01*
X121984310Y-90610697D01*
X122287713Y-90914630D01*
X122684331Y-91079321D01*
X123113783Y-91079695D01*
X123510688Y-90915697D01*
X123814621Y-90612294D01*
X123979312Y-90215676D01*
X123979686Y-89786224D01*
X123979686Y-92638923D01*
X121379466Y-90038703D01*
X121379686Y-89786215D01*
X121215688Y-89389310D01*
X120912285Y-89085377D01*
X120515667Y-88920686D01*
X120086215Y-88920312D01*
X119689310Y-89084310D01*
X119385377Y-89387713D01*
X119220686Y-89784331D01*
X119220312Y-90213783D01*
X119384310Y-90610688D01*
X119687713Y-90914621D01*
X120084331Y-91079312D01*
X120264971Y-91079469D01*
X123927500Y-94741999D01*
X121600629Y-94741999D01*
X117963014Y-91104384D01*
X117715804Y-90939203D01*
X117424199Y-90881199D01*
X109979686Y-90881199D01*
X109979686Y-81386215D01*
X109815688Y-80989310D01*
X109512285Y-80685377D01*
X109115667Y-80520686D01*
X108686215Y-80520312D01*
X108289310Y-80684310D01*
X107985377Y-80987713D01*
X107820686Y-81384331D01*
X107820312Y-81813783D01*
X107984310Y-82210688D01*
X108287713Y-82514621D01*
X108684331Y-82679312D01*
X109113783Y-82679686D01*
X109510688Y-82515688D01*
X109814621Y-82212285D01*
X109979312Y-81815667D01*
X109979686Y-81386215D01*
X109979686Y-90881199D01*
X101041199Y-90881199D01*
X98799686Y-90881199D01*
X98799686Y-84706215D01*
X98635688Y-84309310D01*
X98332285Y-84005377D01*
X97935667Y-83840686D01*
X97506215Y-83840312D01*
X97109310Y-84004310D01*
X96805377Y-84307713D01*
X96640686Y-84704331D01*
X96640312Y-85133783D01*
X96804310Y-85530688D01*
X97107713Y-85834621D01*
X97504331Y-85999312D01*
X97933783Y-85999686D01*
X98330688Y-85835688D01*
X98634621Y-85532285D01*
X98799312Y-85135667D01*
X98799686Y-84706215D01*
X98799686Y-90881199D01*
X98475799Y-90881199D01*
X98184194Y-90939203D01*
X97936984Y-91104384D01*
X95761184Y-93280184D01*
X95596003Y-93527394D01*
X95583578Y-93589856D01*
X95583578Y-93589857D01*
X95385377Y-93787713D01*
X95220686Y-94184331D01*
X95220457Y-94447246D01*
X94915667Y-94320686D01*
X94486215Y-94320312D01*
X94089310Y-94484310D01*
X93785377Y-94787713D01*
X93620686Y-95184331D01*
X93620312Y-95613783D01*
X93784310Y-96010688D01*
X94087713Y-96314621D01*
X94484331Y-96479312D01*
X94913783Y-96479686D01*
X95310688Y-96315688D01*
X95614621Y-96012285D01*
X95779312Y-95615667D01*
X95779540Y-95352751D01*
X96084331Y-95479312D01*
X96513783Y-95479686D01*
X96910688Y-95315688D01*
X97214621Y-95012285D01*
X97379312Y-94615667D01*
X97379686Y-94186215D01*
X97271717Y-93924910D01*
X98791429Y-92405199D01*
X99520580Y-92405199D01*
X99520567Y-92420429D01*
X99386215Y-92420312D01*
X98989310Y-92584310D01*
X98685377Y-92887713D01*
X98520686Y-93284331D01*
X98520312Y-93713783D01*
X98684310Y-94110688D01*
X98987713Y-94414621D01*
X99384331Y-94579312D01*
X99483334Y-94579398D01*
X105688515Y-100784579D01*
X105685377Y-100787713D01*
X105520686Y-101184331D01*
X105520312Y-101613783D01*
X105684310Y-102010688D01*
X105987713Y-102314621D01*
X106384331Y-102479312D01*
X106813783Y-102479686D01*
X107210688Y-102315688D01*
X107364645Y-102161999D01*
X111035531Y-102161999D01*
X111287713Y-102414621D01*
X111684331Y-102579312D01*
X112113783Y-102579686D01*
X112510688Y-102415688D01*
X112814621Y-102112285D01*
X112979312Y-101715667D01*
X112979594Y-101391332D01*
X113369081Y-101553062D01*
X113798533Y-101553436D01*
X114195438Y-101389438D01*
X114499371Y-101086035D01*
X114664062Y-100689417D01*
X114664088Y-100658900D01*
X115010688Y-100515688D01*
X115314621Y-100212285D01*
X115479312Y-99815667D01*
X115479686Y-99386215D01*
X115315688Y-98989310D01*
X115012285Y-98685377D01*
X114615667Y-98520686D01*
X114186215Y-98520312D01*
X113789310Y-98684310D01*
X113635352Y-98837999D01*
X106915629Y-98837999D01*
X101361999Y-93284368D01*
X101361999Y-93264640D01*
X101514621Y-93112285D01*
X101679312Y-92715667D01*
X101679582Y-92405199D01*
X117108568Y-92405199D01*
X120088406Y-95385037D01*
X119885377Y-95587713D01*
X119720686Y-95984331D01*
X119720312Y-96413783D01*
X119884310Y-96810688D01*
X120187713Y-97114621D01*
X120584331Y-97279312D01*
X121013783Y-97279686D01*
X121410688Y-97115688D01*
X121714621Y-96812285D01*
X121879312Y-96415667D01*
X121879442Y-96265999D01*
X121920614Y-96265999D01*
X121920312Y-96613783D01*
X122084310Y-97010688D01*
X122387713Y-97314621D01*
X122598223Y-97402033D01*
X118424541Y-97402033D01*
X118614621Y-97212285D01*
X118779312Y-96815667D01*
X118779686Y-96386215D01*
X118615688Y-95989310D01*
X118312285Y-95685377D01*
X117915667Y-95520686D01*
X117486215Y-95520312D01*
X117089310Y-95684310D01*
X116785377Y-95987713D01*
X116620686Y-96384331D01*
X116620312Y-96813783D01*
X116784310Y-97210688D01*
X116800827Y-97227234D01*
X116457617Y-97084720D01*
X116028165Y-97084346D01*
X115631260Y-97248344D01*
X115327327Y-97551747D01*
X115162636Y-97948365D01*
X115162262Y-98377817D01*
X115326260Y-98774722D01*
X115629663Y-99078655D01*
X116026281Y-99243346D01*
X116455733Y-99243720D01*
X116852638Y-99079722D01*
X117006595Y-98926033D01*
X127748403Y-98926033D01*
X134814369Y-105991999D01*
X120991999Y-105991999D01*
X120991999Y-117007999D01*
X135514368Y-117007999D01*
X131984368Y-120537999D01*
X127377125Y-120537999D01*
X127315688Y-120389310D01*
X127012285Y-120085377D01*
X126615667Y-119920686D01*
X126186215Y-119920312D01*
X125789310Y-120084310D01*
X125485377Y-120387713D01*
X125320686Y-120784331D01*
X125320377Y-121137999D01*
X125279640Y-121137999D01*
X125279686Y-121086215D01*
X125115688Y-120689310D01*
X124812285Y-120385377D01*
X124415667Y-120220686D01*
X123986215Y-120220312D01*
X123589310Y-120384310D01*
X123285377Y-120687713D01*
X123120686Y-121084331D01*
X123120312Y-121513783D01*
X123284310Y-121910688D01*
X123338526Y-121964999D01*
X100579686Y-121964999D01*
X100579686Y-96486215D01*
X100415688Y-96089310D01*
X100112285Y-95785377D01*
X99715667Y-95620686D01*
X99286215Y-95620312D01*
X98889310Y-95784310D01*
X98585377Y-96087713D01*
X98420686Y-96484331D01*
X98420312Y-96913783D01*
X98584310Y-97310688D01*
X98887713Y-97614621D01*
X99284331Y-97779312D01*
X99713783Y-97779686D01*
X100110688Y-97615688D01*
X100414621Y-97312285D01*
X100579312Y-96915667D01*
X100579686Y-96486215D01*
X100579686Y-121964999D01*
X95035817Y-121964999D01*
X94885248Y-121814430D01*
X94885325Y-121726694D01*
X94598956Y-121033627D01*
X94069160Y-120502906D01*
X93376594Y-120215327D01*
X92626694Y-120214673D01*
X91933627Y-120501042D01*
X91402906Y-121030838D01*
X91115327Y-121723404D01*
X91114673Y-122473304D01*
X91401042Y-123166371D01*
X91930838Y-123697092D01*
X92623404Y-123984671D01*
X92713931Y-123984749D01*
X93019181Y-124289999D01*
X89667461Y-124289999D01*
X89667461Y-100471827D01*
X89262290Y-99491238D01*
X88512706Y-98740344D01*
X87532826Y-98333463D01*
X86471827Y-98332537D01*
X85491238Y-98737708D01*
X85039404Y-99188753D01*
X85039404Y-90967144D01*
X85026708Y-90769521D01*
X85026708Y-88661064D01*
X84843417Y-88217464D01*
X84573749Y-87947325D01*
X84842224Y-87679319D01*
X85026289Y-87236040D01*
X85026708Y-86756064D01*
X84843417Y-86312464D01*
X84573749Y-86042325D01*
X84842224Y-85774319D01*
X85026289Y-85331040D01*
X85026708Y-84851064D01*
X84843417Y-84407464D01*
X84504319Y-84067774D01*
X84061040Y-83883709D01*
X83581064Y-83883290D01*
X83137464Y-84066581D01*
X82797774Y-84405679D01*
X82613709Y-84848958D01*
X82613290Y-85328934D01*
X82796581Y-85772534D01*
X83066248Y-86042672D01*
X82797774Y-86310679D01*
X82613709Y-86753958D01*
X82613290Y-87233934D01*
X82796581Y-87677534D01*
X83066248Y-87947672D01*
X82797774Y-88215679D01*
X82613709Y-88658958D01*
X82613290Y-89138934D01*
X82796581Y-89582534D01*
X83135679Y-89922224D01*
X83163582Y-89933810D01*
X83157558Y-89962953D01*
X83819999Y-90625394D01*
X84482440Y-89962953D01*
X84476491Y-89934177D01*
X84502534Y-89923417D01*
X84842224Y-89584319D01*
X85026289Y-89141040D01*
X85026708Y-88661064D01*
X85026708Y-90769521D01*
X85008632Y-90488155D01*
X84884532Y-90188551D01*
X84662045Y-90142558D01*
X83999604Y-90804999D01*
X84662045Y-91467440D01*
X84884532Y-91421447D01*
X85039404Y-90967144D01*
X85039404Y-99188753D01*
X84740344Y-99487292D01*
X84482440Y-100108394D01*
X84482440Y-91647045D01*
X83819999Y-90984604D01*
X83640394Y-91164209D01*
X83640394Y-90804999D01*
X82977953Y-90142558D01*
X82755466Y-90188551D01*
X82600594Y-90642854D01*
X82631366Y-91121843D01*
X82755466Y-91421447D01*
X82977953Y-91467440D01*
X83640394Y-90804999D01*
X83640394Y-91164209D01*
X83157558Y-91647045D01*
X83203551Y-91869532D01*
X83657854Y-92024404D01*
X84136843Y-91993632D01*
X84436447Y-91869532D01*
X84482440Y-91647045D01*
X84482440Y-100108394D01*
X84333463Y-100467172D01*
X84332537Y-101528171D01*
X84737708Y-102508760D01*
X85487292Y-103259654D01*
X86467172Y-103666535D01*
X87528171Y-103667461D01*
X88508760Y-103262290D01*
X89259654Y-102512706D01*
X89666535Y-101532826D01*
X89667461Y-100471827D01*
X89667461Y-124289999D01*
X80507999Y-124289999D01*
X80507999Y-114491999D01*
X79670879Y-114491999D01*
X79670879Y-101510611D01*
X79662974Y-100449642D01*
X79272167Y-99506153D01*
X78898120Y-99281483D01*
X78718515Y-99461088D01*
X78718515Y-99101878D01*
X78493845Y-98727831D01*
X77510611Y-98329119D01*
X76449642Y-98337024D01*
X75506153Y-98727831D01*
X75281483Y-99101878D01*
X76999999Y-100820394D01*
X78718515Y-99101878D01*
X78718515Y-99461088D01*
X77179604Y-100999999D01*
X78898120Y-102718515D01*
X79272167Y-102493845D01*
X79670879Y-101510611D01*
X79670879Y-114491999D01*
X78718515Y-114491999D01*
X78718515Y-102898120D01*
X76999999Y-101179604D01*
X76820394Y-101359209D01*
X76820394Y-100999999D01*
X75101878Y-99281483D01*
X74727831Y-99506153D01*
X74329119Y-100489387D01*
X74337024Y-101550356D01*
X74727831Y-102493845D01*
X75101878Y-102718515D01*
X76820394Y-100999999D01*
X76820394Y-101359209D01*
X75281483Y-102898120D01*
X75506153Y-103272167D01*
X76489387Y-103670879D01*
X77550356Y-103662974D01*
X78493845Y-103272167D01*
X78718515Y-102898120D01*
X78718515Y-114491999D01*
X70709999Y-114491999D01*
X70709999Y-85507999D01*
X80507999Y-85507999D01*
X80507999Y-75709999D01*
X112363226Y-75709999D01*
X112285377Y-75787713D01*
X112120686Y-76184331D01*
X112120312Y-76613783D01*
X112284310Y-77010688D01*
X112587713Y-77314621D01*
X112984331Y-77479312D01*
X113413783Y-77479686D01*
X113810688Y-77315688D01*
X114114621Y-77012285D01*
X114279312Y-76615667D01*
X114279686Y-76186215D01*
X114115688Y-75789310D01*
X114036515Y-75709999D01*
X115076122Y-75709999D01*
X114920686Y-76084331D01*
X114920312Y-76513783D01*
X115084310Y-76910688D01*
X115387713Y-77214621D01*
X115676784Y-77334654D01*
X115676444Y-77725113D01*
X115840442Y-78122018D01*
X116143845Y-78425951D01*
X116540463Y-78590642D01*
X116969915Y-78591016D01*
X117366820Y-78427018D01*
X117670753Y-78123615D01*
X117835444Y-77726997D01*
X117835818Y-77297545D01*
X117671820Y-76900640D01*
X117368417Y-76596707D01*
X117079345Y-76476673D01*
X117079686Y-76086215D01*
X116924236Y-75709999D01*
X159491999Y-75709999D01*
X159491999Y-85507999D01*
X169289999Y-85507999D01*
X169289999Y-114491999D01*
X169289999Y-114491999D01*
G37*
X169289999Y-114491999D02*
X159491999Y-114491999D01*
X159491999Y-124289999D01*
X148204010Y-124289999D01*
X148666371Y-124098956D01*
X149197092Y-123569160D01*
X149484671Y-122876594D01*
X149485325Y-122126694D01*
X149198956Y-121433627D01*
X148669160Y-120902906D01*
X147976594Y-120615327D01*
X147226694Y-120614673D01*
X146533627Y-120901042D01*
X146002906Y-121430838D01*
X145781102Y-121964999D01*
X133912629Y-121964999D01*
X137638814Y-118238814D01*
X137803995Y-117991604D01*
X137803995Y-117991603D01*
X137861999Y-117699999D01*
X137861999Y-112845540D01*
X138071713Y-113055621D01*
X138468331Y-113220312D01*
X138897783Y-113220686D01*
X139294688Y-113056688D01*
X139598621Y-112753285D01*
X139763312Y-112356667D01*
X139763686Y-111927215D01*
X139599688Y-111530310D01*
X139296285Y-111226377D01*
X138899667Y-111061686D01*
X138682126Y-111061496D01*
X138556999Y-110936369D01*
X138556999Y-105663999D01*
X138498995Y-105372395D01*
X138498995Y-105372394D01*
X138432833Y-105273375D01*
X138333815Y-105125184D01*
X128478639Y-95270009D01*
X143961499Y-95270009D01*
X143961499Y-95270008D01*
X144253103Y-95212005D01*
X144253104Y-95212005D01*
X144500314Y-95046824D01*
X145867640Y-93679498D01*
X146083293Y-93679686D01*
X146480198Y-93515688D01*
X146784131Y-93212285D01*
X146948822Y-92815667D01*
X146949196Y-92386215D01*
X146785198Y-91989310D01*
X146481795Y-91685377D01*
X146085177Y-91520686D01*
X145868708Y-91520497D01*
X145868708Y-86576064D01*
X145868708Y-83636064D01*
X145685417Y-83192464D01*
X145346319Y-82852774D01*
X144903040Y-82668709D01*
X144423064Y-82668290D01*
X143979464Y-82851581D01*
X143639774Y-83190679D01*
X143455709Y-83633958D01*
X143455290Y-84113934D01*
X143638581Y-84557534D01*
X143977679Y-84897224D01*
X144420958Y-85081289D01*
X144900934Y-85081708D01*
X145344534Y-84898417D01*
X145684224Y-84559319D01*
X145868289Y-84116040D01*
X145868708Y-83636064D01*
X145868708Y-86576064D01*
X145685417Y-86132464D01*
X145346319Y-85792774D01*
X144903040Y-85608709D01*
X144423064Y-85608290D01*
X143979464Y-85791581D01*
X143639774Y-86130679D01*
X143455709Y-86573958D01*
X143455290Y-87053934D01*
X143638581Y-87497534D01*
X143977679Y-87837224D01*
X144420958Y-88021289D01*
X144900934Y-88021708D01*
X145344534Y-87838417D01*
X145684224Y-87499319D01*
X145868289Y-87056040D01*
X145868708Y-86576064D01*
X145868708Y-91520497D01*
X145655725Y-91520312D01*
X145258820Y-91684310D01*
X144954887Y-91987713D01*
X144790196Y-92384331D01*
X144790006Y-92601870D01*
X143645868Y-93746009D01*
X141995708Y-93746009D01*
X141995708Y-86316064D01*
X141995708Y-83656064D01*
X141812417Y-83212464D01*
X141473319Y-82872774D01*
X141030040Y-82688709D01*
X140550064Y-82688290D01*
X140106464Y-82871581D01*
X139766774Y-83210679D01*
X139582709Y-83653958D01*
X139582290Y-84133934D01*
X139765581Y-84577534D01*
X140104679Y-84917224D01*
X140547958Y-85101289D01*
X141027934Y-85101708D01*
X141471534Y-84918417D01*
X141811224Y-84579319D01*
X141995289Y-84136040D01*
X141995708Y-83656064D01*
X141995708Y-86316064D01*
X141812417Y-85872464D01*
X141473319Y-85532774D01*
X141030040Y-85348709D01*
X140550064Y-85348290D01*
X140106464Y-85531581D01*
X139766774Y-85870679D01*
X139582709Y-86313958D01*
X139582290Y-86793934D01*
X139765581Y-87237534D01*
X140104679Y-87577224D01*
X140547958Y-87761289D01*
X141027934Y-87761708D01*
X141471534Y-87578417D01*
X141811224Y-87239319D01*
X141995289Y-86796040D01*
X141995708Y-86316064D01*
X141995708Y-93746009D01*
X135979686Y-93746009D01*
X135979686Y-80186215D01*
X135815688Y-79789310D01*
X135512285Y-79485377D01*
X135115667Y-79320686D01*
X134898127Y-79320496D01*
X133938814Y-78361184D01*
X133691604Y-78196003D01*
X133399999Y-78137999D01*
X130464640Y-78137999D01*
X130312285Y-77985377D01*
X129915667Y-77820686D01*
X129486215Y-77820312D01*
X129089310Y-77984310D01*
X128785377Y-78287713D01*
X128620686Y-78684331D01*
X128620312Y-79113783D01*
X128784310Y-79510688D01*
X129087713Y-79814621D01*
X129484331Y-79979312D01*
X129913783Y-79979686D01*
X130310688Y-79815688D01*
X130464645Y-79661999D01*
X133084368Y-79661999D01*
X133820499Y-80398130D01*
X133820312Y-80613783D01*
X133984310Y-81010688D01*
X134287713Y-81314621D01*
X134684331Y-81479312D01*
X135113783Y-81479686D01*
X135510688Y-81315688D01*
X135814621Y-81012285D01*
X135979312Y-80615667D01*
X135979686Y-80186215D01*
X135979686Y-93746009D01*
X125979686Y-93746009D01*
X125979686Y-86586215D01*
X125815688Y-86189310D01*
X125512285Y-85885377D01*
X125115667Y-85720686D01*
X124686215Y-85720312D01*
X124289310Y-85884310D01*
X123985377Y-86187713D01*
X123820686Y-86584331D01*
X123820312Y-87013783D01*
X123984310Y-87410688D01*
X124287713Y-87714621D01*
X124684331Y-87879312D01*
X125113783Y-87879686D01*
X125510688Y-87715688D01*
X125814621Y-87412285D01*
X125979312Y-87015667D01*
X125979686Y-86586215D01*
X125979686Y-93746009D01*
X125086771Y-93746009D01*
X123979686Y-92638923D01*
X123979686Y-89786224D01*
X123815688Y-89389319D01*
X123512285Y-89085386D01*
X123115667Y-88920695D01*
X122898127Y-88920505D01*
X122661999Y-88684377D01*
X122661999Y-88389760D01*
X122814621Y-88237405D01*
X122979312Y-87840787D01*
X122979686Y-87411335D01*
X122815688Y-87014430D01*
X122512285Y-86710497D01*
X122115667Y-86545806D01*
X121686215Y-86545432D01*
X121289310Y-86709430D01*
X120985377Y-87012833D01*
X120820686Y-87409451D01*
X120820312Y-87838903D01*
X120984310Y-88235808D01*
X121137999Y-88389765D01*
X121137999Y-89000008D01*
X121196003Y-89291613D01*
X121361184Y-89538823D01*
X121820499Y-89998139D01*
X121820312Y-90213792D01*
X121984310Y-90610697D01*
X122287713Y-90914630D01*
X122684331Y-91079321D01*
X123113783Y-91079695D01*
X123510688Y-90915697D01*
X123814621Y-90612294D01*
X123979312Y-90215676D01*
X123979686Y-89786224D01*
X123979686Y-92638923D01*
X121379466Y-90038703D01*
X121379686Y-89786215D01*
X121215688Y-89389310D01*
X120912285Y-89085377D01*
X120515667Y-88920686D01*
X120086215Y-88920312D01*
X119689310Y-89084310D01*
X119385377Y-89387713D01*
X119220686Y-89784331D01*
X119220312Y-90213783D01*
X119384310Y-90610688D01*
X119687713Y-90914621D01*
X120084331Y-91079312D01*
X120264971Y-91079469D01*
X123927500Y-94741999D01*
X121600629Y-94741999D01*
X117963014Y-91104384D01*
X117715804Y-90939203D01*
X117424199Y-90881199D01*
X109979686Y-90881199D01*
X109979686Y-81386215D01*
X109815688Y-80989310D01*
X109512285Y-80685377D01*
X109115667Y-80520686D01*
X108686215Y-80520312D01*
X108289310Y-80684310D01*
X107985377Y-80987713D01*
X107820686Y-81384331D01*
X107820312Y-81813783D01*
X107984310Y-82210688D01*
X108287713Y-82514621D01*
X108684331Y-82679312D01*
X109113783Y-82679686D01*
X109510688Y-82515688D01*
X109814621Y-82212285D01*
X109979312Y-81815667D01*
X109979686Y-81386215D01*
X109979686Y-90881199D01*
X101041199Y-90881199D01*
X98799686Y-90881199D01*
X98799686Y-84706215D01*
X98635688Y-84309310D01*
X98332285Y-84005377D01*
X97935667Y-83840686D01*
X97506215Y-83840312D01*
X97109310Y-84004310D01*
X96805377Y-84307713D01*
X96640686Y-84704331D01*
X96640312Y-85133783D01*
X96804310Y-85530688D01*
X97107713Y-85834621D01*
X97504331Y-85999312D01*
X97933783Y-85999686D01*
X98330688Y-85835688D01*
X98634621Y-85532285D01*
X98799312Y-85135667D01*
X98799686Y-84706215D01*
X98799686Y-90881199D01*
X98475799Y-90881199D01*
X98184194Y-90939203D01*
X97936984Y-91104384D01*
X95761184Y-93280184D01*
X95596003Y-93527394D01*
X95583578Y-93589856D01*
X95583578Y-93589857D01*
X95385377Y-93787713D01*
X95220686Y-94184331D01*
X95220457Y-94447246D01*
X94915667Y-94320686D01*
X94486215Y-94320312D01*
X94089310Y-94484310D01*
X93785377Y-94787713D01*
X93620686Y-95184331D01*
X93620312Y-95613783D01*
X93784310Y-96010688D01*
X94087713Y-96314621D01*
X94484331Y-96479312D01*
X94913783Y-96479686D01*
X95310688Y-96315688D01*
X95614621Y-96012285D01*
X95779312Y-95615667D01*
X95779540Y-95352751D01*
X96084331Y-95479312D01*
X96513783Y-95479686D01*
X96910688Y-95315688D01*
X97214621Y-95012285D01*
X97379312Y-94615667D01*
X97379686Y-94186215D01*
X97271717Y-93924910D01*
X98791429Y-92405199D01*
X99520580Y-92405199D01*
X99520567Y-92420429D01*
X99386215Y-92420312D01*
X98989310Y-92584310D01*
X98685377Y-92887713D01*
X98520686Y-93284331D01*
X98520312Y-93713783D01*
X98684310Y-94110688D01*
X98987713Y-94414621D01*
X99384331Y-94579312D01*
X99483334Y-94579398D01*
X105688515Y-100784579D01*
X105685377Y-100787713D01*
X105520686Y-101184331D01*
X105520312Y-101613783D01*
X105684310Y-102010688D01*
X105987713Y-102314621D01*
X106384331Y-102479312D01*
X106813783Y-102479686D01*
X107210688Y-102315688D01*
X107364645Y-102161999D01*
X111035531Y-102161999D01*
X111287713Y-102414621D01*
X111684331Y-102579312D01*
X112113783Y-102579686D01*
X112510688Y-102415688D01*
X112814621Y-102112285D01*
X112979312Y-101715667D01*
X112979594Y-101391332D01*
X113369081Y-101553062D01*
X113798533Y-101553436D01*
X114195438Y-101389438D01*
X114499371Y-101086035D01*
X114664062Y-100689417D01*
X114664088Y-100658900D01*
X115010688Y-100515688D01*
X115314621Y-100212285D01*
X115479312Y-99815667D01*
X115479686Y-99386215D01*
X115315688Y-98989310D01*
X115012285Y-98685377D01*
X114615667Y-98520686D01*
X114186215Y-98520312D01*
X113789310Y-98684310D01*
X113635352Y-98837999D01*
X106915629Y-98837999D01*
X101361999Y-93284368D01*
X101361999Y-93264640D01*
X101514621Y-93112285D01*
X101679312Y-92715667D01*
X101679582Y-92405199D01*
X117108568Y-92405199D01*
X120088406Y-95385037D01*
X119885377Y-95587713D01*
X119720686Y-95984331D01*
X119720312Y-96413783D01*
X119884310Y-96810688D01*
X120187713Y-97114621D01*
X120584331Y-97279312D01*
X121013783Y-97279686D01*
X121410688Y-97115688D01*
X121714621Y-96812285D01*
X121879312Y-96415667D01*
X121879442Y-96265999D01*
X121920614Y-96265999D01*
X121920312Y-96613783D01*
X122084310Y-97010688D01*
X122387713Y-97314621D01*
X122598223Y-97402033D01*
X118424541Y-97402033D01*
X118614621Y-97212285D01*
X118779312Y-96815667D01*
X118779686Y-96386215D01*
X118615688Y-95989310D01*
X118312285Y-95685377D01*
X117915667Y-95520686D01*
X117486215Y-95520312D01*
X117089310Y-95684310D01*
X116785377Y-95987713D01*
X116620686Y-96384331D01*
X116620312Y-96813783D01*
X116784310Y-97210688D01*
X116800827Y-97227234D01*
X116457617Y-97084720D01*
X116028165Y-97084346D01*
X115631260Y-97248344D01*
X115327327Y-97551747D01*
X115162636Y-97948365D01*
X115162262Y-98377817D01*
X115326260Y-98774722D01*
X115629663Y-99078655D01*
X116026281Y-99243346D01*
X116455733Y-99243720D01*
X116852638Y-99079722D01*
X117006595Y-98926033D01*
X127748403Y-98926033D01*
X134814369Y-105991999D01*
X120991999Y-105991999D01*
X120991999Y-117007999D01*
X135514368Y-117007999D01*
X131984368Y-120537999D01*
X127377125Y-120537999D01*
X127315688Y-120389310D01*
X127012285Y-120085377D01*
X126615667Y-119920686D01*
X126186215Y-119920312D01*
X125789310Y-120084310D01*
X125485377Y-120387713D01*
X125320686Y-120784331D01*
X125320377Y-121137999D01*
X125279640Y-121137999D01*
X125279686Y-121086215D01*
X125115688Y-120689310D01*
X124812285Y-120385377D01*
X124415667Y-120220686D01*
X123986215Y-120220312D01*
X123589310Y-120384310D01*
X123285377Y-120687713D01*
X123120686Y-121084331D01*
X123120312Y-121513783D01*
X123284310Y-121910688D01*
X123338526Y-121964999D01*
X100579686Y-121964999D01*
X100579686Y-96486215D01*
X100415688Y-96089310D01*
X100112285Y-95785377D01*
X99715667Y-95620686D01*
X99286215Y-95620312D01*
X98889310Y-95784310D01*
X98585377Y-96087713D01*
X98420686Y-96484331D01*
X98420312Y-96913783D01*
X98584310Y-97310688D01*
X98887713Y-97614621D01*
X99284331Y-97779312D01*
X99713783Y-97779686D01*
X100110688Y-97615688D01*
X100414621Y-97312285D01*
X100579312Y-96915667D01*
X100579686Y-96486215D01*
X100579686Y-121964999D01*
X95035817Y-121964999D01*
X94885248Y-121814430D01*
X94885325Y-121726694D01*
X94598956Y-121033627D01*
X94069160Y-120502906D01*
X93376594Y-120215327D01*
X92626694Y-120214673D01*
X91933627Y-120501042D01*
X91402906Y-121030838D01*
X91115327Y-121723404D01*
X91114673Y-122473304D01*
X91401042Y-123166371D01*
X91930838Y-123697092D01*
X92623404Y-123984671D01*
X92713931Y-123984749D01*
X93019181Y-124289999D01*
X89667461Y-124289999D01*
X89667461Y-100471827D01*
X89262290Y-99491238D01*
X88512706Y-98740344D01*
X87532826Y-98333463D01*
X86471827Y-98332537D01*
X85491238Y-98737708D01*
X85039404Y-99188753D01*
X85039404Y-90967144D01*
X85026708Y-90769521D01*
X85026708Y-88661064D01*
X84843417Y-88217464D01*
X84573749Y-87947325D01*
X84842224Y-87679319D01*
X85026289Y-87236040D01*
X85026708Y-86756064D01*
X84843417Y-86312464D01*
X84573749Y-86042325D01*
X84842224Y-85774319D01*
X85026289Y-85331040D01*
X85026708Y-84851064D01*
X84843417Y-84407464D01*
X84504319Y-84067774D01*
X84061040Y-83883709D01*
X83581064Y-83883290D01*
X83137464Y-84066581D01*
X82797774Y-84405679D01*
X82613709Y-84848958D01*
X82613290Y-85328934D01*
X82796581Y-85772534D01*
X83066248Y-86042672D01*
X82797774Y-86310679D01*
X82613709Y-86753958D01*
X82613290Y-87233934D01*
X82796581Y-87677534D01*
X83066248Y-87947672D01*
X82797774Y-88215679D01*
X82613709Y-88658958D01*
X82613290Y-89138934D01*
X82796581Y-89582534D01*
X83135679Y-89922224D01*
X83163582Y-89933810D01*
X83157558Y-89962953D01*
X83819999Y-90625394D01*
X84482440Y-89962953D01*
X84476491Y-89934177D01*
X84502534Y-89923417D01*
X84842224Y-89584319D01*
X85026289Y-89141040D01*
X85026708Y-88661064D01*
X85026708Y-90769521D01*
X85008632Y-90488155D01*
X84884532Y-90188551D01*
X84662045Y-90142558D01*
X83999604Y-90804999D01*
X84662045Y-91467440D01*
X84884532Y-91421447D01*
X85039404Y-90967144D01*
X85039404Y-99188753D01*
X84740344Y-99487292D01*
X84482440Y-100108394D01*
X84482440Y-91647045D01*
X83819999Y-90984604D01*
X83640394Y-91164209D01*
X83640394Y-90804999D01*
X82977953Y-90142558D01*
X82755466Y-90188551D01*
X82600594Y-90642854D01*
X82631366Y-91121843D01*
X82755466Y-91421447D01*
X82977953Y-91467440D01*
X83640394Y-90804999D01*
X83640394Y-91164209D01*
X83157558Y-91647045D01*
X83203551Y-91869532D01*
X83657854Y-92024404D01*
X84136843Y-91993632D01*
X84436447Y-91869532D01*
X84482440Y-91647045D01*
X84482440Y-100108394D01*
X84333463Y-100467172D01*
X84332537Y-101528171D01*
X84737708Y-102508760D01*
X85487292Y-103259654D01*
X86467172Y-103666535D01*
X87528171Y-103667461D01*
X88508760Y-103262290D01*
X89259654Y-102512706D01*
X89666535Y-101532826D01*
X89667461Y-100471827D01*
X89667461Y-124289999D01*
X80507999Y-124289999D01*
X80507999Y-114491999D01*
X79670879Y-114491999D01*
X79670879Y-101510611D01*
X79662974Y-100449642D01*
X79272167Y-99506153D01*
X78898120Y-99281483D01*
X78718515Y-99461088D01*
X78718515Y-99101878D01*
X78493845Y-98727831D01*
X77510611Y-98329119D01*
X76449642Y-98337024D01*
X75506153Y-98727831D01*
X75281483Y-99101878D01*
X76999999Y-100820394D01*
X78718515Y-99101878D01*
X78718515Y-99461088D01*
X77179604Y-100999999D01*
X78898120Y-102718515D01*
X79272167Y-102493845D01*
X79670879Y-101510611D01*
X79670879Y-114491999D01*
X78718515Y-114491999D01*
X78718515Y-102898120D01*
X76999999Y-101179604D01*
X76820394Y-101359209D01*
X76820394Y-100999999D01*
X75101878Y-99281483D01*
X74727831Y-99506153D01*
X74329119Y-100489387D01*
X74337024Y-101550356D01*
X74727831Y-102493845D01*
X75101878Y-102718515D01*
X76820394Y-100999999D01*
X76820394Y-101359209D01*
X75281483Y-102898120D01*
X75506153Y-103272167D01*
X76489387Y-103670879D01*
X77550356Y-103662974D01*
X78493845Y-103272167D01*
X78718515Y-102898120D01*
X78718515Y-114491999D01*
X70709999Y-114491999D01*
X70709999Y-85507999D01*
X80507999Y-85507999D01*
X80507999Y-75709999D01*
X112363226Y-75709999D01*
X112285377Y-75787713D01*
X112120686Y-76184331D01*
X112120312Y-76613783D01*
X112284310Y-77010688D01*
X112587713Y-77314621D01*
X112984331Y-77479312D01*
X113413783Y-77479686D01*
X113810688Y-77315688D01*
X114114621Y-77012285D01*
X114279312Y-76615667D01*
X114279686Y-76186215D01*
X114115688Y-75789310D01*
X114036515Y-75709999D01*
X115076122Y-75709999D01*
X114920686Y-76084331D01*
X114920312Y-76513783D01*
X115084310Y-76910688D01*
X115387713Y-77214621D01*
X115676784Y-77334654D01*
X115676444Y-77725113D01*
X115840442Y-78122018D01*
X116143845Y-78425951D01*
X116540463Y-78590642D01*
X116969915Y-78591016D01*
X117366820Y-78427018D01*
X117670753Y-78123615D01*
X117835444Y-77726997D01*
X117835818Y-77297545D01*
X117671820Y-76900640D01*
X117368417Y-76596707D01*
X117079345Y-76476673D01*
X117079686Y-76086215D01*
X116924236Y-75709999D01*
X159491999Y-75709999D01*
X159491999Y-85507999D01*
X169289999Y-85507999D01*
X169289999Y-114491999D01*
M02*
