%FSLAX46Y46*%
G04 Gerber Fmt 4.6, Leading zero omitted, Abs format (unit mm)*
G04 Created by KiCad (PCBNEW (2014-jan-25)-product) date Mon 14 Jul 2014 14:08:30 EST*
%MOMM*%
G01*
G04 APERTURE LIST*
%ADD10C,0.150000*%
%ADD11C,4.064000*%
%ADD12C,1.143000*%
%ADD13C,0.889000*%
%ADD14C,2.500000*%
G04 APERTURE END LIST*
D10*
D11*
X76999999Y-100999999D03*
X86999999Y-100999999D03*
D12*
X144661999Y-86814999D03*
X144661999Y-83874999D03*
X140788999Y-86554999D03*
X140788999Y-83894999D03*
X83819999Y-88899999D03*
X83819999Y-86994999D03*
X83819999Y-85089999D03*
X83819999Y-90804999D03*
D13*
X120699999Y-93099999D03*
X101999999Y-90799999D03*
X115699999Y-84499999D03*
X101899999Y-83199999D03*
X101899999Y-85799999D03*
X106599999Y-121599999D03*
X120099999Y-108499999D03*
X120776999Y-104393999D03*
X122808999Y-102234999D03*
X142747999Y-115950999D03*
X140334999Y-109473999D03*
X138302999Y-102615999D03*
X99399999Y-105099999D03*
D14*
X147599999Y-122499999D03*
X92999999Y-122099999D03*
D13*
X134899999Y-80399999D03*
X129699999Y-78899999D03*
X111899999Y-101499999D03*
X106599999Y-101399999D03*
X120299999Y-89999999D03*
X145869509Y-92599999D03*
X99599999Y-93499999D03*
X113584749Y-100473749D03*
X114399999Y-99599999D03*
X100599999Y-92499999D03*
X122899999Y-90000008D03*
X121899999Y-87625119D03*
X122999999Y-96399999D03*
X124199999Y-121299999D03*
X96299999Y-94399999D03*
X138683999Y-112140999D03*
X113199999Y-76399999D03*
X108899999Y-81599999D03*
X115999999Y-76299999D03*
X116756131Y-77511329D03*
X99499999Y-96699999D03*
X117699999Y-96599999D03*
X120799999Y-96199999D03*
X94699999Y-95399999D03*
X124899999Y-86799999D03*
X97719999Y-84919999D03*
X126399999Y-120999999D03*
X116241949Y-98164033D03*
M02*
